<svg width="210mm" height="297mm" version="1.1" viewBox="0 0 210 297" xmlns="http://www.w3.org/2000/svg">
 <path d="m-47.509 301.17c0.0267 0 0.0627 0.01 0.0827 0-0.035 0.0167-0.062 0.0151-0.0827 0zm0.43317 1.0594c0.012-0.0373 0.27658-0.16035 0.31821-0.17341 0.9211-0.28343-0.57707 1.043-0.31821 0.17341zm2.5082-2.2794h0.64065c0.0243 0.0415 0.037 0.0865 0.0222 0.1349-0.10231 0.34403-0.44097 0.12566-0.66287-0.1349zm147.96 0h0.57291c-0.52211 1.1894-1.5716 1.025-0.57291 0zm5.2066 2.3593c-0.27658 3e-3 -4.1769 0.2431-4.2143-0.62451-0.0229-0.5486 3.6625-0.33599 4.2143 0.62451zm31.638-2.3593c0.17886 0.28246-0.43603 0.72599-0.69885 0.52206-0.14816-0.11692-0.16475-0.35509-0.0593-0.52206zm-11.84 0.33392c-5e-3 0.0428 0.22578 1.1756 0.11818 1.3958-1.0936 2.2383-3.7656 0.0195-3.5377-1.7297h3.6763c0.0229 0.32309-0.26952 0.44001-0.25682 0.33392zm4.6143-129.81c-1.0058-1.3142-0.73236-2.6643 0.23107-3.4633 1.8799-1.5592 6.1546 0.0857 4.6066 3.3302-0.89112 1.8703-3.7253 1.5872-4.8376 0.1331zm-18.101-25.342c-0.0268 8.1e-4 -0.0628-0.01-0.0825 9.6e-4 0.0349-0.0173 0.0617-0.0155 0.0825-9.6e-4zm-0.43286-1.0595c-0.0124 0.0374-0.27693 0.16045-0.31856 0.1734-0.9211 0.28348 0.57679-1.0429 0.31856-0.1734zm13.985 31.382c-0.44521-1.1346 0.94579-1.175 0 0zm-19.746 29.082c0.57327-0.37953 0.85408 0.62453-0.0473 0.67848 0.25012-0.12374 0.3101-0.78353 0.0473-0.67848zm18.454-41.309c0.0198 0.15326-0.41451 2.0747-0.27517 1.8189-0.508 0.93212-2.16 1.3789-2.8642 1.5599-1.3825 0.35289-1.6182 0.40795-2.6102-1.0807-0.56692-0.84901-0.88159-1.739-0.86043-2.0344 0.18803-2.6452 5.95-5.2548 6.61-0.2637zm3.4399 53.811c-0.0547 0.78964-1.2188 1.7843-2.1526 0.96412-2.4772-2.174 2.3315-3.5342 2.1526-0.96412zm-19.104-23.588c-1.5628-0.76914 0.0843-2.7683 0.92146-1.7541 0.58984 0.7141 0.0469 2.2294-0.92146 1.7541zm-1.8344 19.143c0.60783 0.38421 0.13405 1.4012-0.61454 1.1692-1.1056-0.34249 0.13581-1.4739 0.61454-1.1692zm18.461 29.778c-0.81527-3.4007 3.9158-0.86412 1.7099 0.52883-0.55245 0.3486-1.1599-7e-3 -1.5505-0.61554 1e-3 2e-3 -0.16016 0.082-0.15945 0.0867zm6.0018-94.709c0.19368-1.0523 0.58702-2.057 1.1472-2.6758 0.3249-0.3583 0.25964 0.20794 0.80645-0.0231 0.53763-0.22592 0.45578-0.9044 0.6992-1.0058 0.33937-0.14246 0.80998 0.19102 1.2947 0.12879 0.86148-0.1108 1.7268-1.0044 2.3124-1.0508 0.7292-0.0587 1.3081 0.64108 2.2821 0.84218 0.57291 0.11871 1.2171-0.23456 1.6129-0.0446 0.10231 0.0497 2.692 1.9322 2.8875 2.3898 0.23389 0.54645-0.34008 1.0533-0.19967 1.5688 0.066 0.24571 0.74683 0.6364 0.75388 1.0494 3e-3 0.2126-0.62582 0.57487-0.70061 1.0069-0.14676 0.85332 0.99201 1.7149 0.5535 2.6182-0.3944 0.81302-1.7491 0.42161-2.4705 1.1372-0.50059 0.49575-0.0346 1.2858-0.60466 1.5811-0.83502 0.43205-0.68615-0.74215-1.8683-0.44321-0.54786 0.13922-1.0446 0.91304-1.3455 0.94218-0.96767 0.0971-2.7372-1.6196-3.3853 0.17555-1.1783-2.3819-2.9037-3.3108-3.6015-4.921-0.27375-0.63316-0.35842-1.5221-0.28469-2.4416-0.10795 0.0476-0.25964 0.0518-0.46424-0.0111-0.39229-0.12232-0.59761-0.53207-0.4251-0.81195 0.38664-0.62704 0.80573-0.39248 1.0001-0.0111zm-6.356 20.239c-0.11536-0.0673-0.67451-0.0165-0.34008-0.64898 0.85866-1.6232 2.0246 1.643 0.34008 0.64898zm-9.4033 32.026c-0.0893 0.11512-0.41698-0.0849-0.48719-0.15218-0.635-0.5943 1.0463-0.56947 0.48719 0.15218zm-0.59514-1.1361c-0.67733 0.2896-0.4766 0.88426-0.21096 1.1573 1.3808 1.4206 1.7046-1.7962 0.21096-1.1573zm5.4935-39.49c-0.64982-0.35616-0.49354-1.3044 0.28469-1.407 0.87489-0.11476 1.0206 2.1247-0.28469 1.407zm-4.1638 62.332c-0.27869 0.19247-0.45438 0.0593-0.64664-0.0641-1.6362-1.0598 2.3555-1.1077 0.64664 0.0641zm6.677-98.53c0.26918-0.22594 0.97226 0.63207 0.34008 0.64934-0.56021 0.0155-0.31009-0.67417-0.34008-0.64934zm2.0549 62.49c-0.65476-0.66624 4.1286-0.87886 3.9479-0.27376-0.20496 0.68891-3.695 0.52991-3.9479 0.27376zm10.342 58.393c1.7508-0.40077 1.6605 3.5385-0.18027 2.3927-0.92957-0.57991-0.88336-2.1488 0.18027-2.3927zm-4.1698-81.36c1.2305 0.0744 0.72955 1.7552 0 0zm-0.4152-0.39933c-0.12559 0.30724-0.23001 0.90153 0.5228 1.384 0.50765 0.32773 1.0269 0.44501 1.5268-0.20614 0.90065-1.1742-1.4556-2.6269-2.0496-1.1778zm-20.168-11.956c0.0815-0.41622 1.4016-1.0616 1.4838-1.8505 0.0572-0.5425-0.76165-0.47558-0.91334-0.96233-0.14605-0.47487 0.77928-1.7577-0.53128-1.7962 0.88194-0.29752 0.74683 0.61408 1.221 0.37737 0.1905-0.0947 0.35913-0.81303 0.21943-0.90944 0.21837-7e-3 0.63958 0.22448 1.1268-0.032 0.39864-0.21081 0.34325-0.72849 0.62653-0.75799 0.79058-0.0827 2.1908 0.6087 2.9108 1.4192 0.72849 0.38384 1.4566 0.97096 1.3187 1.4314-0.0981 0.33025-0.3422 0.34967-0.63924 0.19751 0.11536 0.71338 0.12876 1.4116 0.4131 1.861 0.19474 0.3101 1.5127 0.79145 1.4866 1.2768-0.0328 0.61373-1.2869 0.53314-1.9099 1.0404-0.56409 0.45797-0.80539 1.5156-1.803 2.0243-1.6203 0.82634-3.9264 0.0309-4.687-1.5408 0.12629 0.10469-0.2667-2.0664-0.32279-1.7786zm8.0613-21.701c-0.0783 0.0115-0.57009-0.32304-0.49953-0.56228 0.25858-0.86628 1.5519 0.40939 0.49953 0.56228zm-9.3835 44.946c0.53939 0.96447-0.97473 0.49536 0 0zm-0.13759 0.90836c0.097 0.0309 0.58879 0.0285 0.72179-0.18456 1.0552-1.6948-2.964-0.49861-0.72179 0.18456zm-0.66534-28.21c0.2219-0.74287 1.5455 1.1386 0.41487 0.40004-0.0222-0.0132-0.48295-0.1716-0.41487-0.40004zm-2.6811-28.154c-0.10301-5e-3 -0.76482-0.48026-0.98778-0.71302-0.70343-0.73497-0.49812-2.5413 0.24236-3.0521 2.3901-1.6491 4.3145 3.932 0.74542 3.7651zm8.1114 123.63c0.1711-0.94219 0.98249 1.0418 0.0963 0.57342-0.10583-0.15612 0.51364-0.70222-0.0963-0.57342zm-9.5656-123.68c-0.30762 0.16765-0.5909-0.72596-0.0959-0.57308 0.22895 0.0708 0.1778 0.52847 0.0959 0.57308zm4.4351 97.483c-0.57785-0.17052-0.36195-0.8008-0.0226-0.82238 0.39758-0.0259 0.71649 1.0278 0.0226 0.82238zm20.016 21.423c-1.4587-1.5034 0.95814-3.1705 1.9607-2.1114 1.0721 1.13-0.38524 3.7378-1.9607 2.1114zm-20.288-31.703c-0.49742 0.13095-0.39652-1.0742 0.13723-0.90873 0.47307 0.14607-0.387 0.97492-0.13723 0.90873zm0.61524-1.1692c-0.502-0.43744-2.0426 0.70367-0.93274 1.3426 0.77611 0.44788 1.4457-0.89578 0.93274-1.3426zm-3.8615-30.014c-0.46391-0.99902 0.83996-0.59467 0 0zm9.9159-58.375c0.91616 0.53675-0.22473 2.7701-1.0171 1.18 0.0526 0.10576 0.018-1.7664 1.0171-1.18zm-2.0147 3.1834c0.27587 0.21405 0.10513 0.84613-0.46461 0.67021-0.6918-0.21332 0.14817-0.91915 0.46461-0.67021zm9.0431 0.0795c0.0797 0.84109-0.14216 1.5879-0.66816 2.2409-0.1471-0.86052-0.0176-1.6372 0.66816-2.2409zm-16.458 116.16c-0.0624 6e-3 -0.47555-0.19535-0.41417-0.40075 0.16052-0.53892 1.1031 0.33024 0.41417 0.40075zm3.1411-116.21c0.25541 0.0795-0.0769 0.79288-0.46849 0.67237-0.47308-0.14786 0.26564-0.73425 0.46849-0.67237zm-4.2496 77.395c-0.0177-5e-3 -0.14852 0.0982-0.15911 0.0864-0.77858-0.92492 1.4083 0.30002 0.15911-0.0864zm-9.2742 33.833c-0.88124-0.52847-0.0445-1.5117 0.37112-1.2451 0.45685 0.29357 0.34467 1.6732-0.37112 1.2451zm13.98-26.802c-2.3153 1.3408-2.3495-2.1124-3.738-4.0123 0.76412-0.43422 0.94862 0.94183 1.3169 0.95082 0.53975 0.0137 0.85267-0.88786 1.5928-0.86736 2.0429 0.0612 1.681 3.4349 0.82832 3.9288zm-2.7799 16.948c-0.96097-0.0191-1.7935-1.2836-2.1964-2.2966-0.35807 0.62775-1.3645 1.054-1.832 1.648 0.0275-0.72201 1.119-1.5735 1.718-1.9621-0.13018-0.39897-0.17816-0.72417-0.1203-0.86268 0.25506-0.61553 1.5723-0.86196 2.0877-0.30327 1.2273 1.3228-0.82903 2.5625 0.3429 3.7766zm21.385 21.302c-1.5949-2.4625 3.0522-3.5428 3.1302-0.66158 0.0226 0.85836-1.9396 2.4988-3.1302 0.66158zm-32.41-4.8688c-1.2947 0.14353-0.87948-1.253 0 0zm26.505-53.646c-0.76835-0.26872-0.43251-1.2976 0.28539-1.4073 0.73484-0.11188 1.034 1.8675-0.28539 1.4073zm-2.1467-4.8789c-0.48048-0.14857-0.59196-0.91556-0.19155-1.1476 1.0079-0.58244 1.2337 1.4696 0.19155 1.1476zm-4.3159 4.6451c0.31291-0.28672 0.95179 0.54287 0.33973 0.64863-0.45438 0.0788-0.39159-0.60185-0.33973-0.64863zm6.5906 2.0405c-0.49247-0.29283-0.0215-1.4002 0.62583-0.75763-0.97014-0.58136 0.91511 1.6775-0.62583 0.75763zm-1.1688 47.353c-0.55315-0.13022-1.6693-1.5998-2.4627-1.5778 0.12453-3e-3 -0.63182 0.58243-0.79622 0.43349-0.76059-0.68928 0.0808-0.47127-0.0208-0.82238-0.0833-0.28708-0.28046-0.73785-0.50342-1.1627-0.16792 0.8731-0.80116 1.6372-1.5402 2.3524 0.0395-0.0377-0.60608 0.8965-0.22225 0.7472-1.9142 0.74432-4.7886-2.1348-3.1754-4.1098 1.0753-1.317 2.0715-0.46192 3.3867-0.97671-0.0907-0.18887-0.14817-0.40509-0.14393-0.65799 1e-3 -0.0551 0.71155-0.99542 0.60254-1.58-0.14146-0.76805-0.69427-0.77598-0.59478-1.1354 0.23953-0.86627 1.4732-1.0195 2.376-1.712 0.67415-0.51696 1.0075-1.4847 1.5713-1.6898 0.82938-0.30145 1.3402 0.53424 1.9512 0.60474 0.1972 0.0237 0.49248-0.57236 0.71049-0.59502 0.62724-0.0655 2.3315 0.8231 3.3302 1.566 0.0374-0.0122 0.0783-0.024 0.12382-0.0339 0.35948-0.0782 0.3743 0.12986 0.26423 0.34716 0.12912 0.11547 0.23072 0.22268 0.29387 0.31477 0.0501 0.0728 0.0893 0.17268 0.12559 0.28636 0.20602 0.0306 0.39864 0.11008 0.5588 0.25255 0.59125 0.52595 0.4318 1.0965-0.0138 1.5131 0.0109 0.0227 0.0194 0.0456 0.0314 0.0683 0.25258 0.48855 0.75988 2.7841 0.72319 2.9424-0.0557 0.24391-0.76482 0.65546-0.94192 0.93103-0.35877 0.5522-0.22401 1.2501-0.44626 1.494-0.53869 0.5925-0.28046-0.4684-1.0506-0.0533-0.36231 0.19463-0.45826 1.2904-0.52952 1.3314-0.85937 0.49141-1.3737-0.65007-1.6658 1.1156-0.30727-1.5516-1.4136-0.0698-1.9417-0.19391zm-2.2567 6.2348c-0.46743-0.15433-1.0555-1.4987-1.0195-1.947 0.46885 0.15326 1.0555 1.4984 1.0195 1.947zm0.68051 1.2983c-0.29633-1.73-1.2612-3.3564-2.0616-4.7166-0.35913 1.2717 0.66145 3.8349 2.0616 4.7166zm-0.25718-3.614c-0.74612-0.4504 0.42898-1.2375 0.78458-0.84433 0.3997 0.43926-0.11289 1.2494-0.78458 0.84433zm2.262 3.1471c0.40322 0.27413 0.23353 0.97169-0.3803 0.83318-0.84667-0.18995-4e-3 -1.094 0.3803-0.83318zm-2.9605-66.167c-0.45614-0.41046-0.69814-1.5253 0.27588-1.8185 1.8344-0.55329 1.3991 3.3226-0.27588 1.8185zm10.922-11.164c-1.0954-0.39967 0.20814-1.5656 0.6992-1.0066 0.37395 0.42272-0.0642 1.2383-0.6992 1.0066zm-11.581 7.5608c-0.16122 0.1403-0.14288-0.0443-0.24483-0.0759-1.1723-0.36335 0.9973-0.58422 0.24483 0.0759zm-0.2667-0.89758c-0.94615-0.11476-0.48331 1.0534-0.45614 1.0818 0.98636 0.99722 1.379-0.97169 0.45614-1.0818zm3.9913 34.948c0.75319-1.2462 1.8027 1.0048 0.51012 0.97313-0.40076-0.0102-0.71155-0.64036-0.51012-0.97313zm0.29986-28.319c-0.71472 0.2914 0.26035-0.75726 0.22296-0.74683 0.39934-0.11009 0.56797 0.42486-0.22296 0.74683zm-1.179-1.8606c0.0138-0.01-0.44027 1.2145-0.11536 1.7315 2.2045 3.5133 2.7425-3.5723 0.11536-1.7315zm5.2754 4.2177c-0.84243 0.0299-0.28646-1.4829 0.2981-0.9965 0.34643 0.28816 0.0713 0.98247-0.2981 0.9965zm-3.4643 24.619c-0.92674-0.28132-0.18238-1.2875 0.29704-0.99578 0.49424 0.29967 0.0596 1.1026-0.29704 0.99578zm6.6717-22.404c1.2118-0.32592 0.89147 0.74683 0 0zm0.13652-0.90837c-0.71508 0.3817-0.47449 1.1685-0.0409 1.4822 1.6168 1.1721 1.826-2.4351 0.0409-1.4822zm-16.275 4.068c-0.39722-0.1216 0.0614-0.66086 0.30763-0.58423 0.25047 0.0785 0.1658 0.73065-0.30763 0.58423zm0.54011-0.91915c-0.51647-0.31119-1.7911 0.93965-0.52846 1.3307 0.88159 0.27376 1.1469-0.95946 0.52846-1.3307zm-2.0899 33.881c0.23001 0.0702 0.1778 0.52882 0.096 0.57344-0.30727 0.16728-0.59055-0.72706-0.096-0.57344zm10.403-61.352c0.3496-0.42593 0.73519 0.56949 0.34008 0.64935-0.49318 0.10075-0.31291-0.68279-0.34008-0.64935zm1.4556 3.1705c0.33691 0.10469 0.3168 0.91377-0.2226 0.74649-0.71367-0.22089-0.11571-0.85116 0.2226-0.74649zm3.0812 21.889c-0.59267-0.5889-0.74789-1.9157 0.50729-2.1534 2.2662-0.42847 1.3832 4.0299-0.50729 2.1534zm-3.224-30.362c0.52529-0.3191 2.7005-0.98248 3.1828 1.394 0.0945 0.45617-0.4512 1.3843-0.34713 2.0668 0.15134 0.99507 1.0365 3.4867-1.5265 3.3349-0.11607-7e-3 -0.88371-0.53854-0.9017-0.55221-1.4549-1.1256-0.28681-1.8286-0.46849-2.4553-0.28857-0.98571-2.8328-2.8391-1.0742-4.0033 0.24342-0.16153 0.76094 0.44285 1.1352 0.21514zm-7.1656 12.872c-0.0727 2e-3 -0.57221-0.3173-0.49918-0.56301 0.2547-0.85439 1.5363 0.51732 0.49918 0.56301zm-1.481 23.33c0.31856 0.0975 0.16192 0.86482-0.22155 0.74575-0.69673-0.21549-0.115-0.84972 0.22155-0.74575zm1.5557-5.2272c-0.76376 0.0288-1.1977-1.0469-1.9625-1.0166 0.39688-0.57091 1.4185 0.59574 1.9625 1.0166zm1.3014 9.5099c-0.73131-1.0303-0.58914-2.9942 0.46532-3.7989 0.35701-0.27305 1.5977-0.13669 2.1639-0.55293 0.57785-0.42451 0.81845-1.6056 1.676-0.70403 0.67628 0.71194-0.5849 0.29932-0.37041 1.2444 0.12946 0.5738 0.7881 0.45544 0.82726 0.80008 0.29528 2.574-2.5876 6.0675-4.7622 3.0114zm7.5269 15.165c-0.26882-0.39787-0.012-1.0915 0.78422-0.84468 1.009 0.31226-0.39899 1.4167-0.78422 0.84468zm4.6874 12.462c-0.38312-0.7882 0.67557-1.7394 1.421-1.1904 1.0502 0.77237-0.82725 2.411-1.421 1.1904zm-16.289-17.821c0.0243 7e-3 0.37712 0.0744 0.32843 0.23707-0.3048 1.0242-1.3582-0.55688-0.32843-0.23707zm0.23354-0.33565c-0.91511-0.36839-1.5864 0.86196-0.93381 1.3426 0.34361 0.25075 2.1893-0.83786 0.93381-1.3426zm-1.735 41.195c-0.0547-0.42593 0.41346-0.41155 0.72108-0.18346 0.49213 0.36406-0.63888 0.83713-0.72108 0.18346zm-0.53269-1.7955c0.13723-0.30506 0.64064-0.209 0.72178-0.18454 0.68298 0.21116-1.0393 0.89541-0.72178 0.18454zm0.79622-0.43386c-0.71085-0.39931-1.3462 0.32199-0.94368 0.93175 0.42933 0.65115 1.8902-0.39716 0.94368-0.93175zm8.975-47.303c0.33655 0.4137-0.10936 0.98965-0.29669 0.9954-0.14746 5e-3 -0.25682-0.0348-0.33372-0.1036-0.28046 0.28204-1.0647 0.47056-0.86184-0.21045 0.0886-0.29715 0.62618-0.20721 0.70944-0.18707 0-0.45472 0.38452-0.98355 0.78281-0.49428zm-167.8 109.06h-0.64065c-0.25787-0.30255-0.35912-0.66158 0.24836-0.26504 0.0173 0.0108 0.30304 0.11146 0.39229 0.26504zm171.37-301.59h-1.1112c0.98848-0.76806 3.1916-2.4207 3.3239-2.338 0.78352 0.49429-1.0647 1.221-1.0185 1.1807-0.32385 0.28672-0.74471 0.69072-1.1942 1.1573zm-32.272 223.51c0.30939 0.13166 0.62301 0.27988 0.91969 0.42307-0.29633 0.24102-0.60572 0.48709-0.91969 0.73712zm0-96.492c0.29316 0.0288 0.5334 0.0597 0.70697 0.20578 0.47554 0.40005 0.73342 1.1084 0.99906 1.6577-0.0109 0.49106 0.0589 1.1034-0.39793 1.2016-1.0883 0.2342-0.84631-1.157-1.3081-1.871zm0-123.75c0.52317 0.17448 1.0396 0.3083 1.083 0.90836 0.0205 0.26801-0.61313 0.79073-1.083 1.1983zm8.0282 6.3557c0.45756-0.076981 0.93734 0.80656 0.2346 0.7159-0.31856-0.041372-0.26176-0.5148-0.31997-0.64791 0.0272-0.021945 0.0561-0.045328 0.0854-0.067998zm7.1878 7.0845c-0.73907 0.73496 1.2866-1.2803 0 0zm17.112 84.981c0.42404-0.6623-0.53234 0.83209 0 0zm-5.649 10.808c0.0204 2e-3 0.0406 7e-3 0.061 0.01 0.0688 0.41587 0.22296 0.85547 0.48613 1.312-0.061-0.10469 1.0481 0.59395 1.1141 1.0828 0.17357-0.11152 0.35348-0.22376 0.52106-0.30506 0.61101-0.29643 2.2542 0.18959 2.5037 0.0961 6e-3 -2e-3 0.0247-0.0173 0.049-0.037 0.41945 0.24032 0.89005 0.47199 1.3829 0.69466-0.019 0.0183-0.0399 0.0374-0.0416 0.0443-0.38206 1.7138 1.2365 1.2627 2.1272 0.81554 0.18097 0.0695 0.35912 0.1385 0.53622 0.20542-0.22719 0.19139-0.56586 0.4684-0.75177 1.067-0.45191 1.4527 0.35454 2.2502-0.24236 3.051-0.15734 0.21188-0.3048 0.34678-0.43885 0.43672-0.46109-0.20434-0.93698-0.41299-1.2824-0.65941-2.7492-1.9595-5.0218-4.399-7.5212-5.8416-0.13158-0.0762-0.47977-0.24643-0.92357-0.46335 0.18627-0.18456 0.29281-0.46192 0.0494-0.68281-0.16051-0.14605-0.41487 0.12376-0.47801 0.26045-0.0307 0.0662-0.0519 0.12303-0.0702 0.17736-1.2679-0.62524-2.8928-1.457-2.9164-1.7473-0.0928-1.1231 4.1864 0.27413 5.8356 0.48386zm13.075 11.181c8e-3 0.0126-0.44238 0.21945-0.58879 0.3101 7e-3 0.0953 5e-3 0.28277-6e-3 0.50401-0.22754-0.12015-0.44944-0.23168-0.66393-0.34176 0.55527-0.49681 0.60254-1.4314 1.2584-0.47235zm-35.619 5.0124c-0.0829 0.0173 1.9438 0.19499 1.9417 0.19391 0.30198 0.0932 0.37606 0.3486 0.47167 0.56229-0.79516-0.2716-1.741-0.67885-2.4557-0.74432 0.0141-4e-3 0.0279-0.01 0.0423-0.012zm3.907 0.37235c0.0953 0.17267 0.12029 0.33204-0.0494 0.50436-0.13899 0.14138-0.39476 0.15002-0.71826 0.0867 0.16475-0.12988 0.46708-0.36083 0.76765-0.59107zm4.3579-7.7925c-0.47978 0.16153-0.95356 0.38962-1.4058 0.44321-1.0326-1.2008 0.75001-0.99974 1.4058-0.44321zm6.3722 14.672c-0.22014-0.92167 1.2986-0.4522 0 0zm1.5275-0.20685c0.0547 1.7369-1.4637 0.85583 0 0zm3.006 143.08c1.313 0.395 4.2256 1.453 3.1835-0.57716-0.31997-0.62336-4.3131-1.6314-5.1597-1.9067-1.2054-0.39277-3.1694-0.241-3.1344-0.23301-0.60995-0.13027-0.64311-0.59834-2.122-0.71624-0.66675-0.0529-1.3113 0.38953-2.0271 0.30651-0.99659-0.11597-2.267-0.37524-3.2304-0.59586-1.2488-0.28485-2.1375-0.51037-3.1835-0.74421-2.2006-0.49298-4.2697-1.3416-6.5772-2.215 0.393-0.49282 0.74613-0.93972 0.52705-1.3491-0.10407-0.19462-0.81915-0.10116-0.81739-0.38853 4e-3 -0.76081 1.0442-0.87311 0.59373-1.9922-0.0515-0.12703-0.77752-0.58571-1.3589-1.0956v-1.4026c0.28046-0.0124 0.53446-0.0129 0.74083 6e-3 0.68192 0.0625 2.9471 1.0555 4.6281 1.5628 1.9392 0.58599 3.4798 0.66877 5.3545 1.3126 0.19332 0.0662 0.42086 0.14939 0.66886 0.23959-6e-3 0.0569-0.0148 0.11372-6e-3 0.17204-2e-3 -0.0642 0.0138-0.11442 0.0321-0.16306 0.22049 0.0807 0.45685 0.16513 0.70591 0.25114-0.27905 0.13381-0.61948 0.18452-0.71296 8e-3 0.14146 0.51992 0.68368 0.41621 1.0347 0.10115 1.4086 0.46837 3.0723 0.87743 3.968 0.32085 1.5607-0.96839 0.7493-3.6116 1.1599-4.8919 0.14358-0.44562 0.60925-0.25855 0.62794-0.61395 0.0825-1.5445-0.74894-3.0043 0.48437-4.1296 0.0483-0.0446 0.73907 0.30902 0.77152 0.26053 0.49707-0.74325 0.4117-1.8732 1.1003-2.6165 0.0833 0.0708 0.17321 0.13886 0.27234 0.20293 0.7486 0.48497 2.6356 0.0935 2.8226-0.0774 0.14957-0.13703 0.28892-0.60397 0.37182-1.1623 0.514 0.11907 1.0827 0.41192 1.6566 0.30508 0.30691-0.0558 0.65793-0.72814 1.3515-0.86449 0.57432-0.11223 1.6577 0.15002 2.364-0.0273 1.0915-0.27556 2.0331-0.9267 2.8938-1.004 0.70873-0.0636 1.5434 0.32773 2.2673 0.26981 2.4702-0.19823 5.9069-1.4689 6.8499-2.6409 0.70556-0.87526 0.80469-3.0953 0.43639-3.9806-0.10654-0.25866-2.7093-3.4216-2.5545-3.3392-1.2799-0.67776-2.232 0.3763-3.569 0.4461 0.12382-7e-3 -0.4826-0.38998-0.7232-0.40977-0.86007-0.0698-1.7223-0.0647-2.582-0.0195-0.1785-0.30183-0.62265-0.58711-0.7814-0.0551-0.0109 0.0371-4e-3 0.0719 8e-3 0.1054-0.94898 0.0749-1.8927 0.18779-2.8247 0.29752-0.0275-0.0237-0.0554-0.0464-0.0804-0.0759-0.54857-0.65258-0.40181-1.7786-0.94509-2.1963-0.67028 0.7454-0.10689 1.475 0.40746 2.3441-0.73413 0.0838-1.4598 0.15865-2.1745 0.20326-1.5815 0.0989-4.7773 0.71193-6.126 0.40795-1.3476-0.30219-2.9644-1.6887-3.8587-1.9628-0.84032-0.25793-1.488-0.30147-2.7478-0.76266-1.5642-0.57344-3.3073-0.45293-4.7544-0.69792 0.85196-0.41622-0.35348-0.77992-0.2106-0.0384-0.18239-0.0363-0.36195-0.0766-0.5327-0.12915-0.29668-0.0917-0.5775-0.27016-0.84349-0.46119 1.1028-0.94866 2.0182-1.8905 2.2197-2.0301 0.82303-0.56984 3.5235-1.1462 2.0461-1.9488-0.7807-0.42558-2.069 1.0803-3.4255 1.6574-0.80469 0.34248-2.5033 1.0163-3.7888 1.7959-0.20672 0.0259-0.40745 0.0332-0.59725-2.8e-4 -0.76694-0.13419-1.5007-0.8152-2.2662-0.92959-0.36619-0.0551-0.74719-0.0342-1.1398 0.0233v-3.4719c0.76835 0.71951 1.82 0.99866 1.3727-1.198-0.15346-0.75008-0.75635-1.7347-1.3727-2.6373v-7.2176c0.0547-0.0482 0.11007-0.0949 0.1644-0.14534 0.34007-0.31514 1.0742-1.6775 1.5459-1.9858 0.1143 0.0546 0.22084 0.10397 0.31538 0.14534 0.019 0.60329-0.62935 2.3779-0.71755 2.1016 0.15981 1.3192 2.5439 3.377 3.6326 3.3939 0.0981 9.7e-4 0.61947-0.1806 1.2185-0.40077 0.0138 0.0183 0.0268 0.0384 0.0413 0.0543 0.0106 0.0108 2.6561 1.2415 2.6963 1.2426 0.39122 0.0137 0.46284-0.71842 0.78492-0.84471 0.7927-0.31045 0.90206 0.55583 1.3787 0.29105-0.0381 0.0216-0.0804-0.55689 0.0635-0.65978 0.76694-0.54825 0.36618-0.95909 0.92252-1.7534 0.12982-0.18671 0.72037-0.22376 0.79586-0.4335 0.20885-0.58135-0.0653-3.3877-0.34255-3.7766-0.22013-0.30759-2.1985-1.167-3.1824-1.4523 0.0734-0.0676 0.15769-0.13886 0.25646-0.21334-0.63076 0.0223-2.2666 0.31766-2.993-0.24642-0.10372-0.081-0.31539-0.81482-0.4251-0.81123-0.23742 7e-3 -0.42051 0.18347-0.58244 0.39643-0.22225-0.66337-0.53057-1.244-0.76658-1.5566-0.59478-0.7875-1.5254-0.82418-1.6888-1.3958-0.28928-1.012 0.7105-2.1858 1.3861-2.4873 0.4191 0.14032 0.91193-0.1187 1.2633 0.38097 0.45297 0.64504-0.11042 4.3152 1.2552 4.7386 0.15204 0.0468 0.46707 0.0619 0.47731-0.26008 0.049-1.498 0.17709 0.32124 0.0307-1.8941-0.0187-0.28312-0.42228-0.52091-0.51012-0.97348-0.1009-0.52164 0.10372-1.2044 0.27799-1.839 0.42016 0.34501 0.4385 1.0872 1.2707 1.3685 1.0216 0.34537 2.9894-0.20757 3.2808-0.87383 0.54575-1.2534-1.2834-2.2833-1.9766-3.8051-0.46637-1.0274 0.2854-1.6976 0.43674-2.6596 0.0459-0.28636-0.11818-0.86988-0.1905-1.3879 1.4605 0.30901 3.3267-1.6653 2.7432-3.1255 0.45897-0.19354 0.89676-0.35004 1.0202-0.55545 0.94262-1.5743-0.33938-2.3707-1.639-2.865-0.84949-0.32233-2.4543-1.5023-2.7478-2.0837-1.2178-2.411 1.9548-3.4158 0.67734-5.3851-0.36971-0.57163-0.51718-2.1581-0.25753-2.606 0.25047 0.29177 0.46743 0.55654 0.55774 0.78678 0.20214 0.51409-0.78316 0.78317 0.27764 1.3095 0.88935 0.44249 1.198-0.71481 1.5907-0.86663 0.68404-0.26513 1.487 0.47775 3.1514 0.16009-0.26741-0.42666-0.27341-0.75008-0.17004-1.031 0.94403 0.14139 2.8801 0.87061 3.7253 0.61986 0.66534-0.19643 0.56868-0.41443 0.13723-0.61877 0.37077-0.51947-0.58314-0.45904-0.68791-0.24679-1.0936-0.31874-2.6585-0.55582-2.6303-0.53818-3e-3 -2e-3 -5e-3 -4e-3 -8e-3 -6e-3 0.16757-0.20506 0.31997-0.41694 0.37535-0.66841 0.36231-1.6466-1.2456-3.5989-2.5276-4.0457-0.52564-0.1831-1.6192 0.0129-2.486-0.16512-0.56233-0.57488-1.0262-1.1656-1.3769-1.7426 0.0441-0.11009 0.11571-0.2137 0.25364-0.29716 0.0127-8e-3 0.29457 0.61733 0.33973 0.6497 1.6993 1.2016 4.5088-0.95225 3.1492-2.9672-0.87559-1.2969-3.4152 0.15252-2.928-0.90765 0.0589-0.1288 0.0935-0.25111 0.11606-0.36982 0.36231-0.0979 0.78846-0.15973 1.2876-0.177 0.66887-0.0237 3.2801-0.45292 3.3771-1.8322 0.18627-2.6402-3.2745-0.24822-5.2084-1.0983-0.0596-0.0263-0.121-0.0766-0.18133-0.11188 0.31186-0.46191 0.8061-0.96485 1.0393-1.4419 0.16298-0.33312-0.0977-0.80152 0.0522-1.0717 0.30057-0.53746 0.96732-0.61875 1.0301-0.76949 0.0462-0.11188 0.0656-0.22809 0.0755-0.34608 0.7553 0.74611 1.8369 1.1177 3.0385 0.67705 1.8041-0.66158 1.6619-2.288 2.1731-3.269 0.54116-1.0397 1.5794-1.3688 0.61031-2.4412 0.0674-0.8062-1.2944-1.643-1.3402-2.3171-0.0459-0.68389 0.86255-0.56301 1.0181-1.18 0.1076-0.42919-0.61454-1.2462-0.54257-2.2071 0.037-0.49358 0.49106-0.78929 0.45614-1.0828-0.10336-0.83282-1.3959-1.3221-0.62865-2.3693 0.32667-0.44429 2.4529 0.26981 1.8994-1.4516-0.50695-1.5682-2.5382-0.0579-2.2602-0.0198-1.2181-0.16585-2.8028-2.8294-2.6137-4.2073 0.0497-0.36047 0.84561-0.87383 0.77329-1.2552-0.15276-0.80188-1.3081-0.95189-1.2527-1.6124 0.0441-0.51336 1.6972-0.33061 1.1038-1.0177-2.1131 0.47846-1.753-3.9781 0.7186-3.3122-1.7519-1.7851 1.645-1.9725 1.6207-2.7593-0.072-2.5157-2.069-0.55509-2.2705-0.43169-1.7572 1.0735-3.2547-1.172-2.2288-1.9142 0.83996-0.60688 0.94403 0.55041 1.5487 0.61625 0.94756 0.10253 1.923-0.35003 3.0822-0.86303 0.33161 0.37845 0.83397 0.76806 1.3935 1.1357-9e-3 6e-3 -0.0177 0.0102-0.0268 0.0158-0.72072 0.46839-0.58244 1.3505 0.1263 1.8074 0.97578 0.62776 1.4414-0.16225 1.4108-0.93714 0.95709 0.51012 1.7872 0.87454 1.9371 0.93174 0.63782 0.24572 1.6633 0.48782 2.6575 0.79973-0.06 0.25147-0.0392 0.51157 0.0868 0.68423 0.49425 0.6767 1.1176 0.37487 1.3854-0.12663 0.9779 0.4684 1.6221 1.0807 1.2845 1.9513-0.11042 0.28527-1.3053 0.48529-1.3578 0.53025-1.5381 1.316 0.82726 4.1742 2.5802 2.9744 0.82938-0.56696 0.33161-2.5956 0.64523-3.0625 0.30233-0.44824 1.627 0.51481 1.1882-0.85547-0.52458-1.6383-4.2358-2.7496-5.4141-3.3079-0.75318-0.35687-1.8852-1.3447-3.0861-2.2466-0.0557-0.27161-0.19791-0.47127-0.37959-0.27952-0.5394-0.38962-1.0851-0.74577-1.6115-1.008l3.7966-0.71482c0.26953-0.0471 2.6501 0.29462 2.2497-0.39106-0.17498-0.30146-1.4182-0.037-1.4549-0.0421-0.27763-0.0403-4.3-1.2983-5.6667-0.66698-0.67768 0.31263-1.2203 0.93932-1.803 1.4861-0.14076 0.0533-0.24659 0.12483-0.29175 0.22196-8e-3 0.0173-0.0109 0.0349-0.0169 0.0522-0.48825 0.41084-1.0216 0.72561-1.6958 0.73028-1.856 0.0129-1.2721-2.0232-1.7745-2.9956-0.56233-1.0933-2.8949-1.6207-2.4109-2.6488 0.53622-1.1357 1.7057-0.12124 2.0175-0.0564 0.2279 0.0471 2.3474-0.39103 2.5037 0.0956 0.0325 0.0982-1.137 1.0915-1.1776 1.267-0.72707 3.201 4.3254 3.3856 4.7872 0.93821 0.055-0.29283 0.0388-0.54825-0.0243-0.77561 0.99095 0.10433 2.1756-0.66338 1.4492-1.7275-0.0825-0.12088-0.18133-0.22089-0.28893-0.30579 0.31997-0.34283 0.5641-0.83066 0.0504-1.1746-0.39052-0.25973-0.88265 0.3209-0.97261 0.85765-0.65758-0.0111-1.2915 0.36802-1.349 1.0303-0.39793-0.29283-0.75494-0.53351-0.79833-0.81411-0.25154-1.6275 1.3159-0.88317 1.9844-1.2897 1.3021-0.79181 0.24271-2.7416 0.61948-4.1245 0.38311 0.48782 0.768 0.90188 1.1134 1.0372 0.37712 0.14786 1.572-0.90908 1.9082-1.0397 1.5085-0.58531 4.3067-1.6304 5.4645-0.89182 0.61383 0.39248 0.92321 1.694 1.4228 1.9369 0.41275 0.20038 1.264-0.25902 1.9318-0.21837 1.0961 0.068 1.9752 0.65402 2.8441 0.7454 0.49036 0.0518 1.0682-0.35112 1.6873-0.29356 0.71896 0.0676-0.4325 0.28025 0.90205 0.55077 2.3177 0.472-0.41663-0.91375-0.50976-0.97311-0.29704-0.19283-0.40993-0.78929-0.75459-1.0487-1.2347-0.93066-2.8635-1.4523-3.3652-2.13-0.36865-0.4997-1.3469-1.0803-2.1227-0.92888-0.77612 0.15145-1.2545 1.1573-1.983 1.2893-0.55421 0.0996-1.1733-0.61841-1.8792-0.85403-0.95602-0.3173-2.0955-0.38962-3.0882-0.81989-1.1024-0.47881-2.0736-1.2159-2.9369-1.7153-0.52776-0.68389-1.2534-1.5214-1.3042-1.5476-0.70237-0.36154-1.4908 0.24499-2.2073 0.52308-0.0995-0.0785-0.18451-0.17161-0.24907-0.28636-0.21766-0.38457 0.3683-0.57271-0.0219-0.82167-0.2854-0.18238-1.0428 0.22485-1.3691 0.12016-0.67134-0.21692-0.93839-1.0843-1.4862-1.2764-0.31927-0.11153-0.64206-0.0902-0.96379-0.0132-0.57362-0.66481-1.3272-0.73964-2.0983-1.389-0.49813-0.42055-0.65829-1.7009-2.1442-1.7513-0.36089 0.40651 0.3616 1.5768 0.93486 2.6341-0.94438-1.1188-2.1908-2.7988-2.7661-3.1546-0.61489-0.38097-1.3903-0.43421-2.1854-0.42882-0.0113-0.0132-0.0279-0.0262-0.0381-0.0402-0.44027-0.60293 3e-3 -0.50796-0.0473-1.1717-0.0268-0.35939-0.0166-0.64036 0.024-0.85764 0.60007 0.63244 1.3589 0.52127 2.1001 0.21657 0.46109 0.36586 0.93381 0.79252 1.348 1.1526 0.31186 0.27089 1.3197 1.879 2.1692 1.8883 0.69356 8e-3 0.98249-1.0501 0.8696-1.3573-0.36936-1.0073-2.0528-1.258-3.6876-2.0146 0.20073-0.10325 0.39617-0.20721 0.58103-0.29895 0.11112-0.0554 0.78563 0.19499 0.9659-0.10935 0.39229-0.65942-0.13688-2.0783-0.79798-2.6931-1.1243-1.0483-2.7891-0.6648-3.6491 0.29104-0.64559-0.35651-1.2799-0.36263-1.512-1.2131-0.0744-0.27197-0.0639-0.74323-5e-3 -1.2174 0.39194-0.59323 0.82938-1.2368 1.2224-1.793 0.5782-0.10146 1.3187-0.0165 2.1375 0.0612-0.28117 0.25722-0.4445 0.77885-0.16334 1.0393 0.8255 0.7677 1.4316-0.42271 0.90946-0.97708 0.36195 0.0237 0.73378 0.0368 1.1106 0.0233 2.1893-0.0777 2.8621-0.66697 4.8225-0.35291 0.97261 0.15577 2.8818 2.0549 4.3875 2.9676 1.8563 1.125 2.8303 1.353 3.8086 2.1114 1.0918 0.8465 2.2507 2.1657 3.3902 3.073-0.079 0.49358 0.13723 1.2674 0.70238 1.0282-0.48719-0.17844-0.47096-0.50473-0.4131-0.79829 0.41839 0.30543 0.8329 0.54466 1.2393 0.66949 0.95885 0.29536 0.12595-0.0575 0.86678 0.62309 0.26458 0.24319 0.6798 0.51049 1.1712 0.79145-0.34219 0.0392-0.58102 0.26046-0.54998 0.79037 0.0381 0.63531 3.1771 1.852 2.5986 0.28923 0.91087 0.46407 1.8373 0.94038 2.5668 1.4037 0.27058 0.17197 0.55386 0.3691 0.84208 0.57633-0.10724 0.0327-0.18309 0.0752-0.21237 0.20505-0.41275 1.8401 2.6663 2.8963 4.1963 3.0158 0.53164 0.44968 1.0611 0.89469 1.5801 1.3203-0.0473 0.1716-0.10407 0.24426-0.17004 0.11835 0.2667 0.50977 0.10442 0.40112 0.65793 0.47523 0.0942 0.0129 0.17533 0.0115 0.24483-2e-3 1.0975 0.86914 2.1244 1.5991 2.9856 2.0034 0.98954 0.46372 1.3744 0.29895 1.4118 0.2896 0.9853-0.9724-3.2385-2.8017-4.0146-3.4802-0.012-0.0108-0.0264-0.0186-0.0388-0.0292-0.10478-0.79072-0.31468-1.5771 0.48154-1.0325 1.1247 0.76806-0.0991-1.0926 0.85937-1.0936 0.48507 0 0.0691 1.5289 0.60572 1.5469 1.2453 0.0435-0.49001-2.1927-0.38488-2.293 0.55597-0.53278 2.4691 1.8074 2.994 0.2457 0.018-0.0564-1.1109-1.5912-1.0834-1.2864-0.0346-0.39069 0.63853-0.40148 1.0174-1.1807 0.27799-0.57019 0.60219-2.1952 0.67804-1.829-0.31679-1.5135-2.232-1.2253-1.2972-3.2557-1.1934 1.3854-1.7413-1.1785-2.6956-1.2436-0.69956-0.0471-0.9398 1.2206-1.676 0.70474-0.92463-0.64754 0.62301-2.2704-0.79692-2.6938-0.89287-0.26549-2.286 1.6106-0.91121 2.165 1.0132 0.40904 0.48119 0.92492-0.40182 1.2264-0.4392-0.35363-0.91263-0.67812-1.2996-0.86231-1.01-0.48099-2.104-0.66805-3.1962-0.9224 0.26988-0.78208-0.14851-2.284-0.84666-2.9866-1.6566-1.6696-4.0118-1.2278-4.9869 0.22377-1.3035-0.7695-2.5252-1.4771-3.6999-1.934-0.97014-0.37665-4.39-2.2938-4.5321-3.1813-0.0776-0.48313 1.0978-2.9301 1.7378-3.3766 0.28186-0.19498 0.97931-0.0126 1.1102-0.12051 0.19015-0.15577 0.10548-0.67166 0.24165-0.74395 0.11254-0.0605 0.31291 0.41082 0.52987 0.34391 0.83785-0.2583 1.4323-1.989 2.558-1.943 0.57115 0.02306 2.0793 1.1404 2.5552 1.3584 2.3569 1.0767 4.4362 1.3195 6.5102 2.3628 1.409 0.70835 2.3682 0.47523 3.5687 0.87492 0.95143 0.31621 1.9177 0.71626 2.8755 1.1364-0.86924-0.24463-1.7932-0.27232-0.92604 0.2655 0.64876 0.40147 6.0632 2.7535 5.7806 1.8585 0.32596 0.12339 0.64382 0.23527 0.95038 0.3306 2.7742 0.8634 6.077 2.6359 7.7632 3.1169 0.52564 0.14965 0.0437 0.30902 1.2061 0.24174 3.8185-0.22232-3.5144-2.4797-4.2425-2.7532-1.3854-0.52055-2.7383-1.4235-4.0996-1.8797-1.3843-0.46408-3.4403-0.63855-4.3409-1.1354-0.35842-0.19859 0.2547-0.39574-0.43321-0.64143-0.76483-0.27341-1.8009-0.21298-2.7975-0.61481-1.203-0.48423-2.2906-1.4002-3.278-1.7671-0.93098-0.34571-2.3622-0.3878-3.3285-0.95836-0.34748-0.20542-0.74506-0.5317-1.1352-0.9026 0.50623-0.3335 0.77434-0.91304 0.19473-1.5128-0.57115-0.5907-1.2069-0.48817-1.6245-0.11619-0.23637-0.33385-0.39547-0.61841-0.42298-0.78965-0.0748-0.46659 0.51576-0.54394 0.28963-0.89253-0.29739-0.4594-2.3347-0.68209-1.5903-1.6933 0.81245-1.1023 2.6818 0.53171 4.0174 1.4653-0.01 0.2565 0.18873 0.61229 0.42298 0.59682 0.1083-0.0071 0.19826-0.07628 0.25894-0.16944 0.0769 0.03916 0.15134 0.07414 0.21943 0.0982 0.46884 0.16872 1.0216 0.40831 1.5871 0.6497-0.29633 1.0433-0.21484 2.2524 0.53481 3.2187 0.36442 0.46838 3.3115 2.2603 3.611 2.2042 0.44732-0.0824 0.83573-1.4631 1.1656-1.6775 0.23036-0.14966 1.0837 0.27952 1.6873-0.29284 0.11042-0.10576 0.054-0.6123 0.2226-0.7472 0.16863-0.13598 0.71579 0.11333 0.8061-0.02191 0.30162-0.45111 0.48436-1.0908 0.54574-1.7843 0.6918 0.57271 0.6089 1.5343 1.9435 2.043 1.5674 0.59754 2.5312 1.0051 3.919 1.5725-0.0483 1.0522 0.0617 2.3689 0.74684 3.2381-0.0469-0.0589 0.58666 0.024 0.6477 0.0655 0.67027 0.45364 1.7053 1.738 2.4737 1.9887 0.64735 0.21225 0.17004-0.49071 0.70979-0.59503 0.66816-0.12914 1.7265 0.80944 2.1978 0.68029-0.10795 0.0299-0.0942-0.5792-0.0956-0.5738 0.14817-0.49897 1.2824-0.45041 1.9318-0.53458 0.0959 0.0431 0.19261 0.087 0.29668 0.14066 0.51047 0.26333 1.0767 0.61912 1.6334 0.96664-0.17109 0.0629-0.45684 0.2421-0.28539 0.3986 0.10548 0.0972 0.5408-0.0348 0.61524-0.19391 0.52846 0.32666 1.0365 0.62812 1.4605 0.81016 1.5244 0.65473 1.9382 1.4329 3.3263 2.279 0.86572 0.52882 3.6597 1.6832 3.52 1.6843 0.53375-4e-3 2.268-1.4858 1.8337-2.3531-0.35843-0.71949-1.723-1.2131-3.0448-1.6038-9e-3 -4e-3 -0.0183-7e-3 -0.0279-0.0108-0.0109-3e-3 -0.0187-3e-3 -0.0296-6e-3 -0.93592-0.27449-1.8426-0.49898-2.346-0.71411-1.228-0.52487-3.5214-2.0549-5.2571-3.1064 0.31009-0.4943 0.84067-2.7888 0.83679-2.8988-6e-3 -0.18311-0.67486-0.81195-0.75388-1.0494-0.24624-0.72417-0.0688-1.0105-0.44733-1.6333-0.13546-0.22448-0.41381-1.0436-0.6798-1.298-0.10654-0.10325-0.81386 0.16512-1.0499-0.05365-0.15875-0.14534 0.0815-0.70258-0.0219-0.82239-0.54257-0.62596-0.9839 0.30003-1.6873 0.29283-0.25223-2e-3 -0.54997-0.63963-0.74295-0.63747-1.2594 0.0155-1.7805 1.1926-2.5566 0.97457-0.81669-0.22845-0.52529-1.5534-1.0943-1.6969-0.81316-0.20541-1.4309 0.79612-1.1772 1.267 0.31997 0.59142 1.6083-0.28133 1.7088 0.52847-0.0391-0.31874-1.3282 0.90332-1.7575 1.3163-0.16051-0.15397-0.32667-0.30291-0.50976-0.43961-0.19473-0.14534-0.3108 0.2565-0.48119 0.16764-0.31256-0.16441-3.321-3.1446-4.0012-3.4978-0.66993-0.34716-1.7427-0.17016-2.4123-0.48422-1.4482-0.67848-0.61171-1.2929-0.9144-1.7951-0.0762-0.12412-0.9652-0.25829-1.2545-0.75295-0.27764-0.47559 0.17356-0.77454-0.0956-1.0235-1.397-1.2908-5.4112-1.2714-5.545-2.6978-0.14781-1.5919 2.184-1.3145 2.9908-1.9621 0.1898-0.15146-0.2159-0.58351 8e-4 -0.6605 0.48153-0.17124 1.1398 0.28672 1.64 0.22304 0.0106-0.0014 0.0631-0.05036 0.13229-0.11476 0.87277 0.72166 2.2363 0.97132 3.0205 0.04137 0.36089-0.42738 0.54187-1.2357 0.28787-1.9725 0.23883-0.73389-0.3048-2.3308 0.0346-2.7251 0.37818-0.43746 0.32279 0.33888 0.77188 0.26082 0.50059-0.08814 0.71614-0.75079 1.9293-0.66985 1.4266 0.09605 2.2645 1.1721 4.0506 1.3678 0.67451 0.07411 2.1061-0.41659 2.0256-0.30723 1.5159-2.0977-2.9637-1.7833-4.1949-2.2416-0.86995-0.32414-1.6415-1.4386-2.3618-1.9534-3.1009-2.2161-6.2668-5.8175-3.6615-7.8414 2.365-1.8376 7.9611-3.1309 11.433-1.5886 0.45755 0.20326 0.87595 0.54106 1.3067 0.8544-0.16934 0.05001-0.3803 0.10936-0.3623 0.04712-0.12383 0.41551 0.48542 0.36119 0.74048 0.20829 0.26105 0.16728 0.52952 0.31622 0.82232 0.3968 0.9525 0.26334 1.7484-0.03562 2.7009 0.25182 1.313 0.395 4.2256 1.453 3.1835-0.57668-0.31997-0.6238-4.3131-1.6315-5.1597-1.9067-1.2054-0.39285-3.1694-0.24103-3.1344-0.23348-0.60996-0.12987-0.64312-0.59826-2.1223-0.71626-0.66639-0.05252-1.3109 0.38961-2.0267 0.30687-0.9966-0.1162-2.2673-0.37522-3.2304-0.5961-1.2488-0.28456-2.1375-0.51012-3.1835-0.74396-2.2006-0.49286-4.2697-1.3415-6.5772-2.2153 0.39299-0.4925 0.74612-0.9393 0.52705-1.3487-0.10372-0.19463-0.81915-0.10109-0.81739-0.38889 4e-3 -0.76087 1.0439-0.87275 0.59338-1.9919-0.0815-0.2029-1.8789-1.2476-2.0712-2.0006-0.0314-0.12339-2e-3 -0.27341 0.0508-0.45005 0.55068-0.05468 1.0442-0.07447 1.4023-0.04172 0.68227 0.0626 2.9474 1.0551 4.6284 1.5624 1.9389 0.58603 3.4798 0.66913 5.3545 1.3127 0.19332 0.06619 0.42086 0.1493 0.66887 0.23959-6e-3 0.05685-0.0145 0.11368-6e-3 0.17232-2e-3 -0.06403 0.0138-0.1144 0.0321-0.16297 0.22048 0.07987 0.45684 0.16512 0.7059 0.2511-0.27869 0.13383-0.61948 0.18455-0.71296 0.0083 0.14146 0.5202 0.68403 0.41623 1.0347 0.10145 1.4086 0.46803 3.0723 0.87742 3.968 0.32126 1.5607-0.9688 0.7493-3.6119 1.1599-4.8926 0.14359-0.44573 0.60925-0.25866 0.6276-0.61409 0.0829-1.5444-0.7486-3.0039 0.48471-4.1296 0.0483-0.04424 0.73907 0.30903 0.77153 0.26046 0.55139-0.82418 0.38276-2.1261 1.3529-2.846 0.28399-0.21153 0.57609 0.2011 1.0608 0.02842 0.64171-0.22952 0.98566-0.88102 1.7844-0.88354 0.6029-0.0021 1.3106 0.48638 2.0253 0.35327 0.30762-0.05612 0.65828-0.72813 1.3518-0.86484 0.57397-0.11188 1.6577 0.15038 2.364-0.02734 1.0911-0.27521 2.0331-0.92671 2.8938-1.0041 0.70873-0.06368 1.5434 0.32773 2.2673 0.27017 2.4698-0.19822 5.9069-1.4692 6.8499-2.6409 0.70556-0.87527 0.80469-3.0956 0.43639-3.981-0.10654-0.25866-2.7097-3.4212-2.5545-3.3392-1.2795-0.67741-2.2324 0.37629-3.5691 0.44609 0.12418-0.0072-0.4826-0.38997-0.72284-0.40939-3.0364-0.24715-6.0967 0.42378-8.9722 0.6033-1.5815 0.09929-4.7773 0.71194-6.1263 0.40831-1.348-0.30255-2.9644-1.689-3.8587-1.9631-0.84067-0.25758-1.488-0.30111-2.7478-0.7623-1.5642-0.57308-3.3076-0.45292-4.7544-0.69827 0.85196-0.41623-0.35348-0.77994-0.21061-0.03813-0.18274-0.03633-0.36195-0.07663-0.53269-0.12951-0.29704-0.09137-0.5775-0.27017-0.84314-0.4612 1.1024-0.9483 2.0179-1.8901 2.2197-2.0301 0.82303-0.56984 3.5232-1.1462 2.0458-1.9488-0.78069-0.42558-2.069 1.0807-3.4258 1.6574-0.80433 0.34248-2.503 1.0163-3.7888 1.7959-0.20638 0.0259-0.40711 0.03345-0.5969 0-0.76693-0.13418-1.5007-0.81519-2.2659-0.92995-1.0407-0.15577-2.1964 0.27881-3.4234 0.53027-0.0226-0.01475-0.0296-0.03419-0.0586-0.04713-0.0102 0.02231-0.0257 0.04316-0.0377 0.06511-0.59654 0.11692-1.2086 0.19067-1.8352 0.12088-0.24623-0.02734-0.49812-0.11296-0.75071-0.21549 0.17851-0.13958 0.34996-0.30183 0.51259-0.4889 1.1839-1.3645 0.69885-3.8666-0.20567-4.6846-0.0328-0.03094-0.23566 0.15973-0.30198 0.16764-0.0409-0.10432-1.3148-1.1998-1.257-1.1958-2.3386-0.19714-4.9932 3.6547-4.2608 5.634-0.91369 0.01475-1.7847 0.18995-2.6151 0.38421 0.74578-0.42738 1.3056-0.78389 1.361-0.92851-0.0737 0.19247-0.67204-1.5081-0.52105-1.3843-0.34819-0.28312-2.6451 0.09101-2.8974 0.32665-0.14499 0.13598 0.16369 0.81771 0.0335 1.2336-0.0744 0.2378-0.40887 0.69144-0.8509 1.194-0.17004-0.01044-0.33267-0.03237-0.48754-0.06584 0.6918-1.117 0.27411-2.8143 0.85831-3.995 0.0734-0.14714 0.77434 0.08598 0.9652-0.10936 0.23777-0.24031 0.0917-1.453 0.50906-2.1538 0.77011-1.2951 2.8815-3.7619 3.127-3.7896 0.53022-0.05757 0.21025 0.7105 0.99836 1.1249 0.22507 0.11908 2.2228 0.16692 2.6642 0.0083 0.34995-0.12519 0.3877-0.5371 0.71014-0.59466 0.17709-0.03237 1.0612 0.55113 1.4542 0.04246 0.56233-0.73065-0.37677-0.27593-0.52141-1.3847-0.0123-0.09245 0.47343-0.27917 0.46602-0.67129-4e-3 -0.26801-0.43533-0.54466-0.4251-0.81123 4e-3 -0.08094 0.48543-0.18239 0.47802-0.26046-0.0713-0.80763-0.32315 0.13491-0.65829-0.47559-0.23565-0.42882 0.17004-1.2426 0.042-1.4825-0.0134-0.02554-0.61772 0.23096-0.64806-0.0644-0.22331-2.1675 3.3874-3.3252 3.8171-5.2077 0.60783-2.6578-2.939 2.7287-3.1496 2.9676-1.7216 1.9538-3.7133 2.2567-4.6133 2.5132 1.5579 0.52379 0.12771 0.69863 0.0208 0.82274-0.0967 0.11224-0.48189 1.9732-1.1328 2.9111-0.78917 1.1346-4.106 4.3472-5.1121 5.0793-1.0866 0.78929-1.1878-0.35867-2.0271-0.35687-5e-3 2.7e-4 -1.62 0.45832-1.7611 0.54286-0.81456 0.48746-1.886 2.0326-2.1632 3.259-0.11112-0.12771-0.22437-0.25434-0.32103-0.395-0.60148-0.87527 0.19932-1.1731-0.28857-2.4089-0.20567-0.51984-0.86113-0.77957-1.1494-1.2062 0.34925-0.2529 0.69109-0.54969 0.73696-0.64251 0.62159-1.253 2.2768-2.6139 3.447-3.9633 0.54081-0.62272 0.93733-1.3786 1.5582-2.0991 0.38946-0.45184 1.0922-0.14678 1.2739-0.6936 0.4512-1.3674 1.3303-1.4354 2.3537-2.5344 0.10125-0.10864 1e-3 -0.64647 0.29598-0.99578 0.19121-0.22484 0.8255-0.33672 0.95497-0.5202 0.95003-1.3404 0.25012-2.1995 1.8126-1.6128 0.84208 0.3155 2.1551-0.03453 2.7167-1.0627 0.58244-1.067-0.70344-2.0466-0.7119-2.5319-0.0201-0.98571 1.9812-3.9871 2.946-4.5249 1.4298-0.7954 0.99731 0.092451 1.0075-1.5912 6e-3 -1.0508 1.645-3.0517 3.0145-4.472h-1.1112c-0.17991 0.13994-0.32032 0.25074-0.39969 0.31622-0.62795 0.51516-2.7125 3.3964-3.1387 3.3777-0.26881-0.01187-0.64417-1.8045-0.20743-2.3463-0.57468 0.44249-2.0211 0.67093-2.5626 1.3527-0.30021 0.37845 0.39899 0.32377 0.26705 0.89757-0.14287 0.61733-0.72178 0.52883-0.70132 1.0073 0.0296 0.69144 0.89465 2.4564 0.87242 2.4448 0.30833 0.15037 1.1942-1.5289 1.2845-0.28204 0.0332 0.47811-2.5915 3.4032-3.0025 2.469-0.20073-0.45688 1.3204-0.96844 0.99625-2.0024-3.3338 2.1488-4.6411 4.5871-7.7103 7.5367-1.5847 1.5232-4.1857 3.3449-5.2694 5.1649-1.4026 2.3567 0.93274 0.16476 1.0587 0.04532 2.0789-1.9862 3.5221-3.3244 5.3474-4.9947 0.64629-0.59251 2.9746-3.7572 3.3711-3.7137 1.6588 0.18131-0.51188 2.002-0.43356 1.9045-0.27164 0.33672-0.18768 0.7159-0.52952 1.3314-1.2248 2.211-3.5133 4.1349-5.5781 5.7499-0.37853 0.29715-1.0601 0.7972-1.4203 1.1911-1.0657 1.1663-1.3575 2.5564-2.0779 3.8425-0.0247 0.04389-0.37147 0.41263-0.70802 0.84972-0.0236-0.57056 0.0437-1.1771 0.0691-1.784 0.508 0.1198 0.67098-0.53099 8e-3 -0.34248 5e-3 -0.83821-0.12311-1.662-0.75106-2.3733-0.75459-0.85512-2.764-1.1764-3.1341-2.2146-0.11606-0.32629 0.42475-1.1102 0.48295-1.4883 0.043-0.27305 0.0286-0.65726-4e-3 -1.0882 0.0727 0.09893 0.18026 0.18095 0.34925 0.23132 0.81209 0.24139 3.6033-2.7402 2.2578-3.1075-0.61701-0.16836-2.346 1.2861-2.6568 2.2826-0.0572-0.62129-0.11571-1.2836-0.1023-1.8761 0.20884-0.17448 0.35771-0.36766 0.41416-0.58891-0.14182 0.08166-0.27411 0.16656-0.39899 0.25362 0.018-0.20901 0.0455-0.40724 0.0945-0.58063 0.33197-1.1739 2.0623-1.4969 2.5104-2.4553-0.043 0.088495 0.0628-1.4771-0.28928-1.7487-0.15734-0.12196-0.35525-0.20398-0.5655-0.27125 1.2827-0.88606 2.908-1.943 2.1777-2.1265-0.45791-0.1144-2.5442 1.2944-3.3923 1.9534-0.24166-0.00428-0.47873-0.00112-0.6985 0.011157-0.036-0.041015-0.096-0.064031-0.21555-0.034896-0.0483 0.01187-0.0981 0.033101-0.14676 0.060074-0.3115 0.024107-0.56092 0.048928-0.68015 0.044614-0.5708-0.019783-1.1483-0.016551-1.7173 0.00897 0.31362-0.22988 0.56939-0.52451 0.66499-0.96772 0.13617-0.63064-1.3215-2.1056-0.63782-2.7801 0.34078-0.33672 0.87736 0.45904 1.6238 0.36658 0.67593-0.083467 1.6394-0.87095 1.9939-0.87743 0.44274-0.00826 0.99625 0.69827 1.3056 0.54034 1.1952-0.61049 0.0173-0.7382 0.60325-1.5804 0.63182-0.90764 2.4017-1.2771 2.9393-1.8095 0.49953-0.49573 0.32738-1.0339 0.4445-1.4933 0.0257-0.10145 0.0759-0.20398 0.1397-0.30579h-191.08v301.09h18.722c-0.18521 0.16483-0.38117 0.31296-0.60896 0.37561-0.50338 0.13927-1.1662-0.35003-1.38-0.29102-0.0409 0.0117-0.14373 0.20037-0.29944 0.41327h6.3149c-0.14965-0.13558-0.30166-0.32011-0.45035-0.49786h7.5674c0.046 0.16974 0.10351 0.33671 0.17696 0.49786h5.7849c0.0155-0.16073 0.06-0.33303 0.10195-0.49786h5.5256c-0.0473 0.17408-0.11465 0.34215-0.20003 0.49786h143.27c-0.27835-0.11397-0.88583-0.27907-1.1158-0.67197-0.27764-0.47599 0.17356-0.77487-0.0953-1.0234-1.3959-1.2901-5.4049-1.2714-5.5446-2.6945v-0.28203c0.13864-1.2822 2.2341-1.0772 2.9905-1.6836 0.18944-0.15148-0.21625-0.58318 2.6e-4 -0.66048 0.48154-0.17171 1.1398 0.28711 1.6401 0.2233 0.0106-3e-3 0.0635-0.0507 0.13194-0.11468 0.87312 0.72162 2.237 0.97089 3.0208 0.0413 0.36089-0.42776 0.54187-1.2361 0.28787-1.9724 0.23883-0.73425-0.3048-2.3312 0.0346-2.7251 0.37818-0.43787 0.32315 0.33881 0.77188 0.2604 0.50059-0.0877 0.71578-0.75082 1.9297-0.66946 1.4263 0.0956 2.2641 1.1717 4.0499 1.3673 0.67487 0.0737 2.1064-0.41653 2.026-0.30677 1.5159-2.0976-2.964-1.7833-4.1945-2.2424-0.8703-0.32377-1.6418-1.4382-2.3622-1.9526-3.1013-2.2161-6.2664-5.8175-3.6615-7.8418 2.3654-1.8377 7.9611-3.131 11.433-1.5884 0.45791 0.20295 0.87595 0.54118 1.3067 0.8544-0.16933 0.0498-0.3803 0.10948-0.36195 0.0472-0.12383 0.41511 0.48507 0.36115 0.74013 0.20824 0.26105 0.16724 0.52951 0.3162 0.82232 0.39685 0.9525 0.26333 1.7484-0.0357 2.7009 0.25184zm14.729-85.241c-0.16475-1.1882 1.3896-0.70619 0 0zm-12.07-7.8155c-0.139-1.0379 1.1426-0.64143 0 0zm-0.23354 0.33563c0.53269 0.36047 1.6764-1.1116 0.93309-1.3419-0.82056-0.2547-1.548 0.92492-0.93309 1.3419zm-4.8602 32.888c0.20143 0.25902-0.73907 0.77488-0.72073 0.18455 0.47308 0.10684 0.24871-0.29068 0.72073-0.18455zm-1.028 0.76913c0.29669 0.36084 2.3432 0.18384 1.676-0.70438-0.7754-1.031-2.2835-0.0327-1.676 0.70438zm1.5953 5.3876c2.7531 1.7836-1.7508 5.2768-3.224 3.2165-1.3977-1.9538 1.4305-4.377 3.224-3.2165zm-18.233 46.012c1.5991 1.1092-1.9893 1.9304-1.4432 0.36917 0.24483-0.69941 0.93239-0.72286 1.4432-0.36917zm11.045 14.839c0.54645 0.44758-0.15664 1.588-0.9331 1.3422-0.84137-0.26547-0.23283-2.2976 0.9331-1.3422zm-7.0556-16.595c0.70203 0.9029-2.0122 2.234-2.2394 0.80212-0.15875-1.0051 1.5074-1.7393 2.2394-0.80212zm3.9423 15.957c-0.0127 0.0183-0.073 0.0648-0.20849 0.15304 0.0836-0.0543 0.14923-0.10468 0.20849-0.15304 0.0522-0.0755-0.72919 0.33686-0.68509 0.4123-0.67945-1.1839 1.724-1.2554 0.68509-0.4123zm-0.42968 0.89979c1.0449 0.15083 1.1846-1.1858 0.84737-1.5052-1.3215-1.249-2.2444 1.3041-0.84737 1.5052zm8.6988-18.92c-0.39052-0.84686 1.4651-2.1031 1.8877-1.8632 1.3984 0.79429-1.003 3.7806-1.8877 1.8632zm0.47908 2.8668c0.85407-0.48536 1.8881-0.27091 2.4306 0.3439 0.79199 0.89936 0.0159 2.7279-1.7808 2.847-0.63605 0.0431-2.4497-0.71346-2.5975-1.0518 0.16298 0.16539 1.6376-1.9629 1.9477-2.1391zm-4.5067 3.4978c-0.26917 0.12525-0.3489-0.41155-0.0959-0.57317 0.34501-0.2219 0.2614 0.49621 0.0959 0.57317zm-6.531 9.3966c0.68475 0.21218 0.13477 0.88965-0.13793 0.90935-1.0693 0.0759-0.21378-1.0177 0.13793-0.90935zm-3.2156 15.726c0.93062 0.21585-0.80399 0.90721-0.56233 0.0971-0.0293 0.0989 0.51788-0.10792 0.56233-0.0971zm4.6761-21.526c0.01-0.43531 0.42969-0.40907 0.63677-0.34722 0.93839 0.28035-0.6604 1.3613-0.63677 0.34722zm-2.7781 20.074c-0.85231-1.1789 0.97966-3.4907 2.4504-1.9599 1.6764 1.7441-1.506 3.2651-2.4504 1.9599zm0.6985 4.2266c0.18274-0.18771 0.43145-0.40288 0.76765-0.64498-0.0459 0.24857-0.1143 0.46191-0.19474 0.64498zm48.737-91.011c-0.6096 0.34249-3.0889 1.3904-3.363 0.99795-0.22013-0.31586 1.33-2.233 2.0249-2.7708 0.41275-0.3191 3.3355-1.8621 4.7738-2.6006 0.48754-0.25039 2.1654-0.95946 2.1537-0.96485 0.97508 0.40976-3.9091 4.3986-5.5894 5.3383zm-7.8461 42.024c0.63747 0.18311-0.23812 0.70942-0.46672 0.67092-0.13053-0.0223-0.0392-0.81627 0.46672-0.67092zm-24.204 18.607c-0.46461 1.0253-1.2143 0.0195 0 0zm-1.113 0.60605c0.43569 0.76124 1.9138-0.37547 1.1878-0.85536-0.5073-0.33602-1.5339 0.25041-1.1878 0.85536zm21.272 29.775h-0.75811c0.0896-0.14135 0.26599-0.23129 0.52705-0.15064 0.121 0.0374 0.19261 0.0907 0.23106 0.15064zm-3.8358-44.903c-0.51646-1.6246 1.8715-3.0341 3.0974-1.8955 2.2162 2.0588-2.2613 4.5289-3.0974 1.8955zm15.782 38.328c0.68227 1.231-2.0429-0.49718-0.15875 0.0867 0.0123 5e-3 0.15522-0.0932 0.15875-0.0867zm-1.2838 0.28273c-0.0427 1.4833 2.6067-0.15063 1.1137-0.6072-0.43851-0.13491-1.0986 0.0781-1.1137 0.6072zm0.0409-19.835c0.0843-0.74256 1.0612-0.68184 1.3582-0.53107 1.33 0.67594-1.5282 2.0294-1.3582 0.53107zm3.9112 10.591c0.0854-1.0832 1.6616 0.31228 0 0zm1.0195-16.405c-0.0656 0.10242-0.57079 0.75644-0.21237 1.1579 0.49072 0.54794 2.0683-1.84 2.1643-0.55298 0.13723 1.8398-5.1915 1.1782-2.6109-1.0802 0.14252-0.1245 3.4152-0.89149 2.1974 0.67916 0.0138-0.018-0.34255-0.64798-0.34008-0.64937-0.0124 4e-3 -1.9188 1.5772-1.1984 0.44548zm2.8995-12.425c-0.0455 0.66838-1.9568 0.87242-2.4945 0.31593 0.96273-0.54726 1.6499-0.16772 2.4945-0.31593zm-4.2224-31.486c0.0215 6e-3 0.14428-0.10035 0.15875-0.0864 0.91299 0.88247-1.5808-0.35291-0.15875 0.0864zm-1.0474 21.426c4e-3 -9.6e-4 0.0681 3.0744 1.7413 1.7631-0.84349 2.0095-3.4325-1.039-1.7413-1.7631zm2.3562 0.59394c0.097-1.53-1.723-0.0734-2.2832-0.84253 0.88018-0.55005 3.1944-0.33348 2.2832 0.84253zm-3.7627 7.2637c-0.2346-0.53782 0.66251-0.70293 0.95461-0.52018 0.64841 0.40363-0.69673 1.112-0.95461 0.52018zm-9.6266-19.157c0.078-0.58243 0.55915 0.0504 0.8703-0.68279 0.13229-0.31191-0.56445-0.59791-0.26635-0.89794 0.46073-0.46299 2.9983-1.3106 3.193-1.3224 0.46814-0.0285 2.244 0.62021 2.527 0.91808 1.003 1.058 0.13864 0.98464 0.21273 1.9689 0.0631 0.83281 0.72919 0.48349 0.51011 0.97455-0.0945 0.21297-1.7244 1.7602-2.0465 1.9491-2.1329 1.249-5.365-0.15864-5.0003-2.9075zm15.809 63.757c0.33655 0.39289 0.33373 1.1894 0.0335 1.9689h-8.2363c0.18909-0.35283 0.49636-0.68996 0.96661-0.94715 0.4318-0.23606 0.63677 0.26111 1.2947 0.12846 1.8637-0.37423 3.0716-1.7692 3.9888-1.7545 0.0815 2.6e-4 1.8461 0.47945 1.9526 0.60427zm-9.6044-18.336c-0.0385-0.2813 0.33162-0.57656 0.79587-0.43353 1.0453 0.32464-0.67945 1.279-0.79587 0.43353zm1.4609-5.8009c-0.20885 0.94366-2.6141 2.259-4.1367 2.2535-1.3585-4e-3 -3.3867-2.207-3.5355-2.4534-0.58773-0.97752-0.7934-3.2744-0.19403-4.2741 0.0702-0.11597 0.50412 0.15176 0.6477 0.064-0.15311 0.0932 0.6163-2.8128 2.2592-3.1074-0.0822 0.0151 0.69179 0.80578 1.0714 0.87632 1.2636 0.23679 3.0321-1.3083 4.2019 0.21402 0.52105 0.67637 0.32173 3.0119 0.17251 3.4515-0.34431 1.013-1.4051 1.1703-1.155 2.089-0.0279-0.10214 0.67875 0.83897 0.66852 0.88672zm-12.598-3.3571c-1.699 0.70584-1.2552-2.4168 0.127-1.3202 0.17216 0.13674 0.65299 0.99647-0.127 1.3202zm4.5367 6.7065c-0.31468 1.053-1.675-0.79033-0.41522-0.40034 0.037 0.0125 0.48049 0.17735 0.41522 0.40034zm-2.2906 20.226c0.0804-0.73135 1.0224-0.73203 1.4425-0.36905 0.91017 0.78569-1.5861 1.6696-1.4425 0.36905zm-8.7796-106.17c0.24624 0.0766 0.13194 0.72058-0.30727 0.58424-0.44097-0.13636-0.3235-0.77922 0.30727-0.58424zm-1.6337 17.574c-0.49318-0.86195 1.0287-3.1848 2.5241-2.2099 2.0369 1.3296-1.5293 3.9518-2.5241 2.2099zm-5.8117 88.465c0.0378-0.12692-1.331 1.625-1.0918 1.4293-1.1748 0.95881-4.1053 1.5628-5.3273-0.018-0.92392-1.1971 0.0653-1.9116-0.24553-3.2039-0.14323-0.59287-1.0382-1.0322-1.2644-2.0217-0.23036-1.0048 0.74789-3.368 1.8334-3.918 0.81844-0.41483 2.8557 0.15358 2.7488 0.17088 0.39159-0.0648 0.33232-0.40585 0.55104-0.50899 0.93733-0.43928 5.1079-0.61243 5.5608-0.31774 0.67451 0.44112-3.0424 0.76081-3.7458 1.8322-0.81879 1.2476 0.078 3.0075 0.43886 4.3494 0.0759 0.28554-0.31644 0.5129-0.22296 0.74673 0.21202 0.5318 1.0897 0.35513 0.76482 1.4598zm-2.8339-33.91c-0.73378-0.51361-0.64241-0.13728-0.88053 0.27095-0.86819-0.97272 1.2467-1.3112 0.88053-0.27095zm-1.851 24.575c-0.20919-0.17731 0.0628-0.52413 0.39124-0.42198 0.69038 0.21374-0.21414 0.57305-0.39124 0.42198zm0.35031 1.0601c-0.21731-1.4505 1.6686 0.0404 0 0zm6.2879-6.3448c-0.22578-0.60189 0.39193-0.36525 0.63676-0.34725 0.69497 0.0505-0.62124 0.38856-0.63676 0.34725zm-0.0624 0.65936c1.1391 0.2601 1.3293-0.9799 1.2612-1.1037-0.88335-1.6325-2.4754 0.82742-1.2612 1.1037zm9.8012-23.508c0.0194-0.0992 4e-3 -0.23988-0.0293-0.38195 2e-3 9.6e-4 5e-3 9.6e-4 7e-3 2e-3 0.32702 0.12479 0.23636 0.25617 0.0226 0.37986zm-0.80715 0.46443c-0.46637-0.30143-0.24307-0.74676 0.19332-0.87336 0.0307 0.16537 0.0949 0.32122 0.17427 0.3877 0.0829 0.0702 0.15029 0.11159 0.20779 0.13563-0.32526 0.14472-0.69885 0.2702-0.57538 0.35003zm0.57185-1.3339c-0.0229-0.0284-0.0462-0.0515-0.0677-0.0601-0.15064-0.0622-0.24165-0.0111-0.28928 0.0924-0.65334 0.16373-1.2418 0.85764-0.93627 1.4865 0.60889 1.2556 2.9235-0.5309 1.7396-1.3652-0.13582-0.0953-0.28893-0.14182-0.44627-0.15362zm-2.6737 16.452c-0.18132 0.29317 0.3108 1.799-0.33831 2.479-0.15381 0.1615-0.66287-0.24858-0.73237-0.22665-0.98601 0.30465-1.8891 1.9534-3.1715 2.1441-0.46708 0.0698-2.5979-0.35399-2.9189-0.49548-1.1289-0.49635-2.7982-2.5531-2.5382-4.4568 0.0251-0.18563 0.49212-0.0141 0.56233-0.098 0.24871-0.29239 0.41522-1.6141 0.51858-1.7422 0.66781-0.82279 3.3778-2.1308 4.1374-2.2535 0.80292-0.12982 0.18168 0.50942 0.90241 0.55156 1.4824 0.0854 0.63782-0.21121 1.6341 0.77782 0.47484 0.47021 1.4383 0.27657 1.7092 0.52909 0.0684 0.0637 1.1882 2.5 1.1899 2.2712-4e-3 0.44391-0.97755 0.5569-0.95462 0.51978zm-3.6858 24.547h-3.6763c0.0575-0.44249 0.29704-0.85465 0.79799-1.1576 0.35066-0.21223 1.029 0.36438 1.3797 0.29171 0.72496-0.15107 0.31009-0.64388 1.1356 0.21415 0.25894 0.27012 0.35102 0.48736 0.36301 0.65176zm4.1437-34.965c0.0974 0.0752 0.20355 0.14206 0.32032 0.19278-0.43356 0.3551-0.30692 0.0232-0.32032-0.19278zm0 0c-0.0561-0.0431-0.10936-0.0893-0.15911-0.13772 0.11254-0.0141 0.15311 0.0464 0.15911 0.13772zm-0.39547-8.5936c0.9712 1.5328-1.4337 3.2006-2.673 2.7067-2.5809-1.0302 0.7747-5.6983 2.673-2.7067zm-6.0343 6.8322c1.4034-0.90399 4.5738-0.80041 5.9034 0.42242-0.34783-0.25225-0.21025 0.63238 0.36724 1.2012-0.0293 3e-3 -0.0522 2.4e-4 -0.0938 0.0167 0.68544 1.5642-0.16299 1.7872-2.0031 3.594-0.23989 0.23552-0.4064 0.67114-0.62547 0.75785-2.9012 1.1463-7.0753-3.7204-3.5482-5.9923zm22.092-34.349c-0.71296-0.3842-0.0783-1.8045 0.78528-0.84504-0.2039-0.227 0.29563 1.4282-0.78528 0.84504zm3.2533-23.462c0.012 0.0857-1.6235-0.11871-0.41381-0.40039 0.13088-0.0302 0.38417 0.18203 0.41381 0.40039zm-16.132 79.697c0.19685 0.20036 0.80046 3.3251 0.58703 3.851-0.11148 0.27459-1.2143 0.75267-1.4217 1.192-0.0529 0.11286 0.52423 0.4306 0.0219 0.82265-0.77823 0.6051-1.3691 0.12662-2.3347 0.22737-0.22613 0.0246-0.66181 0.50914-0.55104 0.50983-0.91792-7e-3 -3.7712-0.65725-4.342-2.4313-0.21943-0.68378-0.2286-2.8118-0.2346-2.7923 0.14076-0.41481 0.53163 0.21517 0.8068-0.0224 0.27728-0.2396-0.30163-0.50727-0.18098-0.73535 0.17745-0.33629 2.3163-1.5958 3.1817-1.7333 1.2467-0.19854 4.1201 0.75518 4.4676 1.1117zm5.6381-95.044c-0.0797 0.0572-3.5825 3.7745-4.1892 3.3248-0.78352-0.58064 1.9237-1.9135 2.4391-2.3718 1.4312-1.2735 2.2151-2.9158 4.0086-4.0605 2.0504-1.308 3.6996-2.0894 5.1537-3.4334 0.44944-0.41479 1.0792-1.9649 1.8986-1.4512 0.65864 0.41084-2.1872 3.0586-2.9679 3.7025-1.373 1.1314-4.6842 3.083-6.3429 4.2896zm-1.868 33.135c-0.43321-0.22736-0.17286-1.2127 0.62618-0.75835 0.51012 0.29104-0.22084 0.97133-0.62618 0.75835zm-0.68016-34.875c2.0077 1.3322-2.7862 3.0902-2.0786 0.71554 0.16792-0.56552 1.385-1.176 2.0786-0.71554zm-3.163 48.231c0.11959-0.8893 1.5621-0.75908 2.4606-1.5487 0.0198 0.78712-1.8161 1.3768-2.4606 1.5487zm0.34431-41.899c-0.53975-0.96484 0.97472-0.49538 0 0zm11.456-6.2402c-0.35172-0.36263 0.58525-1.5908 1.1889-0.85584 0.5401 0.66049-0.80151 1.2516-1.1889 0.85584zm-13.98 8.4494c-2e-3 0.0443-1.3667 2.065-1.0813 1.8398-2.1068 1.6649-5.3728-0.86483-3.387-2.9517 1.2502-1.3124 2.7778-1.3019 3.7035-0.34859 0.30445 0.31514 0.75812 1.6052 0.76482 1.4606zm-20.778 32.174c0.16933-0.56696 0.85019-0.37737 1.1246-0.19534 0.82586 0.5461-1.4785 1.384-1.1246 0.19534zm-3.3521 1.4091c-0.3503-0.33887 0.32244-0.71661 0.7105-0.5961 0.51823 0.16046-0.47307 0.82491-0.7105 0.5961zm1.8986-16.677c-0.49494-0.30794-0.24553-1.2933 0.69956-1.0066 0.84385 0.25615-0.21096 1.3106-0.69956 1.0066zm11.951 18.518c-1.4037-0.11765 0.53023-1.3314 0 0zm22.822-37.25c6e-3 -0.15002-0.65793-1.2329-0.7366-0.79109 0.11183-0.80476 1.4355-0.70042 0.7366 0.79109zm0.61419-1.1692c-0.66322-0.91123-2.5584-0.37269-2.4828 0.7267 0.14711 2.125 3.4001 0.53458 2.4828-0.7267zm-3.1348 9.633c0.0113-0.0367 0.27657-0.16044 0.31855-0.17339 0.92075-0.28313-0.57714 1.0429-0.31855 0.17339zm0.55174-0.50904c-0.77505-0.20289-1.373 0.87778-0.77364 1.2559 0.46143 0.29104 1.8542-0.97276 0.77364-1.2559zm-1.052 15.172c-0.0564-0.10792-0.11324-0.21621-0.17004-0.32414 0.68403-0.64827 1.0788 0.10505 0.17004 0.32414zm-28.521-22.31c-0.69004-1.0343-0.86149-2.7179 0.20002-4.0508 0.70273-0.88245 0.98178-0.1198 0.96697-0.11008 0.96872-0.64323 1.2979-3.4608 2.3636-2.1222 0.15522 0.19498 0.54292 0.73101 0.99871 1.1253 0.55492 0.47882 2.4536 1.3879 2.6652 3.1356 0.0533 0.43638-0.51294 0.39681-0.62548 0.75835-0.37218 1.1951-0.0399 1.7441-1.3035 2.587-0.6851 0.4558-2.4818 0.8357-2.8864 0.7382-0.11113-0.027-0.35701-0.19605-0.64488-0.42054-0.42439 1.1789-2.4804 2.039-3.0438 0.42091-0.2921-0.83893 0.4385-1.8013 1.3095-2.0617zm30.116 9.3452c0.9084 0.9616-1.1074 3.5111-2.4176 3.1938-3.0854-0.74612 0.27517-5.4606 2.4176-3.1938zm-16.242-62.405c0.28857-0.97205 1.4411-0.72058 1.8454-0.3799 1.8122 1.5282-2.4589 2.4402-1.8454 0.3799zm4.5332 3.5788c0.61278 0.96197-0.39052 3.4406-2.4183 3.1938-4.0601-0.49681 0.1337-6.7776 2.4183-3.1938zm-2.0154-15.17c1.9904 1.9113-3.2688 2.0944-2.0161 0.0558 0.65722-1.0695 1.543-0.50834 2.0161-0.0558zm60.015-4.1195c0.0356-0.11908 0.52316-0.10864 0.56161-0.0968 0.91477 0.25866-0.75142 0.73352-0.56161 0.0968zm-24.59 10.059c-0.32209-0.25219-0.0543-0.98284 0.55068-0.50905 0.39053 0.30434-0.29139 0.71086-0.55068 0.50905zm-1.5932-17.486c0.0494-0.14282-2.1611 1.348-2.45 1.9603-0.40146 0.85117 0.75601 1.1735-0.59196 1.9916 0.1076-0.0654-1.2411 0.27161-1.5286 0.20687-0.45474-0.10178-0.57397-0.8447-1.1557-1.039-1.0072-0.3324-1.112 0.27413-1.6252-0.3655-0.31397-0.39321-1.3843-0.45545-1.5498-0.61625-0.58279-0.5702-1.7085-2.592-1.7741-2.9956 2.6e-4 -7e-3 0.5461-0.43133 0.55209-0.51011 0.0801-0.94867-0.27869-1.8218 0.81527-2.738 1.5804-1.325-1.1987-0.10794-1.8052-1.1023 0.57573-0.56625 1.294 0.1734 2.1018 0.10649 0.3489-0.0281 0.63288-0.51552 0.95497-0.51983 0.65158-0.01 0.83608 0.52631 1.379 0.29139 1.2227-0.52992 0.13123-0.72633 1.6132-0.0438 0.28504 0.13022 3.265 0.13922 3.078 0.40867-0.73555 1.0566 2.2412 1.5372 1.5293 2.9197-0.48966 0.9526 0.78316 1.1044 0.45684 2.0455zm4.1335-8.5084c0.32138 0.39537 0.42087 1.8401-0.17815 2.3916-1.1 1.012-2.2588-4e-3 -2.7376 0.24031-0.77117 0.39284 0.36513 0.43458-0.0529 1.071-0.72955 1.1116-2.6352 0.1957-2.2825-0.84253 0.22684-0.66303 1.2277-0.0435 1.6768-0.70404 0.21237-0.31406-0.25189-1.1591-0.0441-1.6448 0.72566-1.6865 3.0395-1.2242 3.6184-0.51157zm-57.336 44.372c-1.3772-1.0141 0.34749-1.6566 0 0zm55.686-36.59c0.0116-0.0381 0.27657-0.15973 0.31785-0.17305 0.92146-0.28383-0.57679 1.0422-0.31785 0.17305zm0.63676-0.3468c-0.22825-0.1788-1.372-0.36515-1.4432 0.36945-0.13265 1.366 2.3569 0.34609 1.4432-0.36945zm-58.356-6.378c0.0116-0.0374 0.27658-0.16008 0.31856-0.17339 0.9204-0.28384-0.57785 1.044-0.31856 0.17339zm0.63677-0.34679c-0.6784-0.39069-1.015 0.21764-1.0393 0.35759-0.20672 1.1368 2.3033 0.36982 1.0393-0.35759zm-0.22966 6.591c-0.0289-0.0104 0.21272-0.55546 0.30832-0.58568 0.51965-0.16548 0.013 0.6846-0.30832 0.58568zm3.392-6.0193c-0.84596-0.14316-1.7-0.25973-2.3675-1.0048 0.90982-0.0691 1.6916 0.2896 2.3675 1.0048zm-7.2274-1.694c0.0106-0.0377 0.27657-0.16044 0.31926-0.17375 0.92075-0.28349-0.57855 1.0433-0.31926 0.17375zm14.45 12.359c1.2139 0.60581-0.45684 1.8653-1.0178 1.1803-0.55139-0.67345 0.18662-1.5958 1.0178-1.1803zm52.762-28.115c-0.23706 0.79576-2.2366-0.30543-2.4303-0.34464-1.7964-0.37126-2.3738-0.13527-3.8841-0.38745 0.30128-0.74072 1.8807-0.37091 3.1408-0.25075 0.42722 0.04141 3.4435 0.07587 3.1736 0.98283zm-52.114 46.532c0.0247 7e-3 0.37783 0.0752 0.32914 0.23779-0.20637 0.69216-1.2725-0.5299-0.32914-0.23779zm-18.597-25.741c-0.0557-1.4361 1.9442-0.81807 0 0zm85.969-5.3272c-0.066-0.42594 0.50131-0.30039 0.80751-0.0227 0.49141 0.44752-0.71826 0.58783-0.80751 0.0227zm1.0411-0.35795c-0.31787-0.35615-0.84878-0.63424-1.2961-0.12843-1.216 1.3796 2.5421 1.5271 1.2961 0.12843zm-0.35068-16.285c-1.5794 0.6479-3.3076 1.444-3.9688-0.54898-0.2032-0.61481-0.0829-1.8293 1.1437-2.5002 0.43252-0.23636 0.63712 0.26117 1.2954 0.12879 1.8634-0.3745 3.0709-1.7696 3.9889-1.7552 0.0812 8.06e-4 1.8454 0.47954 1.9526 0.60437 0.64487 0.75259 0.0529 2.9884-1.5148 3.7446-0.44839 0.21728-1.8948-0.08352-2.897 0.32665zm2.2934 19.607c0.28929-0.97203 2.7009 0.30651 2.8346 0.33349 0.60536 0.12015 1.1963-0.47164 1.6976 0.11764 1.0241 1.2066-4.9368 0.90908-4.5322-0.45113zm-8.1192-1.8344c2.8494-0.4925 2.4437 1.1864 0 0zm7.5819 24.234c1.3635 1.3919-2.6162 1.5592-1.4538-0.0422 0.46778-0.64538 1.0922-0.32772 1.4538 0.0422zm-14.594-23.959c0.91017 1.6293-3.0399 2.1498-2.4197 0.0666 0.34889-1.1713 2.0002-0.81626 2.4197-0.0666zm-3.4918-49.612c-1.699 0.70583-1.2552-2.4171 0.127-1.3199 0.17216 0.13634 0.65335 0.99614-0.127 1.3199zm9.0205 66.413c1.6323 1.5415-2.0514 2.9981-2.6307 1.2239-0.46144-1.4131 1.8877-1.9246 2.6307-1.2239zm-6.7744-39.481c0.0804-0.73101 1.0224-0.73173 1.4429-0.36874 0.90982 0.78569-1.5861 1.6696-1.4429 0.36874zm9.6866-18.207c1.046 0.32413-0.67945 1.2785-0.7955 0.4335-0.0385-0.28132 0.33195-0.57704 0.7955-0.4335zm-3.4713-3.114c-1.3586-4e-3 -3.3863-2.2071-3.5355-2.4535-0.58737-0.9778-0.79304-3.2744-0.19367-4.2745 0.0698-0.11548 0.50411 0.15182 0.6477 0.06404-0.15346 0.09353 0.6163-2.8125 2.2585-3.1075-0.0819 0.01546 0.6918 0.80584 1.0714 0.87671 1.2637 0.23635 3.0321-1.3088 4.2019 0.21405 0.52176 0.67597 0.32245 3.0115 0.17323 3.4511-0.34468 1.0134-1.4055 1.1706-1.1554 2.0891-0.0282-0.1018 0.67876 0.83894 0.66887 0.88714-0.20918 0.94362-2.6141 2.2585-4.137 2.2535zm-3.925 1.0958c-0.31432 1.0526-1.675-0.79073-0.41486-0.40076 0.037 0.0126 0.48083 0.17736 0.41486 0.40076zm-54.84 99.113c0.16016-0.14103 0.14252 0.0435 0.24412 0.0744 1.1726 0.36407-0.99801 0.58459-0.24412-0.0744zm20.013-48.86c-1.0093 0.0309-0.81703-2.5179 0.37147-1.2447 0.29916 0.32234 0.37853 1.2224-0.37147 1.2447zm0.51894-1.743c-1.1723-0.89291-2.1078 0.60688-1.6542 1.5278 0.66146 1.3422 3.6294-0.0212 1.6542-1.5278zm-13.761-13.776c2.1135 1.4095 0.043 3.8443-1.6739 3.8306-3.1182-0.0219-1.3173-5.8268 1.6739-3.8306zm5.4931 27.665c0.0649-0.159-0.14287-0.95189 0.0533-1.0724 0.75777-0.46083 3.1471 0.85872 3.8202 1.0483 0.91793 0.25865 1.2181-0.39537 1.9526 0.6051 1.3917 1.897-1.5286 2.9089-2.8829 3.8641-1.0753 0.75763-2.0436 1.2077-3.2374-0.32234-1.5222-1.9509-0.28082-2.6996 0.29421-4.1227zm9.0872-10.372c0.26493-0.3378 1.2344-0.29932 0.81809 0.38817-0.3422 0.56408-1.1352 0.0151-0.81809-0.38817zm-2.624-4.6192c3e-3 -0.72561 0.10372-0.38493 0.63747-0.34715 1.6418 0.11979-0.64135 1.2231-0.63747 0.34715zm-21.709 51.868c-0.16898-0.29679 0.12806-0.63999 0.55104-0.50724 0.78493 0.24138-0.33973 0.87598-0.55104 0.50724zm7.3819-38.224c0.15664 0.33132-0.62476 1.6045-1.5053 1.0289-1.143-0.74612 0.74189-2.6546 1.5053-1.0289zm-7.7124 34.859c-0.32279-0.0993-0.49672-0.83354 0.0631-0.66086 0.63536 0.1975 0.36337 0.79325-0.0631 0.66086zm2.1248-11.169c1.0414 0.11656 0.44238 0.32089 0.79551-0.43314 1.2157 0.40436-0.52141 1.9265-0.79551 0.43314zm-6.6661 13.433c-1.064-1.1764 0.64805-3.1107 1.9734-1.6998 1.4552 1.5487-1.2213 2.529-1.9734 1.6998zm34.472-23.991c0.9278 0.17665-0.38594 1.1742-0.47766 0.26045 0.0226 0.22341 0.71049-0.21584 0.47766-0.26045zm-20.058-4.7156c0.2032 0.18958 0.64523 0.42809 0.66887 0.88713 0.0173 0.33457-1.7692 1.8865-1.8877 1.8624-0.24306-0.0482-1.4199-1.4721-1.4228-1.9358-9e-3 -1.2062 1.7318-1.6685 2.6416-0.81375zm13.348-17.073c0.0353 0.0198 0.58032 0.29285 0.49953 0.56229-0.16227 0.54647-1.9484-1.3688-0.49953-0.56229zm10.369 19.796c-0.18239 0.28456-0.14111-0.3432 0 0zm0.77188-4.3832c-1.1225-0.46191-1.5117-1.1141-2.4511-1.1667 0.92004-0.22124 4.2252 0.27449 4.9452 0.85045 1.6013 1.2836-2.3089 0.39176-2.4941 0.31621zm1.0978 7.9526c-0.0564-0.10757-0.11324-0.21585-0.16969-0.32414 0.68333-0.64755 1.0774 0.10505 0.16969 0.32414zm-6.5479-18.748c-0.90558-0.73999-2.4525-1.5124-3.132-2.465 1.2157-0.20109 3.6146 1.957 4.1825 2.5182 0.32597 0.32305 0.86784 0.8544 0.59514 1.1354-0.57467 0.59287-1.6588-1.1998-1.6457-1.1886zm-4.7477-23.901c1.6898-0.53602 1.2033 1.0976 0 0zm-5.8328 5.2631c0.28575 1.0656-1.059-0.17771 0 0zm-5.4987-3.4698c0.95814 0.25794-0.61772 0.73174-0.40393 0.0115-7e-3 0.0219 0.37712-0.0179 0.40393-0.0115zm13.882 21.427c0.0716-0.23923-0.55986-0.35615-0.64629-0.0644-0.0723 0.23959 0.56021 0.35686 0.64629 0.0644-0.16122 0.54431-1.0358 0.58243-1.0499-0.0533-0.01-0.42953 1.3046-0.79792 1.0499 0.0533zm-3.3528 31.86c1.3028-1.648 3.7391 0.41228 3.1835 1.3937-0.50695 0.89541-1.6404 0.16513-2.2486 0.3907-0.66322 0.24606-1.0054 1.8138-1.3698 0.12015 1.1532 0.92923 6e-3 -1.3642 0.43498-1.9045zm7.9968-5.8171c0.82973-0.82491 1.5476-0.34069 2.0278 0.3565 1.6062 2.3434-4.0774 1.6833-2.0278-0.3565zm1.7547-43.501c-0.11782 0.39682-0.84278-0.45651-0.49847-0.56191 0.0861-0.0273 0.56585 0.33564 0.49847 0.56191zm-1.0499 18.299c0.27975-0.92634-0.37748-0.80475-0.64665-0.0647-0.50376-0.79648 0.99872-1.198 1.1984-0.44465-0.0751 0.20362-0.26776 0.37019-0.55174 0.5094zm1.0552 6.3075c0.0409-9.7e-4 0.13018 0.29283 0.17004 0.32412 1.0876 0.86413-1.6323-0.26729-0.17004-0.32412zm-19.389-119.79c0.6611-0.70043 1.1631-1.9139 1.7498-0.95333 0.92004 1.5066 1.0855-0.6033 1.9205-0.62848 0.10936-4e-3 0.32138 0.73029 0.42475 0.81087 0.72601 0.56408 2.3622 0.26873 2.993 0.24679-1.433 1.0828-0.0649 1.4037 0.0547 2.0563 0.0275 0.15433-0.41063 1.0879-0.2861 1.4066 0.22049 0.5648 0.95285 0.0572 0.82762 0.80044 0.0152-0.0867-1.9325 2.5107-1.9502 2.5218 0.12489-0.08274-3.023 1.1645-3.2791 1.1609-1.0887-0.01692-3.4724-2.0743-3.6325-3.3939 0.1016 0.31874 0.94862-2.0898 0.65758-2.2851-0.40181-0.27305-1.3903 1.6433-1.8013 2.0239-1.3843 1.2811-3.0166 1.8049-4.1264 2.6654 0.19508-1.8991 4.674-4.5541 6.4477-6.4323zm-22.297-14.281h-0.67874c1.0689-1.1451 2.9411-2.2509 3.7158-2.9658-0.53129 1.0084-1.8503 2.1232-3.0371 2.9658zm-1.3007 0.85656c0.13723-0.28456 0.3556-0.57164 0.62195-0.85656h0.67874c-0.47413 0.33708-0.92816 0.63172-1.3007 0.85656zm16.389-0.85656h-1.4213c0.95321-0.50113 2.0623-0.97564 3.0604-1.0379-0.34008 0.25542-0.9719 0.69144-1.639 1.0379zm-2.117 0.38241c0.21872-0.12483 0.45226-0.25434 0.69567-0.38241h1.4213c-0.8008 0.41587-1.6535 0.70151-2.117 0.38241zm32.211 110.3c1.7865 0.27268 3.5296 0.68531 5.1269 1.5868-1.3582 0.0483-3.5546-0.8695-5.1269-1.5868zm-24.382-113.31c0.4244-0.50113 0.73061 0.21297 0.81739 0.38925 0.59443 1.2124-1.4891 0.40436-0.81739-0.38925zm1.3586-0.53135c-0.28645-0.27377-2.9214 0.19822-2.2176 1.625 0.77611 1.5707 3.3193-0.56732 2.2176-1.625zm-0.89888 5.7034c0.0455-0.059716 0.57891-0.28528 0.96555-0.109 1.9413 0.88642-2.3964 1.9944-0.96555 0.109zm-22.717 1.5296c0.74013 0.22988-0.17569 1.4163-0.62654 0.75835-0.34748-0.50581 0.11184-0.91664 0.62654-0.75835zm12.338-3.3838c0.0109-0.037058 0.27552-0.16045 0.31821-0.1734 0.92075-0.28384-0.57785 1.0429-0.31821 0.1734zm-8.2614 8.0458c0.0663-0.24931 0.20708-0.51156 0.56198-0.098213 0.73589 0.85548-0.69956 0.61337-0.56198 0.098213zm1.0393-0.35831c-0.36195-0.51408-0.89253-0.53458-1.2199-0.37809-3.0875 1.4818 2.9411 2.8197 1.2199 0.37809zm5.6236-16.202c0.6918 0.21297-0.14675 0.91988-0.46496 0.67129-0.27552-0.21513-0.10371-0.84865 0.46496-0.67129zm13.025 7.2957c0.35137 0.039934 0.49848 0.25326 0.51224 0.53243h-1.6245c0.22154-0.3468 0.5976-0.59143 1.1123-0.53243zm-0.62512 0.75763c0.1965-0.034172 0.53764 0.69611 0.26529 0.89793-0.46567 0.3468-0.88829-0.79001-0.26529-0.89793zm-0.2861 1.407c0.56691 0.29607 1.4598-0.89721 1.4235-1.6322h-1.6245c-0.35278 0.55149-0.31221 1.3627 0.20108 1.6322zm42.751 44.91c2.2162 2.0588-2.2617 4.5292-3.0974 1.8959-0.51682-1.6246 1.8715-3.0345 3.0974-1.8959zm4.977-46.542h-3.6428c0.32561-1.4145 2.2232-2.8773 3.6117-1.4081 0.31891 0.3378 0.27622 0.87131 0.031 1.4081zm-3.6428 0h3.6428c-0.45296 0.99075-1.5991 1.9912-2.4486 1.7854-1.0862-0.26262-1.3712-1.017-1.1942-1.7854zm8.4116 21.42c-0.20355-0.227 0.29564 1.4282-0.78492 0.84505-0.71297-0.38385-0.0783-1.8045 0.78492-0.84505zm-6.3948-9.8639c-0.0564-0.10793-0.11324-0.21585-0.16968-0.32449 0.68368-0.64827 1.0781 0.10505 0.16968 0.32449zm-9.0103-1.9743c1.0509 0.77238-0.82655 2.411-1.4203 1.1908-0.38347-0.78857 0.67522-1.7394 1.4203-1.1908zm1.6686 20.364c0.11959-0.88966 1.5621-0.75943 2.4606-1.5491 0.0194 0.78749-1.8161 1.3768-2.4606 1.5491zm-3.6266-29.946h-1.4954c0.44239-0.26801 0.96979-0.33708 1.4954 0zm-2.5139 2.2164c-0.31856-0.55725 0.20532-1.7236 1.0185-2.2164h1.4954c4e-3 0.00214 7e-3 0.00398 0.0109 0.00612 2.0362 1.3296-1.5296 3.9518-2.5248 2.2103zm10.61 13.616c0.51047 0.29068-0.22048 0.97132-0.62618 0.75835-0.43321-0.22736-0.17321-1.2127 0.62618-0.75835zm0.0289 77.358c0.69004 0.21476-0.14958 0.92023-0.46778 0.67237-0.27411-0.21513-0.10195-0.84829 0.46778-0.67237zm4.2767-48.837c0.63711 0.18347-0.23848 0.70942-0.46708 0.67129-0.13053-0.02266-0.0395-0.81662 0.46708-0.67129zm7.8998 42.413c0.68263 1.2311-2.0433-0.49717-0.15912 0.08634 0.0124 5e-3 0.15595-0.09282 0.15912-0.08634zm-1.2838 0.2824c-0.0423 1.4832 2.6063-0.15074 1.1141-0.6069-0.43884-0.13527-1.0989 0.07806-1.1141 0.6069zm1.1949-40.276c-0.23495-0.53746 0.66252-0.70295 0.95425-0.51983 0.64876 0.40364-0.69639 1.1116-0.95425 0.51983zm-58.687-43.321c0.91369 0.88246-1.5801-0.35327-0.15946 0.087056 0.0215 0.00724 0.14499-0.10109 0.15946-0.087056zm49.943-6.5582c0.0113-0.036687 0.27623-0.16045 0.31856-0.17304 0.92075-0.28348-0.57715 1.0429-0.31856 0.17304zm-0.2219 0.7472c0.46179 0.29104 1.8538-0.97276 0.774-1.2562-0.77576-0.2029-1.3737 0.87778-0.774 1.2562zm12.083 63.284c0.14288-0.12447 3.416-0.89181 2.1978 0.67921 0.014-0.018-0.3429-0.64791-0.33972-0.64935-0.0124 4e-3 -1.9191 1.5771-1.1991 0.44501-0.0649 0.10253-0.57044 0.75655-0.21167 1.158 0.49035 0.54826 2.068-1.8401 2.1643-0.55257 0.13687 1.8394-5.1915 1.1778-2.6116-1.0803zm-0.36018 16.88c0.0854-1.0832 1.6619 0.3119 0 0zm3.919-28.83c-0.0458 0.66877-1.9572 0.87275-2.4942 0.31586 0.9624-0.54682 1.65-0.16764 2.4942-0.31586zm-3.4727-48.975h-3.575c1.0908-0.60941 2.8317-1.5243 3.8418-2.043 0.48752-0.25038 2.166-0.95981 2.1544-0.9652 0.56198 0.23635-0.82444 1.6628-2.4211 3.0082zm-6.5314 3.3284c-0.22048-0.31586 1.3293-2.2333 2.0242-2.7711 0.12311-0.09497 0.46955-0.29895 0.93205-0.55725h3.575c-1.172 0.98823-2.4571 1.9326-3.169 2.3304-0.60923 0.34212-3.0886 1.3901-3.3623 0.99794zm4.7343 35.587c3e-3 -0.0014 0.0677 3.074 1.741 1.7631-0.84314 2.0092-3.4318-1.039-1.741-1.7631zm-10.429-12.88c0.46108-0.463 2.9982-1.3109 3.193-1.3224 0.46778-0.02842 2.244 0.62021 2.527 0.91808 1.003 1.058 0.13898 0.98463 0.21272 1.9685 0.0628 0.83282 0.72919 0.48386 0.51046 0.97456-0.0953 0.21333-1.7247 1.7606-2.0472 1.9491-2.1329 1.249-5.365-0.15829-4.9999-2.9075 0.078-0.58279 0.5588 0.05073 0.86995-0.68244 0.13264-0.31226-0.56409-0.59826-0.26599-0.89793zm10.502 12.632c0.88016-0.55042 3.194-0.33385 2.2832 0.84217 0.0974-1.5296-1.7226-0.07339-2.2832-0.84217zm0.97401-21.177c0.0214 0.0061 0.14465-0.10073 0.15947-0.08634 0.91297 0.88246-1.5812-0.35363-0.15947 0.08634zm-3.2484-19.086c0.13087-0.030215 0.38418 0.18203 0.41381 0.4004 0.0119 0.085976-1.6235-0.11872-0.41381-0.4004zm-0.35914 68.81c0.0843-0.74216 1.0615-0.68136 1.3582-0.53063 1.3296 0.67597-1.5286 2.029-1.3582 0.53063zm-46.489-67.274c-1.5699-1.8516 1.4975-5.1699 3.3084-3.0543 0.83185 0.97204 0.17251 2.3823-0.83749 3.1151h-2.4123c-0.0198-0.020864-0.0399-0.038853-0.0586-0.060798zm0.0586 0.060798h2.4123c-0.76906 0.55833-1.7403 0.72093-2.4123 0zm11.62-7.0482c0.0243 0.00685 0.37712 0.074831 0.32879 0.23743-0.30516 1.0238-1.3586-0.55689-0.32879-0.23743zm-0.70027 1.0069c0.34361 0.25075 2.1893-0.83749 0.93345-1.3426-0.9151-0.36802-1.5861 0.86232-0.93345 1.3426zm-3.6318 12.197c0.84349 0.25578-0.21167 1.3102-0.69991 1.0066-0.49495-0.3083-0.24554-1.2933 0.69991-1.0066zm-4.4743 4.7314c-2e-3 0.90621-1.3882 1.3829-1.9614 2.1114 0.0317-0.83713 1.4958-1.8498 1.9614-2.1114zm5.2282 11.543c0.16898-0.5666 0.8502-0.37737 1.1243-0.19534 0.82585 0.5461-1.4785 1.3843-1.1243 0.19534zm-3.3524 1.4091c-0.35031-0.33852 0.32243-0.71626 0.71049-0.59574 0.51823 0.16045-0.47308 0.8249-0.71049 0.59574zm-15.223 7.2493c0.53129 0.48566-0.18697 1.752-0.93274 1.3422-0.75741-0.41551-0.0677-2.2578 0.93274-1.3422zm-1.112-29.844c-0.48789-0.15109-0.13476-0.9411 0.29704-0.99578 0.69497-0.088138 0.16827 1.1404-0.29704 0.99578zm11.539 6.0193c-0.2928-1.3674 1.8454-0.70547 0 0zm-2.7873-10.786c0.64171-0.093532-0.067 1.1674-0.46672 0.67201-0.21131-0.26334-0.14958-0.58279 0.46672-0.67201zm0.23354-0.33564c-0.36724-0.11332-1.2107 0.074474-1.2732 0.69359-0.20214 1.9869 2.9319-0.17951 1.2732-0.69359zm0.31786-0.17304c0.48577-1.0947 1.0576 0.51084 0 0zm0.0843 15.387c1.0654 0.33025-1.8016 0.93175-0.15946 0.087057 0.0229-0.011512 0.13653-0.093175 0.15946-0.087057zm13.783-0.6256c0.20108 0.25902-0.73907 0.7749-0.72108 0.18455 0.47272 0.10648 0.24906-0.29068 0.72108-0.18455zm0.6477 0.064398c-0.77541-1.031-2.2835-0.032734-1.676 0.70475 0.29669 0.36047 2.3432 0.18383 1.676-0.70475zm10.605 7.3622c-0.71861-1.1951 1.4104-2.57 2.3763-1.7117 1.4651 1.303-1.6732 2.8809-2.3763 1.7117zm-3.3087 3.0535c-0.34996 0.31586-1.2333 0.75475-0.51894 1.7426-1.124 0.0205-0.37782-1.961 0.51894-1.7426zm4.2199-5.2181c-0.18133-0.05649-0.51471-0.58675 0.22295-0.74756 0.72038-0.15613 0.0575 0.83462-0.22295 0.74756zm-4.3466 6.5384c-0.2293-0.07015-0.17639-0.52919-0.0956-0.5738 0.30727-0.16728 0.59055 0.72705 0.0956 0.5738zm3.8795-24.22c-0.26882-0.39752-0.012-1.0911 0.78422-0.84433 1.0093 0.31226-0.39899 1.4163-0.78422 0.84433zm-4.6835 27.37c-1.4034-0.118 0.53023-1.3318 0 0zm-8.9524 6.3359c0.13723-0.30507 0.64065-0.20937 0.72178-0.18491 0.68298 0.21153-1.0393 0.89541-0.72178 0.18491zm0.79622-0.43386c-0.71085-0.39968-1.3458 0.32161-0.94368 0.93175 0.42898 0.65114 1.8905-0.39716 0.94368-0.93175zm-1.5145-11.48c-1.3974-1.9534 1.4309-4.3767 3.2244-3.2161 2.7531 1.7836-1.7508 5.2764-3.2244 3.2161zm1.2506 13.709c-0.0543-0.4263 0.41381-0.41191 0.72143-0.18384 0.49213 0.36443-0.63888 0.83714-0.72143 0.18384zm4.6387-13.789c-0.52141 0.9724 0.78916 1.5681 0.76482 1.4602 0.28892 1.3023-0.52246 2.3628-1.5261 3.3338 0.0399-0.03777-0.60572 0.89613-0.22154 0.7472-1.9145 0.74432-4.789-2.1351-3.1757-4.1101 1.276-1.5627 2.4405-0.06655 4.1586-1.4311zm13.135 29.759c0.9712 1.5332-1.433 3.201-2.6726 2.7071-2.5809-1.0303 0.7747-5.6984 2.6726-2.7071zm-4.5431 14.363c0.80292-0.12951 0.18168 0.50976 0.90241 0.55185 1.4827 0.0849 0.63782-0.21117 1.6344 0.77777 0.47449 0.46983 1.4383 0.27665 1.7089 0.52883 0.0684 0.0644 1.1882 2.4999 1.1896 2.2714-4e-3 0.44393-0.9772 0.55689-0.95462 0.51984-0.18062 0.29283 0.31115 1.7991-0.33831 2.4787-0.15346 0.16189-0.66252-0.24823-0.73202-0.22664-0.98636 0.30507-1.8891 1.9538-3.1715 2.1445-0.46708 0.07015-2.5975-0.35435-2.9189-0.49573-1.1292-0.49609-2.7982-2.5528-2.5382-4.4569 0.0251-0.18563 0.49213-0.01367 0.56233-0.09785 0.24871-0.29248 0.41522-1.6142 0.51858-1.7419 0.66781-0.82274 3.3782-2.1308 4.1374-2.2538zm-1.4908-7.5299c1.4034-0.90404 4.5738-0.80044 5.9034 0.42198-0.34748-0.25218-0.21025 0.63244 0.3676 1.2012-0.03 4e-3 -0.0526 8.1e-4 -0.0945 0.01726 0.6858 1.5638-0.16263 1.7872-2.0027 3.5935-0.23953 0.236-0.4064 0.67165-0.62547 0.75835-2.9012 1.1458-7.0753-3.7205-3.5482-5.9923zm-0.85795 19.445c-0.22614-0.60186 0.39193-0.36478 0.63711-0.3468 0.69427 0.05037-0.62159 0.38817-0.63711 0.3468zm-0.0628 0.65942c1.1395 0.26046 1.3296-0.97995 1.2615-1.1033-0.883-1.6325-2.4754 0.82742-1.2615 1.1033zm-42.253-47.475c0.89359 0.27664-0.42933 1.1483-0.62477 0.75799-0.16898-0.33672 0.40676-0.82562 0.62477-0.75799zm49.604 29.132c0.0974 0.07519 0.2032 0.14174 0.32032 0.19247-0.43356 0.35543-0.30692 0.02301-0.32032-0.19247zm-60.168-38.396-1e-3 8.1e-4c-3e-3 0.0029-5e-3 0.0054-8e-3 0.0079 5e-3 -0.0047 7e-3 -0.0065 0.01-0.0087zm60.168 38.396c-0.0565-0.04316-0.10901-0.08922-0.15875-0.13814 0.11218-0.01403 0.1531 0.0464 0.15875 0.13814zm-3.9254 47.136c0.0342 0.60904-1.0012 0.11116-1.0287 0.76949 0.21096 0.6328 0.95215-0.51407 1.1356 0.21549-1.8937 1.5034-1.7604-1.7023-0.10689-0.98498zm-8.1495-48.743c-0.73378-0.51372-0.64241-0.13742-0.88053 0.27089-0.86819-0.9724 1.2467-1.3109 0.88053-0.27089zm-34.364-39.051c-0.22049 1.3476-1.4954 0.572 0 0zm2.3103-7.3065c0.27904-0.98175-0.47026-0.58171-0.99907-1.1242 0.6611-0.68892 1.8729 0.69072 0.99907 1.1242zm-1.8687-0.44213c0.30092 1.7847 2.4194 1.6599 2.8332 0.33385 0.51012-1.6315-3.448-2.0865-2.1015-0.10649-0.40111-0.30902-0.78987-0.572-0.73166-0.22736zm48.426 42.862c0.83256 0.31802-1.0403 0.67921-0.78493 0.84433-0.65264-0.42198 0.0423-1.1278 0.78493-0.84433zm0.23284-0.336c-0.79904-0.56193-2.1738 0.47019-1.7396 1.3652 0.60925 1.2555 2.9242-0.53099 1.7396-1.3652zm-16.237 29.909c-0.21731-1.4505 1.6686 0.03994 0 0zm2.0348 12.865c-0.13335-0.86231 1.5413-1.6797 2.2387-0.80223 1.0598 1.3332-1.9159 2.8935-2.2387 0.80223zm-0.58032 5.5297c0.68297 0.11944-0.0691 0.76122-0.30692 0.58459-0.40252-0.29895 0.0374-0.63208 0.30692-0.58459zm1.8997-16.676c-0.81951 1.248 0.0776 3.0079 0.4385 4.3494 0.0759 0.28564-0.31644 0.51337-0.22296 0.74684 0.21167 0.53207 1.0901 0.35507 0.76482 1.4606 0.0374-0.12772-1.331 1.6246-1.0918 1.4286-1.1751 0.95909-4.1056 1.5627-5.3273-0.01764-0.92392-1.1972 0.0649-1.9121-0.24553-3.2039-0.14358-0.59287-1.0382-1.0325-1.2644-2.0221-0.23036-1.0044 0.74789-3.368 1.8334-3.918 0.8188-0.41479 2.8557 0.15362 2.7488 0.17088 0.39159-0.0644 0.33267-0.4058 0.55069-0.50904 0.93768-0.43889 5.1082-0.61229 5.5612-0.31766 0.67451 0.44105-3.0424 0.76122-3.7454 1.8322zm-23.43 39.864c-0.0272 0.0165-0.0469 0.0306-0.0483 0.0371 0.0254-0.13779 0.0409-0.1306 0.0483-0.0371zm26.63-31.805c0.34996-0.21225 1.0287 0.36407 1.3794 0.2914 0.72496-0.1511 0.31009-0.64395 1.136 0.21441 0.76729 0.80044 0.0864 1.1462 0.10583 0.98534-5e-3 0.04313 0.22578 1.176 0.11818 1.3962-1.3698 2.8039-5.2222-1.3875-2.7393-2.8873zm-5.2169 7.2212c-0.21061-0.3378 0.5267-0.38205 0.71085-0.59609 0.20002 0.42234-0.39229 0.70654-0.71085 0.59609zm5.7848 2.0624c0.63853 0.22593-0.83785 0.80584-1.113 0.60618-0.2473-0.17628 0.63923-0.77346 1.113-0.60618zm-1.6873 0.2932c-1.5498 1.4404-2.0916-0.5551 0 0zm-36.794 13.427c0.13617-0.0773 0.29387-0.18059 0.45861-0.28636 0.0215 0.1601-0.0677 0.29825-0.34925 0.37774-0.0409 0.0115-0.0769-0.0288-0.10936-0.0914zm0 0c-0.41134 0.23312-0.61771 0.21478-0.15663-0.80654-0.0166 0.0356 0.0427 0.58638 0.15663 0.80654zm31.01-33.843c-0.20885-0.17736 0.0624-0.52379 0.39158-0.42199 0.69003 0.21405-0.21414 0.57344-0.39158 0.42199zm-35.178 30.842c0.24624 0.0766 0.13299 0.72093-0.30798 0.58459-0.44062-0.13707-0.32314-0.77958 0.30798-0.58459zm0.2547 0.48638c1.0188-0.14138 0.68369 0.98031 0 0zm36.13-49.714c-0.46461 1.0256-1.2146 0.01977 0 0zm-1.113 0.60654c0.43569 0.76123 1.9138-0.37594 1.1878-0.85584-0.5073-0.336-1.5335 0.25038-1.1878 0.85584zm-16.272 25.548c-0.85231-1.1785 0.97966-3.4903 2.4504-1.9599 1.676 1.7441-1.506 3.2651-2.4504 1.9599zm3.6072-12.014c-0.0123 0.01834-0.073 0.0644-0.20849 0.15254 0.0833-0.05433 0.14923-0.10433 0.20849-0.15254 0.0519-0.07555-0.72919 0.33672-0.68509 0.41227-0.67945-1.1839 1.7237-1.2559 0.68509-0.41227zm-0.43003 0.89973c1.0453 0.15074 1.185-1.1857 0.84772-1.5055-1.3219-1.2487-2.2444 1.3041-0.84772 1.5055zm-1.4863 17.076c-0.0229-0.54898 3.6625-0.33637 4.2143 0.62453-0.27658 0.0041-4.1769 0.24282-4.2143-0.62453zm-3.5892-4.5098c0.93063 0.21585-0.80362 0.90765-0.56197 0.09749-0.0293 0.09892 0.51788-0.10829 0.56197-0.09749zm-29.17-83.8c-0.37677-0.19534 0.41628-1.4764 1.1017-1.0177 0.70449 0.47055-0.75953 1.1976-1.1017 1.0177zm33.847 62.274c0.01-0.43494 0.42968-0.40903 0.63676-0.3468 0.93804 0.28024-0.6604 1.3613-0.63676 0.3468zm29.275 14.502c-0.0536 0.11332 0.52387 0.43062 0.0212 0.82275-0.77823 0.60546-1.3691 0.12663-2.334 0.22772-0.22684 0.02447-0.66181 0.50868-0.55175 0.50976-0.91722-0.0072-3.7708-0.65726-4.3413-2.4315-0.21943-0.68352-0.22931-2.8118-0.23495-2.7924 0.14041-0.41479 0.53164 0.21513 0.8068-0.02159 0.27764-0.23995-0.30198-0.5076-0.18097-0.73569 0.17709-0.33636 2.3167-1.5958 3.1817-1.7333 1.2467-0.19858 4.1197 0.75511 4.4676 1.1113 0.1965 0.20038 0.8001 3.3255 0.58737 3.8515-0.11183 0.27413-1.215 0.7526-1.4217 1.1915zm-30.735-8.7016c0.68474 0.21225 0.13441 0.8893-0.13829 0.90944-1.0689 0.07591-0.21378-1.0181 0.13829-0.90944zm0.14781 17.855c-0.39828 2.1628-2.4543 1.7692 0 0zm-32.729-74.979c1.851 1.7977-3.248 1.4678-1.136-0.21549 0.17745-0.14066 0.75565-0.15289 1.136 0.21549zm39.112 47.727c-0.26882 0.12483-0.34854-0.41155-0.096-0.57344 0.34467-0.2216 0.26141 0.49645 0.096 0.57344zm-41.589-52.843c-0.31855-0.95333 1.252-0.46695 0 0zm45.616 46.478c-0.39017-0.84649 1.4658-2.1027 1.8881-1.8628 1.3984 0.79432-1.0033 3.7802-1.8881 1.8628zm-44.512-47.496c0.0109-0.037411 0.27587-0.16009 0.3182-0.1734 0.9211-0.28348-0.57714 1.0425-0.3182 0.1734zm28.312 51.315c1.5995 1.1091-1.989 1.9308-1.4432 0.36946 0.24482-0.69971 0.93239-0.72273 1.4432-0.36946zm11.045 14.839c0.54645 0.44753-0.15664 1.5876-0.9331 1.3422-0.84138-0.26549-0.23319-2.2977 0.9331-1.3422zm-37.354-69.749c0.012-0.037415 0.27729-0.16045 0.31891-0.17376 0.92111-0.28312-0.57714 1.044-0.31891 0.17376zm42.989 53.957c0.85407-0.48494 1.8881-0.27053 2.4303 0.34428 0.79234 0.89973 0.0162 2.7283-1.7808 2.847-0.63571 0.04281-2.4497-0.71338-2.5975-1.0523 0.16333 0.16548 1.6379-1.9628 1.948-2.1391zm-12.691-0.80332c0.70238 0.90261-2.0119 2.234-2.2394 0.80224-0.1584-1.0051 1.5078-1.739 2.2394-0.80224zm23.789 14.571c0.69427 0.05037-0.62159 0.38817-0.63711 0.3468-0.22614-0.60186 0.39193-0.36478 0.63711-0.3468zm-15.513 51.204c-0.0861 0.29247-0.71861 0.1752-0.64629-0.0644 0.0864-0.29176 0.7179-0.17484 0.64629 0.0644zm-11.801 37.353c1.2305 0.0744 0.72955 1.7552 0 0zm11.12 31.619c0.11183-0.80476 1.4355-0.70042 0.7366 0.79109 6e-3 -0.15002-0.65793-1.2329-0.7366-0.79109zm-10.693 66.038c-0.46637-0.30143-0.24307-0.74676 0.19332-0.87336 0.0307 0.16537 0.0949 0.32122 0.17427 0.3877 0.0829 0.0702 0.15029 0.11159 0.20779 0.13563-0.32526 0.14472-0.69885 0.2702-0.57538 0.35003zm8.9087-56.783c0.0113-0.0367 0.27657-0.16044 0.31855-0.17339 0.92075-0.28313-0.57714 1.0429-0.31855 0.17339zm-23.272 66.067c-0.46461 1.0253-1.2143 0.0195 0 0zm-7.9696-96.051c0.53939 0.96447-0.97473 0.49536 0 0zm8.5295-4.0202c-0.16122 0.14031-0.14288-0.0443-0.24483-0.0759-1.1723-0.36335 0.9973-0.58423 0.24483 0.0759zm-4.8098 13.464c-0.39722-0.1216 0.0614-0.66085 0.30763-0.58424 0.25047 0.0785 0.1658 0.73065-0.30763 0.58424zm5.2998 1.1534c-0.139-1.0379 1.1426-0.64143 0 0zm-3.2403 15.661c-0.635-0.5943 1.0463-0.56947 0.48719 0.15218-0.0893 0.11512-0.41698-0.0849-0.48719-0.15218zm-2.5742 17.747c0.47308 0.10684 0.24871-0.29068 0.72073-0.18455 0.20143 0.25902-0.73907 0.77488-0.72073 0.18455zm-1.2181 21.102c0.13723-0.30506 0.64064-0.20901 0.72178-0.18454 0.68298 0.21117-1.0393 0.89541-0.72178 0.18454zm-8.0035 45.237c0.0836-0.0543 0.14923-0.10468 0.20849-0.15304-0.0127 0.0183-0.073 0.0648-0.20849 0.15304zm10.038-84.301c0.0243 7e-3 0.37712 0.0745 0.32843 0.23707-0.3048 1.0242-1.3582-0.55689-0.32843-0.23707zm4.4231 36.93c0.46885 0.15326 1.0555 1.4984 1.0195 1.947-0.46743-0.15433-1.0555-1.4987-1.0195-1.947zm31.471 56.971c0.0123 5e-3 0.15522-0.0932 0.15875-0.0867 0.68227 1.231-2.0429-0.49718-0.15875 0.0867zm15.01-174.53c0.0116-0.0381 0.27657-0.15973 0.31785-0.17305 0.92146-0.28383-0.57679 1.0422-0.31785 0.17305zm-24.236-0.9796c0.29916 0.32234 0.37853 1.2224-0.37147 1.2447-1.0093 0.0309-0.81703-2.5179 0.37147-1.2447zm-7.5502 141.87c0.0194-0.0992 4e-3 -0.23988-0.0293-0.38195 2e-3 9.6e-4 5e-3 9.6e-4 7e-3 2e-3 0.32702 0.12479 0.23636 0.25617 0.0226 0.37986zm-3.2819-80.019c1.2118-0.32593 0.89147 0.74683 0 0zm-20.634 25.422c-0.49742 0.13095-0.39652-1.0742 0.13723-0.90873 0.47307 0.14607-0.387 0.97492-0.13723 0.90873zm-5.7175 78.897c-0.67945-1.1839 1.724-1.2554 0.68509-0.4123 0.0522-0.0755-0.72919 0.33686-0.68509 0.4123zm19.27-109.64c0.39934-0.11009 0.56797 0.42486-0.22296 0.74683-0.71472 0.2914 0.26035-0.75727 0.22296-0.74683zm1.2608 107.84c0.69497 0.0505-0.62124 0.38856-0.63676 0.34725-0.22578-0.60189 0.39193-0.36525 0.63676-0.34725zm15.128-206.71c0.0833-0.05433 0.14923-0.10433 0.20849-0.15254-0.0123 0.01834-0.073 0.0644-0.20849 0.15254zm-28.121-68.521c0.0663-0.24931 0.20708-0.51156 0.56198-0.098213 0.73589 0.85548-0.69956 0.61337-0.56198 0.098213zm-11.442 120.71c-0.79516-0.2716-1.741-0.67885-2.4557-0.74432 0.0141-4e-3 0.0279-0.01 0.0423-0.012-0.0829 0.0173 1.9438 0.19498 1.9417 0.1939 0.30198 0.0932 0.37606 0.3486 0.47167 0.56229zm32.611-4.9544c-0.22754-0.12015-0.44944-0.23168-0.66393-0.34176 0.55527-0.49681 0.60255-1.4314 1.2584-0.47235 8e-3 0.0126-0.44238 0.21945-0.58879 0.3101-7e-3 -0.0935-0.0229-0.10075-0.0483 0.0371 1e-3 -6e-3 0.0212-0.0205 0.0483-0.0371 7e-3 0.0953 5e-3 0.28277-6e-3 0.50401zm-31.885 5.1617c0.16475-0.12987 0.46708-0.36082 0.76765-0.59106 0.0953 0.17267 0.12029 0.33204-0.0494 0.50436-0.13899 0.14138-0.39476 0.15002-0.71826 0.0867zm33.894-132.5c-0.21131-0.26334-0.14958-0.58279 0.46672-0.67201 0.64171-0.093532-0.067 1.1674-0.46672 0.67201zm14.981-4.1979c0.0243 0.00685 0.37712 0.074832 0.32879 0.23743-0.30516 1.0238-1.3586-0.55689-0.32879-0.23743zm-19.096 7.2734c0.1965-0.034172 0.53764 0.69611 0.26529 0.89793-0.46567 0.3468-0.88829-0.79001-0.26529-0.89793zm-0.88265-2.8564c0.4244-0.50113 0.73061 0.21297 0.81739 0.38925 0.59443 1.2124-1.4891 0.40436-0.81739-0.38925zm-172.49 303.73c-0.0473 0.17408-0.11465 0.34215-0.20003 0.49786h-2.5784c-0.0893-0.15358-0.37501-0.25435-0.39229-0.26504-0.60748-0.39654-0.50623-0.0375-0.24836 0.26504h-2.2084c0.0155-0.16073 0.06-0.33303 0.10195-0.49786zm-11.589 0c0.046 0.16974 0.10351 0.33671 0.17696 0.49786h-7.294c-0.14965-0.13558-0.30166-0.32011-0.45035-0.49786zm166.68-165.15c-0.22014-0.92167 1.2986-0.4522 0 0zm-7.778-14.229c-1.0326-1.2008 0.75001-0.99974 1.4058-0.44321-0.47978 0.16153-0.95356 0.38962-1.4058 0.44321zm9.3056 14.022c0.0547 1.7369-1.4637 0.85583 0 0zm-12.357-126.04c0.0272-0.021945 0.0561-0.045328 0.0854-0.067998 0.45756-0.076981 0.93734 0.80656 0.2346 0.7159-0.31856-0.041372-0.26176-0.5148-0.31997-0.64791zm7.2732 7.0165c-0.73907 0.73496 1.2866-1.2803 0 0zm30.419 60.804c-0.67945-1.1839 1.7237-1.2559 0.68509-0.41227 0.0519-0.07555-0.72919 0.33672-0.68509 0.41227zm37.735-80.619c0.0113-0.036687 0.27623-0.16045 0.31856-0.17304 0.92075-0.28348-0.57715 1.0429-0.31856 0.17304zm-83.37 131.32v-1.194c0.29316 0.0288 0.5334 0.0597 0.70697 0.20578 0.47554 0.40005 0.73342 1.1084 0.99906 1.6577-0.0109 0.49106 0.0589 1.1034-0.39793 1.2016-1.0883 0.2342-0.84631-1.157-1.3081-1.871zm75.246-75.377c0.83256 0.31802-1.0403 0.67921-0.78493 0.84433-0.65264-0.42198 0.0423-1.1278 0.78493-0.84433zm-19.913-41.918c0.47272 0.10648 0.24906-0.29068 0.72108-0.18455 0.20108 0.25902-0.73907 0.7749-0.72108 0.18455zm-55.334-5.539v-2.1067c0.52317 0.17448 1.0396 0.3083 1.083 0.90836 0.0205 0.26801-0.61313 0.79073-1.083 1.1983zm14.153 108.47c0.0116-0.0374 0.27658-0.16008 0.31856-0.17339 0.9204-0.28384-0.57785 1.044-0.31856 0.17339zm-13.233 110.08c-0.29633 0.24102-0.60572 0.48709-0.91969 0.73712v-1.1602c0.30939 0.13166 0.62301 0.27988 0.91969 0.42307zm53.196-191.91c0.13723-0.30507 0.64065-0.20938 0.72178-0.18491 0.68298 0.21153-1.0393 0.89541-0.72178 0.18491zm-30.402 80.171c0.24624 0.0766 0.13299 0.72093-0.30798 0.58459-0.44062-0.13707-0.32314-0.77958 0.30798-0.58459zm0.2547 0.48638c1.0188-0.14138 0.68369 0.98031 0 0zm-0.20779 1.0872c0.0183-0.0543 0.0395-0.11117 0.0702-0.17736 0.0631-0.13671 0.3175-0.40651 0.47801-0.26046 0.24342 0.22089 0.13688 0.49825-0.0494 0.6828 0.4438 0.21693 0.79199 0.38709 0.92357 0.46335 2.4994 1.4426 4.772 3.882 7.5212 5.8416 0.34537 0.24643 0.82126 0.45508 1.2824 0.65942 0.13405-0.0899 0.28151-0.22485 0.43885-0.43674 0.5969-0.80079-0.20955-1.5984 0.24236-3.051 0.18591-0.59862 0.52458-0.87563 0.75177-1.067-0.1771-0.0669-0.35525-0.13599-0.53622-0.20541-0.89077 0.44716-2.5093 0.89828-2.1272-0.81555 2e-3 -7e-3 0.0226-0.026 0.0416-0.0443-0.49283-0.22268-0.96343-0.45437-1.3829-0.69469-0.0243 0.0198-0.043 0.0345-0.049 0.0371-0.24941 0.0935-1.8926-0.39249-2.5037-0.096-0.16758 0.0812-0.34749 0.19354-0.52106 0.30506 0.0215 0.1601-0.0677 0.29824-0.34925 0.37774-0.0409 0.0115-0.0769-0.0288-0.10936-0.0914-0.41134 0.23312-0.61771 0.21477-0.15663-0.80655-0.0166 0.0356 0.0427 0.58639 0.15663 0.80655 0.13617-0.0773 0.29387-0.18059 0.45861-0.28636-0.066-0.48889-1.1751-1.1875-1.1141-1.0828-0.26317-0.45651-0.41734-0.89613-0.48613-1.312-0.0205-2e-3 -0.0406-7e-3 -0.061-0.01-1.6492-0.20974-5.9284-1.607-5.8356-0.48386 0.0236 0.29032 1.6485 1.122 2.9164 1.7473zm8.5683-12.071c0.42404-0.6623-0.53234 0.83209 0 0zm27.77-38.73c-0.46461 1.0256-1.2146 0.01977 0 0zm-32.408-53.672c0.6611-0.68892 1.8729 0.69072 0.99907 1.1242 0.27904-0.98175-0.47026-0.58171-0.99907-1.1242zm66.312 102.78c0.49141 0.44752-0.71826 0.58781-0.80751 0.0227-0.066-0.42595 0.50131-0.30039 0.80751-0.0227zm-1.9586-25.212c0.0124 5e-3 0.15595-0.09282 0.15912-0.08634 0.68263 1.2311-2.0433-0.49717-0.15912 0.08634zm-78.13-82.782c0.74013 0.22988-0.17569 1.4163-0.62654 0.75835-0.34748-0.50581 0.11184-0.91664 0.62654-0.75835zm3.8964 3.9256c0.32738-0.15649 0.85796-0.13598 1.2199 0.37809 1.7212 2.4416-4.3074 1.1037-1.2199-0.37809zm8.442-7.3094c0.0109-0.037058 0.27552-0.16045 0.31821-0.1734 0.92075-0.28384-0.57785 1.0429-0.31821 0.1734zm-14.607 6.0797c-0.37677-0.19534 0.41628-1.4764 1.1017-1.0177 0.70449 0.47055-0.75953 1.1976-1.1017 1.0177zm0.43462 1.2228c0.012-0.037415 0.27729-0.16045 0.31891-0.17376 0.92111-0.28312-0.57714 1.044-0.31891 0.17376zm-1.7656 9.5128c0.17745-0.14066 0.75565-0.15289 1.136 0.21549 1.851 1.7977-3.248 1.4678-1.136-0.21549zm-0.23706-5.9186c0.0109-0.037411 0.27587-0.16009 0.3182-0.1734 0.9211-0.28348-0.57714 1.0425-0.3182 0.1734zm-1.1038 1.0181c-0.31855-0.95333 1.252-0.46695 0 0" fill="#eee"/>
</svg>
