<svg width="101.58mm" height="67.054mm" version="1.1" viewBox="0 0 101.58 67.054" xmlns="http://www.w3.org/2000/svg">
 <defs>
  <clipPath id="clipPath686">
   <path d="m74.114 112.89h190.07v287.95h-190.07z"/>
  </clipPath>
 </defs>
 <g transform="translate(-38.497 -108.05)">
  <g transform="matrix(0 .35278 .35278 0 -1.3262 81.901)">
   <g clip-path="url(#clipPath686)">
    <g transform="translate(240.76 390.09)">
     <path d="m0 0c-0.53 0.42-0.619 1.19-0.199 1.72s1.19 0.619 1.72 0.199 0.619-1.19 0.199-1.72-1.19-0.619-1.72-0.199"/>
    </g>
    <g transform="translate(234.57 382.27)">
     <path d="m0 0c-0.53 0.42-0.619 1.19-0.199 1.72s1.19 0.619 1.72 0.199c0.53-0.419 0.619-1.19 0.199-1.719-0.42-0.531-1.19-0.619-1.72-0.2"/>
    </g>
    <g transform="translate(228.38 374.46)">
     <path d="m0 0c-0.53 0.42-0.619 1.19-0.199 1.72s1.19 0.619 1.72 0.199c0.529-0.419 0.619-1.19 0.199-1.72s-1.19-0.619-1.72-0.199"/>
    </g>
    <g transform="translate(222.19 366.65)">
     <path d="m0 0c-0.53 0.42-0.619 1.189-0.199 1.72 0.42 0.53 1.19 0.619 1.72 0.199 0.529-0.42 0.619-1.19 0.199-1.72s-1.19-0.619-1.72-0.199"/>
    </g>
    <g transform="translate(216 358.83)">
     <path d="m0 0c-0.53 0.42-0.619 1.19-0.199 1.72s1.19 0.619 1.72 0.199c0.529-0.419 0.619-1.19 0.199-1.719-0.42-0.531-1.19-0.62-1.72-0.2"/>
    </g>
    <g transform="translate(209.8 351.02)">
     <path d="m0 0c-0.53 0.42-0.619 1.19-0.199 1.72s1.189 0.619 1.72 0.199c0.529-0.42 0.619-1.19 0.199-1.72s-1.19-0.619-1.72-0.199"/>
    </g>
    <g transform="translate(203.61 343.2)">
     <path d="M 0,0 C -0.53,0.42 -0.619,1.19 -0.199,1.72 0.22,2.25 0.99,2.339 1.521,1.919 2.05,1.5 2.14,0.729 1.72,0.2 1.3,-0.331 0.53,-0.419 0,0"/>
    </g>
    <g transform="translate(197.42 335.39)">
     <path d="m0 0c-0.53 0.42-0.619 1.19-0.2 1.72 0.42 0.53 1.19 0.619 1.721 0.199 0.529-0.419 0.619-1.19 0.199-1.72s-1.19-0.619-1.72-0.199"/>
    </g>
    <g transform="translate(233.22 396.06)">
     <path d="m0 0c-0.53 0.42-0.62 1.19-0.2 1.72s1.19 0.619 1.72 0.199c0.53-0.419 0.62-1.19 0.2-1.72s-1.19-0.619-1.72-0.199"/>
    </g>
    <g transform="translate(227.03 388.25)">
     <path d="m0 0c-0.53 0.42-0.619 1.19-0.199 1.72s1.19 0.619 1.72 0.199 0.619-1.19 0.199-1.72-1.19-0.619-1.72-0.199"/>
    </g>
    <g transform="translate(220.84 380.43)">
     <path d="m0 0c-0.53 0.42-0.619 1.19-0.199 1.72s1.19 0.619 1.72 0.199c0.53-0.419 0.619-1.19 0.199-1.719-0.42-0.531-1.19-0.62-1.72-0.2"/>
    </g>
    <g transform="translate(214.65 372.62)">
     <path d="m0 0c-0.53 0.42-0.619 1.19-0.199 1.72s1.19 0.619 1.72 0.199c0.529-0.42 0.619-1.19 0.199-1.72s-1.19-0.619-1.72-0.199"/>
    </g>
    <g transform="translate(208.46 364.81)">
     <path d="m0 0c-0.53 0.419-0.619 1.189-0.199 1.72 0.42 0.53 1.19 0.619 1.72 0.199 0.529-0.42 0.619-1.19 0.199-1.72s-1.19-0.619-1.72-0.199"/>
    </g>
    <g transform="translate(202.27 356.99)">
     <path d="m0 0c-0.53 0.42-0.619 1.19-0.199 1.72s1.19 0.619 1.72 0.199c0.529-0.419 0.619-1.19 0.199-1.72s-1.19-0.619-1.72-0.199"/>
    </g>
    <g transform="translate(196.07 349.18)">
     <path d="m0 0c-0.53 0.42-0.619 1.19-0.199 1.72s1.189 0.619 1.72 0.199c0.529-0.42 0.619-1.19 0.199-1.72s-1.19-0.619-1.72-0.199"/>
    </g>
    <g transform="translate(189.88 341.36)">
     <path d="M 0,0 C -0.53,0.42 -0.619,1.19 -0.199,1.72 0.22,2.25 0.99,2.339 1.521,1.919 2.05,1.5 2.14,0.729 1.72,0.2 1.3,-0.331 0.53,-0.42 0,0"/>
    </g>
    <g transform="translate(219.49 394.22)">
     <path d="m0 0c-0.53 0.42-0.619 1.19-0.199 1.72s1.19 0.619 1.72 0.199c0.53-0.419 0.619-1.19 0.199-1.72s-1.19-0.619-1.72-0.199"/>
    </g>
    <g transform="translate(213.3 386.41)">
     <path d="m0 0c-0.53 0.419-0.619 1.189-0.199 1.72 0.42 0.53 1.19 0.619 1.72 0.199s0.619-1.19 0.199-1.72-1.19-0.619-1.72-0.199"/>
    </g>
    <g transform="translate(207.11 378.59)">
     <path d="m0 0c-0.53 0.42-0.619 1.19-0.199 1.72s1.19 0.619 1.72 0.199c0.53-0.419 0.619-1.19 0.199-1.72s-1.19-0.619-1.72-0.199"/>
    </g>
    <g transform="translate(200.92 370.78)">
     <path d="m0 0c-0.53 0.42-0.619 1.19-0.199 1.72s1.19 0.619 1.72 0.199c0.529-0.42 0.619-1.19 0.199-1.72s-1.19-0.619-1.72-0.199"/>
    </g>
    <g transform="translate(194.73 362.96)">
     <path d="m0 0c-0.53 0.42-0.619 1.19-0.199 1.72s1.19 0.619 1.72 0.199c0.529-0.419 0.619-1.19 0.199-1.719-0.42-0.531-1.19-0.62-1.72-0.2"/>
    </g>
    <g transform="translate(188.54 355.15)">
     <path d="m0 0c-0.53 0.42-0.619 1.19-0.199 1.72s1.19 0.619 1.72 0.199c0.529-0.419 0.619-1.19 0.199-1.72s-1.19-0.619-1.72-0.199"/>
    </g>
    <g transform="translate(182.34 347.34)">
     <path d="m0 0c-0.53 0.419-0.619 1.189-0.199 1.72 0.42 0.53 1.189 0.619 1.72 0.199 0.529-0.42 0.619-1.19 0.199-1.72s-1.19-0.619-1.72-0.199"/>
    </g>
    <g transform="translate(211.95 400.19)">
     <path d="m0 0c-0.53 0.42-0.62 1.19-0.2 1.72s1.19 0.619 1.721 0.199c0.529-0.419 0.619-1.19 0.199-1.72s-1.19-0.619-1.72-0.199"/>
    </g>
    <g transform="translate(205.76 392.38)">
     <path d="m0 0c-0.53 0.42-0.619 1.19-0.199 1.72s1.19 0.619 1.72 0.199 0.619-1.19 0.199-1.72-1.19-0.619-1.72-0.199"/>
    </g>
    <g transform="translate(199.57 384.57)">
     <path d="m0 0c-0.53 0.42-0.619 1.19-0.199 1.72s1.19 0.619 1.72 0.199c0.53-0.419 0.619-1.19 0.199-1.719-0.42-0.531-1.19-0.619-1.72-0.2"/>
    </g>
    <g transform="translate(193.38 376.75)">
     <path d="m0 0c-0.53 0.42-0.619 1.19-0.199 1.72s1.19 0.619 1.72 0.199c0.53-0.419 0.619-1.19 0.199-1.72s-1.19-0.619-1.72-0.199"/>
    </g>
    <g transform="translate(187.19 368.94)">
     <path d="m0 0c-0.53 0.42-0.619 1.189-0.199 1.72 0.42 0.53 1.19 0.619 1.72 0.199 0.529-0.42 0.619-1.19 0.199-1.72s-1.19-0.619-1.72-0.199"/>
    </g>
    <g transform="translate(181 361.12)">
     <path d="m0 0c-0.53 0.42-0.619 1.19-0.199 1.72s1.19 0.619 1.72 0.199c0.529-0.419 0.619-1.19 0.199-1.72s-1.19-0.619-1.72-0.199"/>
    </g>
    <g transform="translate(174.81 353.31)">
     <path d="m0 0c-0.53 0.42-0.619 1.19-0.199 1.72s1.19 0.619 1.72 0.199c0.529-0.42 0.619-1.19 0.199-1.72s-1.19-0.619-1.72-0.199"/>
    </g>
    <g transform="translate(198.22 398.35)">
     <path d="m0 0c-0.53 0.42-0.62 1.19-0.2 1.72s1.19 0.619 1.72 0.199c0.53-0.419 0.62-1.19 0.2-1.72s-1.19-0.619-1.72-0.199"/>
    </g>
    <g transform="translate(192.03 390.54)">
     <path d="m0 0c-0.53 0.42-0.619 1.19-0.199 1.72s1.19 0.619 1.72 0.199 0.619-1.19 0.199-1.72-1.19-0.619-1.72-0.199"/>
    </g>
    <g transform="translate(185.84 382.73)">
     <path d="m0 0c-0.53 0.42-0.619 1.19-0.199 1.72s1.19 0.619 1.72 0.199c0.53-0.419 0.619-1.19 0.199-1.719-0.42-0.531-1.19-0.62-1.72-0.2"/>
    </g>
    <g transform="translate(179.65 374.91)">
     <path d="m0 0c-0.53 0.42-0.619 1.19-0.199 1.72s1.19 0.619 1.72 0.199 0.619-1.19 0.199-1.72-1.19-0.619-1.72-0.199"/>
    </g>
    <g transform="translate(173.46 367.1)">
     <path d="m0 0c-0.53 0.42-0.619 1.19-0.199 1.72s1.19 0.619 1.72 0.199c0.529-0.419 0.619-1.19 0.199-1.719-0.42-0.531-1.19-0.619-1.72-0.2"/>
    </g>
    <g transform="translate(167.27 359.28)">
     <path d="m0 0c-0.53 0.42-0.619 1.19-0.199 1.72s1.19 0.619 1.72 0.199c0.529-0.419 0.619-1.19 0.199-1.72s-1.19-0.619-1.72-0.199"/>
    </g>
    <g transform="translate(184.49 396.51)">
     <path d="m0 0c-0.53 0.42-0.62 1.19-0.2 1.72s1.19 0.619 1.72 0.199 0.62-1.19 0.2-1.72-1.19-0.619-1.72-0.199"/>
    </g>
    <g transform="translate(178.3 388.7)">
     <path d="m0 0c-0.53 0.419-0.619 1.189-0.199 1.72 0.42 0.53 1.19 0.619 1.72 0.199s0.619-1.19 0.199-1.72-1.19-0.619-1.72-0.199"/>
    </g>
    <g transform="translate(172.11 380.88)">
     <path d="m0 0c-0.53 0.42-0.619 1.19-0.199 1.72s1.19 0.619 1.72 0.199c0.53-0.419 0.619-1.19 0.199-1.72s-1.19-0.619-1.72-0.199"/>
    </g>
    <g transform="translate(165.92 373.07)">
     <path d="m0 0c-0.53 0.42-0.619 1.19-0.199 1.72s1.19 0.619 1.72 0.199 0.619-1.19 0.199-1.72-1.19-0.619-1.72-0.199"/>
    </g>
    <g transform="translate(159.73 365.26)">
     <path d="m0 0c-0.53 0.42-0.619 1.19-0.199 1.72s1.19 0.619 1.72 0.199c0.529-0.419 0.619-1.19 0.199-1.719-0.42-0.531-1.19-0.62-1.72-0.2"/>
    </g>
    <g transform="translate(170.76 394.67)">
     <path d="m0 0c-0.53 0.42-0.62 1.19-0.2 1.72s1.19 0.619 1.72 0.199 0.62-1.19 0.2-1.72-1.19-0.619-1.72-0.199"/>
    </g>
    <g transform="translate(164.57 386.86)">
     <path d="m0 0c-0.53 0.42-0.619 1.19-0.199 1.72s1.19 0.619 1.72 0.199c0.53-0.419 0.619-1.19 0.199-1.719-0.42-0.531-1.19-0.619-1.72-0.2"/>
    </g>
    <g transform="translate(158.38 379.04)">
     <path d="m0 0c-0.53 0.42-0.619 1.19-0.199 1.72s1.19 0.619 1.72 0.199c0.53-0.419 0.619-1.19 0.199-1.72s-1.19-0.619-1.72-0.199"/>
    </g>
    <g transform="translate(152.19 371.23)">
     <path d="m0 0c-0.53 0.419-0.619 1.189-0.199 1.72 0.42 0.53 1.19 0.619 1.72 0.199s0.619-1.19 0.199-1.72-1.19-0.619-1.72-0.199"/>
    </g>
    <g transform="translate(95.746 343.71)">
     <path d="m0 0c-0.675-0.025-1.244 0.503-1.269 1.178-0.024 0.676 0.503 1.244 1.179 1.269 0.675 0.025 1.243-0.503 1.268-1.178 0.025-0.676-0.502-1.244-1.178-1.269"/>
    </g>
    <g transform="translate(96.114 333.75)">
     <path d="m0 0c-0.675-0.025-1.244 0.502-1.269 1.178-0.024 0.676 0.503 1.244 1.179 1.269 0.675 0.025 1.243-0.503 1.268-1.178 0.025-0.676-0.502-1.244-1.178-1.269"/>
    </g>
    <g transform="translate(96.482 323.79)">
     <path d="m0 0c-0.676-0.025-1.244 0.502-1.269 1.178-0.024 0.676 0.503 1.244 1.179 1.269 0.675 0.025 1.243-0.503 1.268-1.178 0.025-0.676-0.502-1.244-1.178-1.269"/>
    </g>
    <g transform="translate(96.851 313.83)">
     <path d="m0 0c-0.676-0.025-1.244 0.502-1.269 1.178-0.024 0.676 0.503 1.244 1.179 1.269 0.675 0.025 1.243-0.503 1.268-1.178 0.025-0.676-0.502-1.244-1.178-1.269"/>
    </g>
    <g transform="translate(97.219 303.87)">
     <path d="m0 0c-0.676-0.025-1.244 0.502-1.269 1.178-0.024 0.676 0.503 1.244 1.179 1.269 0.675 0.025 1.243-0.503 1.268-1.178 0.025-0.676-0.502-1.244-1.178-1.269"/>
    </g>
    <g transform="translate(97.587 293.9)">
     <path d="m0 0c-0.676-0.025-1.244 0.502-1.269 1.178-0.024 0.676 0.503 1.244 1.179 1.269 0.675 0.025 1.243-0.503 1.268-1.178 0.025-0.676-0.502-1.244-1.178-1.269"/>
    </g>
    <g transform="translate(97.955 283.94)">
     <path d="m0 0c-0.676-0.025-1.244 0.502-1.269 1.178-0.024 0.676 0.503 1.244 1.179 1.269 0.675 0.025 1.243-0.503 1.268-1.178 0.025-0.676-0.502-1.244-1.178-1.269"/>
    </g>
    <g transform="translate(98.323 273.98)">
     <path d="m0 0c-0.676-0.025-1.244 0.502-1.269 1.178-0.024 0.676 0.503 1.244 1.179 1.269 0.675 0.025 1.243-0.503 1.268-1.178 0.025-0.676-0.502-1.244-1.178-1.269"/>
    </g>
    <g transform="translate(86.134 343.36)">
     <path d="m0 0c-0.676-0.025-1.244 0.502-1.269 1.178-0.024 0.676 0.503 1.244 1.179 1.269 0.675 0.025 1.243-0.503 1.268-1.178 0.025-0.676-0.502-1.244-1.178-1.269"/>
    </g>
    <g transform="translate(86.502 333.4)">
     <path d="m0 0c-0.676-0.025-1.244 0.502-1.269 1.178-0.024 0.676 0.503 1.244 1.179 1.269 0.675 0.025 1.243-0.503 1.268-1.178 0.025-0.676-0.502-1.244-1.178-1.269"/>
    </g>
    <g transform="translate(86.87 323.44)">
     <path d="m0 0c-0.676-0.025-1.244 0.502-1.269 1.178-0.024 0.676 0.503 1.244 1.179 1.269 0.675 0.025 1.243-0.503 1.268-1.178 0.025-0.676-0.502-1.244-1.178-1.269"/>
    </g>
    <g transform="translate(87.238 313.47)">
     <path d="m0 0c-0.676-0.025-1.244 0.502-1.269 1.178-0.024 0.676 0.503 1.244 1.179 1.269 0.675 0.025 1.243-0.503 1.268-1.178 0.025-0.676-0.502-1.244-1.178-1.269"/>
    </g>
    <g transform="translate(87.606 303.51)">
     <path d="m0 0c-0.676-0.025-1.244 0.502-1.269 1.178-0.024 0.676 0.503 1.244 1.179 1.269 0.675 0.025 1.243-0.503 1.268-1.178 0.025-0.676-0.502-1.244-1.178-1.269"/>
    </g>
    <g transform="translate(87.975 293.55)">
     <path d="m0 0c-0.676-0.025-1.244 0.502-1.269 1.178-0.024 0.676 0.503 1.244 1.179 1.269 0.675 0.025 1.243-0.503 1.268-1.178 0.025-0.676-0.502-1.244-1.178-1.269"/>
    </g>
    <g transform="translate(88.343 283.59)">
     <path d="m0 0c-0.676-0.025-1.244 0.502-1.269 1.178-0.024 0.676 0.503 1.244 1.179 1.269 0.675 0.025 1.243-0.503 1.268-1.178 0.025-0.676-0.502-1.244-1.178-1.269"/>
    </g>
    <g transform="translate(88.711 273.63)">
     <path d="m0 0c-0.676-0.025-1.244 0.502-1.269 1.178s0.503 1.244 1.178 1.269c0.676 0.025 1.244-0.503 1.269-1.178 0.025-0.676-0.503-1.244-1.178-1.269"/>
    </g>
    <g transform="translate(76.522 343)">
     <path d="m0 0c-0.676-0.025-1.244 0.503-1.269 1.178-0.024 0.676 0.503 1.244 1.179 1.269 0.675 0.025 1.243-0.503 1.268-1.178 0.025-0.676-0.502-1.244-1.178-1.269"/>
    </g>
    <g transform="translate(76.89 333.04)">
     <path d="m0 0c-0.676-0.025-1.244 0.503-1.269 1.178-0.024 0.676 0.503 1.244 1.179 1.269 0.675 0.025 1.243-0.503 1.268-1.178 0.025-0.676-0.502-1.244-1.178-1.269"/>
    </g>
    <g transform="translate(77.258 323.08)">
     <path d="m0 0c-0.676-0.025-1.244 0.503-1.269 1.178-0.024 0.676 0.503 1.244 1.179 1.269 0.675 0.025 1.243-0.503 1.268-1.178 0.025-0.676-0.502-1.244-1.178-1.269"/>
    </g>
    <g transform="translate(77.626 313.12)">
     <path d="m0 0c-0.676-0.025-1.244 0.503-1.269 1.178-0.024 0.676 0.503 1.244 1.179 1.269 0.675 0.025 1.243-0.503 1.268-1.178 0.025-0.676-0.502-1.244-1.178-1.269"/>
    </g>
    <g transform="translate(77.994 303.16)">
     <path d="m0 0c-0.676-0.025-1.244 0.502-1.269 1.178-0.024 0.676 0.503 1.244 1.179 1.269 0.675 0.025 1.243-0.503 1.268-1.178 0.025-0.676-0.502-1.244-1.178-1.269"/>
    </g>
    <g transform="translate(78.362 293.19)">
     <path d="m0 0c-0.676-0.025-1.244 0.502-1.269 1.178s0.503 1.244 1.178 1.269c0.676 0.025 1.244-0.503 1.269-1.178 0.025-0.676-0.503-1.244-1.178-1.269"/>
    </g>
    <g transform="translate(78.73 283.23)">
     <path d="m0 0c-0.676-0.025-1.244 0.502-1.269 1.178s0.503 1.244 1.178 1.269c0.676 0.025 1.244-0.503 1.269-1.178 0.025-0.676-0.503-1.244-1.178-1.269"/>
    </g>
    <g transform="translate(79.099 273.27)">
     <path d="m0 0c-0.676-0.025-1.244 0.502-1.269 1.178s0.503 1.244 1.178 1.269c0.676 0.025 1.244-0.503 1.269-1.178 0.025-0.676-0.503-1.244-1.178-1.269"/>
    </g>
    <g transform="translate(66.909 342.65)">
     <path d="m0 0c-0.676-0.025-1.244 0.502-1.269 1.178-0.024 0.676 0.503 1.244 1.179 1.269 0.675 0.025 1.243-0.503 1.268-1.178 0.025-0.676-0.502-1.244-1.178-1.269"/>
    </g>
    <g transform="translate(67.277 332.69)">
     <path d="m0 0c-0.676-0.025-1.244 0.502-1.269 1.178-0.024 0.676 0.503 1.244 1.179 1.269 0.675 0.025 1.243-0.503 1.268-1.178 0.025-0.676-0.502-1.244-1.178-1.269"/>
    </g>
    <g transform="translate(67.646 322.72)">
     <path d="m0 0c-0.676-0.025-1.244 0.502-1.269 1.178-0.024 0.676 0.503 1.244 1.179 1.269 0.675 0.025 1.243-0.503 1.268-1.178 0.025-0.676-0.502-1.244-1.178-1.269"/>
    </g>
    <g transform="translate(68.014 312.76)">
     <path d="m0 0c-0.676-0.025-1.244 0.502-1.269 1.178s0.503 1.244 1.178 1.269c0.676 0.025 1.244-0.503 1.269-1.178 0.025-0.676-0.503-1.244-1.178-1.269"/>
    </g>
    <g transform="translate(68.382 302.8)">
     <path d="m0 0c-0.676-0.025-1.244 0.502-1.269 1.178s0.503 1.244 1.178 1.269c0.676 0.025 1.244-0.503 1.269-1.178 0.025-0.676-0.503-1.244-1.178-1.269"/>
    </g>
    <g transform="translate(68.75 292.84)">
     <path d="m0 0c-0.676-0.025-1.244 0.502-1.269 1.178s0.503 1.244 1.178 1.269c0.676 0.025 1.244-0.503 1.269-1.178 0.025-0.676-0.503-1.244-1.178-1.269"/>
    </g>
    <g transform="translate(69.118 282.88)">
     <path d="m0 0c-0.675-0.025-1.244 0.502-1.269 1.178-0.024 0.676 0.503 1.244 1.179 1.269 0.675 0.025 1.243-0.503 1.268-1.178 0.025-0.676-0.502-1.244-1.178-1.269"/>
    </g>
    <g transform="translate(69.486 272.92)">
     <path d="m0 0c-0.675-0.025-1.244 0.502-1.269 1.178-0.024 0.676 0.503 1.244 1.179 1.269 0.675 0.025 1.243-0.503 1.268-1.178 0.025-0.676-0.502-1.244-1.178-1.269"/>
    </g>
    <g transform="translate(57.297 342.29)">
     <path d="m0 0c-0.676-0.025-1.244 0.503-1.269 1.178-0.024 0.676 0.503 1.244 1.179 1.269 0.675 0.025 1.243-0.503 1.268-1.178 0.025-0.676-0.503-1.244-1.178-1.269"/>
    </g>
    <g transform="translate(57.665 332.33)">
     <path d="m0 0c-0.676-0.025-1.244 0.503-1.269 1.178-0.025 0.676 0.503 1.244 1.178 1.269 0.676 0.025 1.244-0.503 1.269-1.178 0.025-0.676-0.503-1.244-1.178-1.269"/>
    </g>
    <g transform="translate(58.033 322.37)">
     <path d="m0 0c-0.676-0.025-1.244 0.503-1.269 1.178-0.025 0.676 0.503 1.244 1.178 1.269 0.676 0.025 1.244-0.503 1.269-1.178 0.025-0.676-0.503-1.244-1.178-1.269"/>
    </g>
    <g transform="translate(58.401 312.41)">
     <path d="m0 0c-0.675-0.025-1.243 0.503-1.269 1.178-0.024 0.676 0.503 1.244 1.179 1.269 0.675 0.025 1.243-0.503 1.268-1.178 0.026-0.676-0.502-1.244-1.178-1.269"/>
    </g>
    <g transform="translate(58.769 302.45)">
     <path d="m0 0c-0.675-0.025-1.244 0.503-1.269 1.178-0.024 0.676 0.503 1.244 1.179 1.269 0.675 0.025 1.243-0.503 1.268-1.178 0.025-0.676-0.502-1.244-1.178-1.269"/>
    </g>
    <g transform="translate(59.137 292.48)">
     <path d="m0 0c-0.675-0.025-1.244 0.503-1.269 1.178-0.024 0.676 0.503 1.244 1.179 1.269 0.675 0.025 1.243-0.503 1.268-1.178 0.025-0.676-0.502-1.244-1.178-1.269"/>
    </g>
    <g transform="translate(59.505 282.52)">
     <path d="m0 0c-0.676-0.025-1.244 0.503-1.269 1.178-0.024 0.676 0.503 1.244 1.179 1.269 0.675 0.025 1.243-0.503 1.268-1.178 0.025-0.676-0.502-1.244-1.178-1.269"/>
    </g>
    <g transform="translate(59.874 272.56)">
     <path d="m0 0c-0.676-0.025-1.244 0.502-1.269 1.178-0.024 0.676 0.503 1.244 1.179 1.269 0.675 0.025 1.243-0.503 1.268-1.178 0.025-0.676-0.502-1.244-1.178-1.269"/>
    </g>
    <g transform="translate(47.685 341.94)">
     <path d="m0 0c-0.676-0.025-1.244 0.502-1.269 1.178s0.503 1.244 1.178 1.269c0.676 0.025 1.244-0.503 1.269-1.178 0.025-0.676-0.503-1.244-1.178-1.269"/>
    </g>
    <g transform="translate(48.052 331.98)">
     <path d="m0 0c-0.675-0.025-1.243 0.502-1.269 1.178-0.024 0.676 0.503 1.244 1.179 1.269 0.675 0.025 1.243-0.503 1.268-1.178 0.026-0.676-0.502-1.244-1.178-1.269"/>
    </g>
    <g transform="translate(48.42 322.01)">
     <path d="m0 0c-0.675-0.025-1.244 0.502-1.269 1.178-0.024 0.676 0.503 1.244 1.179 1.269 0.675 0.025 1.243-0.503 1.268-1.178 0.025-0.676-0.502-1.244-1.178-1.269"/>
    </g>
    <g transform="translate(48.789 312.05)">
     <path d="m0 0c-0.675-0.025-1.244 0.502-1.269 1.178-0.024 0.676 0.503 1.244 1.179 1.269 0.675 0.025 1.243-0.503 1.268-1.178 0.025-0.676-0.502-1.244-1.178-1.269"/>
    </g>
    <g transform="translate(49.157 302.09)">
     <path d="m0 0c-0.676-0.025-1.244 0.502-1.269 1.178-0.024 0.676 0.503 1.244 1.179 1.269 0.675 0.025 1.243-0.503 1.268-1.178 0.025-0.676-0.502-1.244-1.178-1.269"/>
    </g>
    <g transform="translate(49.525 292.13)">
     <path d="m0 0c-0.676-0.025-1.244 0.502-1.269 1.178-0.024 0.676 0.503 1.244 1.179 1.269 0.675 0.025 1.243-0.503 1.268-1.178 0.025-0.676-0.502-1.244-1.178-1.269"/>
    </g>
    <g transform="translate(49.893 282.17)">
     <path d="m0 0c-0.676-0.025-1.244 0.502-1.269 1.178-0.024 0.676 0.503 1.244 1.179 1.269 0.675 0.025 1.243-0.503 1.268-1.178 0.025-0.676-0.502-1.244-1.178-1.269"/>
    </g>
    <g transform="translate(50.261 272.2)">
     <path d="m0 0c-0.676-0.025-1.244 0.502-1.269 1.178-0.024 0.676 0.503 1.244 1.179 1.269 0.675 0.025 1.243-0.503 1.268-1.178 0.025-0.676-0.502-1.244-1.178-1.269"/>
    </g>
    <g transform="translate(38.072 341.58)">
     <path d="m0 0c-0.675-0.025-1.244 0.502-1.269 1.178-0.024 0.676 0.503 1.243 1.179 1.269 0.675 0.025 1.243-0.503 1.268-1.178 0.025-0.676-0.502-1.244-1.178-1.269"/>
    </g>
    <g transform="translate(38.44 331.62)">
     <path d="m0 0c-0.675-0.025-1.244 0.502-1.269 1.178-0.024 0.676 0.503 1.243 1.179 1.269 0.675 0.025 1.243-0.503 1.268-1.178 0.025-0.676-0.502-1.244-1.178-1.269"/>
    </g>
    <g transform="translate(38.808 321.66)">
     <path d="m0 0c-0.676-0.025-1.244 0.502-1.269 1.178-0.024 0.676 0.503 1.243 1.179 1.269 0.675 0.025 1.243-0.503 1.268-1.178 0.025-0.676-0.502-1.244-1.178-1.269"/>
    </g>
    <g transform="translate(39.176 311.7)">
     <path d="m0 0c-0.676-0.025-1.244 0.503-1.269 1.178-0.024 0.676 0.503 1.244 1.179 1.269 0.675 0.025 1.243-0.503 1.268-1.178 0.025-0.676-0.502-1.244-1.178-1.269"/>
    </g>
    <g transform="translate(39.544 301.73)">
     <path d="m0 0c-0.676-0.025-1.244 0.503-1.269 1.178-0.024 0.676 0.503 1.244 1.179 1.269 0.675 0.025 1.243-0.503 1.268-1.178 0.025-0.676-0.502-1.244-1.178-1.269"/>
    </g>
    <g transform="translate(39.913 291.77)">
     <path d="m0 0c-0.676-0.025-1.244 0.503-1.269 1.178-0.024 0.676 0.503 1.244 1.179 1.269 0.675 0.025 1.243-0.503 1.268-1.178 0.025-0.676-0.502-1.244-1.178-1.269"/>
    </g>
    <g transform="translate(40.281 281.81)">
     <path d="m0 0c-0.676-0.025-1.244 0.503-1.269 1.178-0.024 0.676 0.503 1.244 1.179 1.269 0.675 0.025 1.243-0.503 1.268-1.178 0.025-0.676-0.502-1.244-1.178-1.269"/>
    </g>
    <g transform="translate(40.649 271.85)">
     <path d="m0 0c-0.676-0.025-1.244 0.503-1.269 1.178-0.024 0.676 0.503 1.244 1.179 1.269 0.675 0.025 1.243-0.503 1.268-1.178 0.025-0.676-0.502-1.244-1.178-1.269"/>
    </g>
    <g transform="translate(324.27 215.31)">
     <path d="m0 0c-0.28 0.615-9e-3 1.341 0.606 1.621 0.616 0.28 1.342 9e-3 1.622-0.606 0.28-0.616 9e-3 -1.342-0.607-1.622-0.615-0.281-1.341-8e-3 -1.621 0.607"/>
    </g>
    <g transform="translate(315.2 211.18)">
     <path d="m0 0c-0.28 0.615-9e-3 1.341 0.606 1.621 0.616 0.28 1.342 9e-3 1.622-0.606 0.28-0.616 9e-3 -1.342-0.606-1.622-0.616-0.281-1.342-8e-3 -1.622 0.607"/>
    </g>
    <g transform="translate(306.12 207.04)">
     <path d="m0 0c-0.28 0.615-8e-3 1.341 0.607 1.621s1.341 9e-3 1.622-0.606c0.28-0.616 8e-3 -1.342-0.607-1.622-0.616-0.281-1.342-9e-3 -1.622 0.607"/>
    </g>
    <g transform="translate(297.05 202.91)">
     <path d="m0 0c-0.28 0.616-9e-3 1.342 0.606 1.622 0.616 0.28 1.342 9e-3 1.622-0.606 0.28-0.616 9e-3 -1.342-0.607-1.622-0.615-0.281-1.341-9e-3 -1.621 0.606"/>
    </g>
    <g transform="translate(287.98 198.78)">
     <path d="m0 0c-0.28 0.616-9e-3 1.342 0.606 1.622 0.616 0.28 1.342 9e-3 1.622-0.606 0.28-0.616 9e-3 -1.342-0.606-1.622-0.616-0.281-1.342-9e-3 -1.622 0.606"/>
    </g>
    <g transform="translate(278.91 194.65)">
     <path d="m0 0c-0.28 0.615-8e-3 1.342 0.607 1.622s1.341 9e-3 1.622-0.606c0.28-0.617 8e-3 -1.342-0.607-1.622-0.616-0.281-1.342-9e-3 -1.622 0.606"/>
    </g>
    <g transform="translate(269.84 190.52)">
     <path d="m0 0c-0.28 0.615-9e-3 1.342 0.606 1.622 0.616 0.28 1.342 9e-3 1.622-0.606 0.28-0.617 9e-3 -1.342-0.606-1.622-0.616-0.281-1.342-9e-3 -1.622 0.606"/>
    </g>
    <g transform="translate(260.76 186.38)">
     <path d="m0 0c-0.28 0.615-9e-3 1.342 0.606 1.622 0.616 0.28 1.342 9e-3 1.622-0.607s9e-3 -1.341-0.606-1.621c-0.616-0.281-1.342-9e-3 -1.622 0.606"/>
    </g>
    <g transform="translate(320.28 224.06)">
     <path d="m0 0c-0.28 0.615-8e-3 1.341 0.607 1.621s1.341 9e-3 1.622-0.606c0.28-0.616 8e-3 -1.342-0.607-1.622-0.616-0.281-1.342-9e-3 -1.622 0.607"/>
    </g>
    <g transform="translate(311.21 219.93)">
     <path d="m0 0c-0.28 0.616-9e-3 1.342 0.606 1.622 0.616 0.28 1.342 9e-3 1.622-0.606 0.28-0.616 9e-3 -1.342-0.606-1.622-0.616-0.281-1.342-9e-3 -1.622 0.606"/>
    </g>
    <g transform="translate(302.14 215.8)">
     <path d="m0 0c-0.28 0.616-9e-3 1.342 0.606 1.622 0.616 0.28 1.342 9e-3 1.622-0.606 0.28-0.616 9e-3 -1.342-0.606-1.622-0.616-0.281-1.342-9e-3 -1.622 0.606"/>
    </g>
    <g transform="translate(293.07 211.66)">
     <path d="m0 0c-0.28 0.615-8e-3 1.342 0.607 1.622s1.341 9e-3 1.622-0.606c0.28-0.617 8e-3 -1.342-0.607-1.622-0.616-0.281-1.342-9e-3 -1.622 0.606"/>
    </g>
    <g transform="translate(283.99 207.53)">
     <path d="m0 0c-0.28 0.615-9e-3 1.342 0.606 1.622 0.616 0.28 1.342 9e-3 1.622-0.606 0.28-0.617 9e-3 -1.342-0.606-1.622-0.616-0.281-1.342-9e-3 -1.622 0.606"/>
    </g>
    <g transform="translate(274.92 203.4)">
     <path d="m0 0c-0.28 0.615-9e-3 1.342 0.607 1.622 0.615 0.28 1.341 9e-3 1.621-0.607s9e-3 -1.341-0.606-1.621c-0.616-0.281-1.342-9e-3 -1.622 0.606"/>
    </g>
    <g transform="translate(265.85 199.27)">
     <path d="m0 0c-0.28 0.615-8e-3 1.342 0.607 1.622s1.341 8e-3 1.622-0.607c0.28-0.616 8e-3 -1.341-0.607-1.621-0.616-0.281-1.342-9e-3 -1.622 0.606"/>
    </g>
    <g transform="translate(256.78 195.14)">
     <path d="m0 0c-0.28 0.615-9e-3 1.342 0.606 1.622 0.616 0.28 1.342 8e-3 1.622-0.607 0.28-0.616 9e-3 -1.341-0.606-1.621-0.616-0.281-1.342-9e-3 -1.622 0.606"/>
    </g>
    <g transform="translate(316.29 232.81)">
     <path d="m0 0c-0.28 0.616-9e-3 1.342 0.607 1.622 0.615 0.28 1.341 9e-3 1.622-0.606 0.279-0.616 8e-3 -1.342-0.607-1.622-0.616-0.281-1.342-9e-3 -1.622 0.606"/>
    </g>
    <g transform="translate(307.22 228.68)">
     <path d="m0 0c-0.28 0.615-8e-3 1.342 0.607 1.622s1.341 9e-3 1.622-0.606c0.28-0.617 8e-3 -1.342-0.607-1.622-0.616-0.281-1.342-9e-3 -1.622 0.606"/>
    </g>
    <g transform="translate(298.15 224.55)">
     <path d="m0 0c-0.28 0.615-9e-3 1.342 0.606 1.622 0.616 0.28 1.342 9e-3 1.622-0.606 0.28-0.617 9e-3 -1.342-0.606-1.622-0.616-0.281-1.342-9e-3 -1.622 0.606"/>
    </g>
    <g transform="translate(289.08 220.42)">
     <path d="m0 0c-0.28 0.615-9e-3 1.342 0.607 1.622 0.615 0.28 1.341 9e-3 1.622-0.607 0.279-0.616 8e-3 -1.341-0.607-1.621-0.616-0.281-1.342-9e-3 -1.622 0.606"/>
    </g>
    <g transform="translate(280.01 216.29)">
     <path d="m0 0c-0.28 0.615-8e-3 1.342 0.607 1.622s1.341 8e-3 1.622-0.607c0.28-0.616 8e-3 -1.341-0.607-1.621-0.616-0.281-1.342-9e-3 -1.622 0.606"/>
    </g>
    <g transform="translate(270.93 212.16)">
     <path d="m0 0c-0.28 0.615-9e-3 1.342 0.606 1.622 0.616 0.28 1.342 8e-3 1.622-0.607 0.28-0.616 9e-3 -1.341-0.606-1.621-0.616-0.281-1.342-9e-3 -1.622 0.606"/>
    </g>
    <g transform="translate(261.86 208.02)">
     <path d="m0 0c-0.28 0.615-8e-3 1.342 0.607 1.621 0.615 0.28 1.341 9e-3 1.622-0.606 0.28-0.616 8e-3 -1.341-0.607-1.621-0.616-0.281-1.342-9e-3 -1.622 0.606"/>
    </g>
    <g transform="translate(252.79 203.89)">
     <path d="m0 0c-0.28 0.615-9e-3 1.341 0.606 1.621 0.616 0.28 1.342 9e-3 1.622-0.606 0.28-0.616 9e-3 -1.341-0.607-1.621-0.615-0.281-1.341-9e-3 -1.621 0.606"/>
    </g>
    <g transform="translate(312.31 241.57)">
     <path d="m0 0c-0.28 0.615-9e-3 1.342 0.606 1.622 0.616 0.28 1.342 9e-3 1.622-0.606 0.28-0.617 9e-3 -1.342-0.606-1.622-0.616-0.281-1.342-9e-3 -1.622 0.606"/>
    </g>
    <g transform="translate(303.24 237.44)">
     <path d="m0 0c-0.28 0.615-8e-3 1.342 0.607 1.622s1.341 9e-3 1.622-0.607c0.28-0.616 8e-3 -1.341-0.607-1.621-0.616-0.281-1.342-9e-3 -1.622 0.606"/>
    </g>
    <g transform="translate(294.16 233.3)">
     <path d="m0 0c-0.28 0.615-9e-3 1.342 0.606 1.622 0.616 0.28 1.342 8e-3 1.622-0.607 0.28-0.616 9e-3 -1.341-0.607-1.621-0.615-0.281-1.341-9e-3 -1.621 0.606"/>
    </g>
    <g transform="translate(285.09 229.17)">
     <path d="m0 0c-0.28 0.615-9e-3 1.342 0.606 1.622 0.616 0.28 1.342 8e-3 1.622-0.607 0.28-0.616 9e-3 -1.341-0.606-1.621-0.616-0.281-1.342-9e-3 -1.622 0.606"/>
    </g>
    <g transform="translate(276.02 225.04)">
     <path d="m0 0c-0.28 0.615-8e-3 1.342 0.607 1.621 0.615 0.28 1.341 9e-3 1.622-0.606 0.28-0.616 8e-3 -1.341-0.607-1.621-0.616-0.281-1.342-9e-3 -1.622 0.606"/>
    </g>
    <g transform="translate(266.95 220.91)">
     <path d="m0 0c-0.28 0.615-9e-3 1.341 0.606 1.621 0.616 0.28 1.342 9e-3 1.622-0.606 0.28-0.616 9e-3 -1.341-0.606-1.621-0.616-0.281-1.342-9e-3 -1.622 0.606"/>
    </g>
    <g transform="translate(257.88 216.78)">
     <path d="m0 0c-0.28 0.615-9e-3 1.341 0.606 1.621 0.616 0.28 1.342 9e-3 1.622-0.606 0.28-0.616 9e-3 -1.341-0.606-1.621-0.616-0.281-1.342-9e-3 -1.622 0.606"/>
    </g>
    <g transform="translate(248.8 212.65)">
     <path d="m0 0c-0.28 0.615-8e-3 1.341 0.607 1.621s1.341 9e-3 1.622-0.606c0.28-0.616 8e-3 -1.341-0.607-1.621-0.616-0.281-1.342-9e-3 -1.622 0.606"/>
    </g>
    <g transform="translate(308.32 250.32)">
     <path d="m0 0c-0.28 0.615-9e-3 1.341 0.606 1.622 0.616 0.28 1.342 8e-3 1.622-0.607s9e-3 -1.341-0.606-1.621c-0.616-0.281-1.342-9e-3 -1.622 0.606"/>
    </g>
    <g transform="translate(299.25 246.19)">
     <path d="m0 0c-0.28 0.615-9e-3 1.342 0.607 1.622 0.615 0.28 1.341 8e-3 1.621-0.607 0.28-0.616 9e-3 -1.341-0.606-1.621-0.616-0.281-1.342-9e-3 -1.622 0.606"/>
    </g>
    <g transform="translate(290.18 242.06)">
     <path d="m0 0c-0.28 0.615-8e-3 1.342 0.607 1.621 0.615 0.28 1.341 9e-3 1.622-0.606 0.28-0.616 8e-3 -1.341-0.607-1.621-0.616-0.281-1.342-9e-3 -1.622 0.606"/>
    </g>
    <g transform="translate(281.1 237.93)">
     <path d="m0 0c-0.28 0.615-9e-3 1.341 0.606 1.621 0.616 0.28 1.342 9e-3 1.622-0.606 0.28-0.616 9e-3 -1.341-0.606-1.621-0.616-0.281-1.342-9e-3 -1.622 0.606"/>
    </g>
    <g transform="translate(272.03 233.79)">
     <path d="m0 0c-0.28 0.615-9e-3 1.341 0.607 1.621 0.615 0.28 1.341 9e-3 1.621-0.606 0.28-0.616 9e-3 -1.341-0.606-1.621-0.616-0.281-1.342-9e-3 -1.622 0.606"/>
    </g>
    <g transform="translate(262.96 229.66)">
     <path d="m0 0c-0.28 0.615-8e-3 1.341 0.607 1.621s1.341 9e-3 1.622-0.606c0.28-0.616 8e-3 -1.341-0.607-1.621-0.616-0.281-1.342-9e-3 -1.622 0.606"/>
    </g>
    <g transform="translate(253.89 225.53)">
     <path d="m0 0c-0.28 0.615-9e-3 1.341 0.606 1.621 0.616 0.28 1.342 9e-3 1.622-0.606 0.28-0.616 9e-3 -1.342-0.606-1.621-0.616-0.281-1.342-9e-3 -1.622 0.606"/>
    </g>
    <g transform="translate(244.82 221.4)">
     <path d="m0 0c-0.28 0.615-9e-3 1.341 0.607 1.621 0.615 0.28 1.341 9e-3 1.622-0.606 0.279-0.616 8e-3 -1.342-0.607-1.622-0.616-0.281-1.342-8e-3 -1.622 0.607"/>
    </g>
    <g transform="translate(304.33 259.08)">
     <path d="m0 0c-0.28 0.615-8e-3 1.341 0.607 1.622 0.615 0.28 1.341 8e-3 1.622-0.607 0.28-0.616 8e-3 -1.342-0.607-1.621-0.616-0.281-1.342-9e-3 -1.622 0.606"/>
    </g>
    <g transform="translate(295.26 254.94)">
     <path d="m0 0c-0.28 0.615-9e-3 1.341 0.606 1.622 0.616 0.28 1.342 8e-3 1.622-0.607 0.28-0.616 9e-3 -1.342-0.606-1.622-0.616-0.28-1.342-8e-3 -1.622 0.607"/>
    </g>
    <g transform="translate(286.19 250.81)">
     <path d="m0 0c-0.28 0.615-9e-3 1.341 0.607 1.622 0.615 0.28 1.341 8e-3 1.622-0.607 0.279-0.616 8e-3 -1.342-0.607-1.622-0.616-0.28-1.342-8e-3 -1.622 0.607"/>
    </g>
    <g transform="translate(277.12 246.68)">
     <path d="m0 0c-0.28 0.615-8e-3 1.341 0.607 1.621s1.341 9e-3 1.622-0.606c0.28-0.616 8e-3 -1.341-0.607-1.621-0.616-0.281-1.342-9e-3 -1.622 0.606"/>
    </g>
    <g transform="translate(268.05 242.55)">
     <path d="m0 0c-0.28 0.615-9e-3 1.341 0.606 1.621 0.616 0.28 1.342 9e-3 1.622-0.606 0.28-0.616 9e-3 -1.342-0.606-1.621-0.616-0.281-1.342-9e-3 -1.622 0.606"/>
    </g>
    <g transform="translate(258.97 238.42)">
     <path d="m0 0c-0.28 0.615-8e-3 1.341 0.607 1.621s1.341 9e-3 1.622-0.606c0.28-0.616 8e-3 -1.342-0.607-1.622-0.616-0.281-1.342-8e-3 -1.622 0.607"/>
    </g>
    <g transform="translate(249.9 234.29)">
     <path d="m0 0c-0.28 0.615-9e-3 1.341 0.606 1.621 0.616 0.28 1.342 9e-3 1.622-0.606 0.28-0.616 9e-3 -1.342-0.607-1.622-0.615-0.281-1.341-8e-3 -1.621 0.607"/>
    </g>
    <g transform="translate(240.83 230.15)">
     <path d="m0 0c-0.28 0.615-9e-3 1.341 0.606 1.621 0.616 0.28 1.342 9e-3 1.622-0.606 0.28-0.616 9e-3 -1.342-0.606-1.622-0.616-0.281-1.342-9e-3 -1.622 0.607"/>
    </g>
    <g transform="translate(300.35 267.83)">
     <path d="m0 0c-0.28 0.615-8e-3 1.341 0.607 1.622 0.615 0.28 1.341 8e-3 1.622-0.607 0.28-0.616 8e-3 -1.342-0.607-1.622-0.616-0.28-1.342-8e-3 -1.622 0.607"/>
    </g>
    <g transform="translate(291.28 263.7)">
     <path d="m0 0c-0.28 0.615-9e-3 1.341 0.606 1.622 0.616 0.28 1.342 8e-3 1.622-0.607 0.28-0.616 9e-3 -1.342-0.607-1.622-0.615-0.28-1.341-9e-3 -1.621 0.607"/>
    </g>
    <g transform="translate(282.2 259.57)">
     <path d="m0 0c-0.28 0.615-9e-3 1.341 0.606 1.621 0.616 0.28 1.342 9e-3 1.622-0.606 0.28-0.616 9e-3 -1.342-0.606-1.622-0.616-0.28-1.342-9e-3 -1.622 0.607"/>
    </g>
    <g transform="translate(273.13 255.43)">
     <path d="m0 0c-0.28 0.616-8e-3 1.341 0.607 1.622 0.615 0.28 1.341 8e-3 1.622-0.607 0.28-0.615 8e-3 -1.341-0.607-1.621-0.616-0.281-1.342-9e-3 -1.622 0.606"/>
    </g>
    <g transform="translate(264.06 251.3)">
     <path d="m0 0c-0.28 0.615-9e-3 1.341 0.606 1.622 0.616 0.28 1.342 8e-3 1.622-0.607s9e-3 -1.341-0.606-1.621c-0.616-0.281-1.342-9e-3 -1.622 0.606"/>
    </g>
    <g transform="translate(254.99 247.17)">
     <path d="m0 0c-0.28 0.615-9e-3 1.341 0.606 1.621 0.616 0.28 1.342 9e-3 1.622-0.606 0.28-0.616 9e-3 -1.342-0.606-1.622-0.616-0.281-1.342-9e-3 -1.622 0.607"/>
    </g>
    <g transform="translate(245.91 243.04)">
     <path d="m0 0c-0.28 0.616-8e-3 1.342 0.607 1.622s1.341 9e-3 1.622-0.606c0.28-0.616 8e-3 -1.342-0.607-1.622-0.616-0.281-1.342-9e-3 -1.622 0.606"/>
    </g>
    <g transform="translate(236.84 238.91)">
     <path d="m0 0c-0.28 0.616-9e-3 1.342 0.606 1.622 0.616 0.28 1.342 9e-3 1.622-0.606 0.28-0.616 9e-3 -1.342-0.606-1.622-0.616-0.281-1.342-9e-3 -1.622 0.606"/>
    </g>
    <g transform="translate(135.52 171.53)">
     <path d="m0 0c-0.456-0.785-1.461-1.053-2.246-0.598s-1.053 1.461-0.597 2.246c0.455 0.786 1.46 1.053 2.245 0.598 0.786-0.455 1.053-1.461 0.598-2.246"/>
    </g>
    <g transform="translate(147.1 164.82)">
     <path d="m0 0c-0.456-0.785-1.461-1.053-2.246-0.597-0.785 0.455-1.053 1.46-0.597 2.245 0.455 0.787 1.46 1.053 2.246 0.598 0.785-0.455 1.052-1.461 0.597-2.246"/>
    </g>
    <g transform="translate(158.67 158.1)">
     <path d="m0 0c-0.455-0.785-1.461-1.053-2.246-0.598s-1.053 1.461-0.597 2.246c0.455 0.786 1.46 1.053 2.246 0.598 0.785-0.456 1.052-1.461 0.597-2.246"/>
    </g>
    <g transform="translate(170.25 151.39)">
     <path d="m0 0c-0.455-0.785-1.461-1.053-2.246-0.598-0.785 0.456-1.053 1.461-0.597 2.246 0.455 0.786 1.461 1.053 2.246 0.598s1.052-1.461 0.597-2.246"/>
    </g>
    <g transform="translate(181.83 144.68)">
     <path d="m0 0c-0.455-0.785-1.461-1.053-2.246-0.597-0.785 0.455-1.053 1.461-0.597 2.246 0.455 0.786 1.461 1.053 2.246 0.597 0.785-0.455 1.052-1.461 0.597-2.246"/>
    </g>
    <g transform="translate(193.4 137.97)">
     <path d="m0 0c-0.455-0.785-1.461-1.053-2.246-0.598s-1.053 1.461-0.597 2.246c0.455 0.786 1.461 1.053 2.246 0.598s1.052-1.461 0.597-2.246"/>
    </g>
    <g transform="translate(204.98 131.25)">
     <path d="m0 0c-0.455-0.785-1.461-1.053-2.246-0.598-0.785 0.456-1.053 1.461-0.597 2.246 0.455 0.786 1.461 1.053 2.246 0.598s1.052-1.461 0.597-2.246"/>
    </g>
    <g transform="translate(216.56 124.54)">
     <path d="m0 0c-0.455-0.786-1.461-1.053-2.246-0.598s-1.053 1.461-0.597 2.246c0.455 0.786 1.461 1.053 2.246 0.597 0.785-0.455 1.052-1.46 0.597-2.245"/>
    </g>
    <g transform="translate(129.04 160.36)">
     <path d="m0 0c-0.455-0.785-1.461-1.053-2.246-0.597-0.785 0.455-1.053 1.461-0.597 2.246 0.455 0.786 1.461 1.052 2.246 0.597s1.052-1.461 0.597-2.246"/>
    </g>
    <g transform="translate(140.62 153.65)">
     <path d="m0 0c-0.455-0.785-1.461-1.053-2.246-0.598s-1.053 1.461-0.597 2.246c0.455 0.786 1.461 1.053 2.246 0.598 0.785-0.456 1.052-1.461 0.597-2.246"/>
    </g>
    <g transform="translate(152.2 146.93)">
     <path d="m0 0c-0.455-0.785-1.461-1.053-2.246-0.598-0.785 0.456-1.053 1.461-0.597 2.246 0.455 0.786 1.461 1.053 2.246 0.598s1.052-1.461 0.597-2.246"/>
    </g>
    <g transform="translate(163.77 140.22)">
     <path d="m0 0c-0.455-0.785-1.461-1.052-2.246-0.597s-1.053 1.461-0.597 2.246c0.455 0.786 1.461 1.053 2.246 0.597 0.785-0.455 1.052-1.461 0.597-2.246"/>
    </g>
    <g transform="translate(175.35 133.51)">
     <path d="m0 0c-0.455-0.785-1.461-1.053-2.246-0.598s-1.053 1.461-0.597 2.246c0.455 0.786 1.461 1.053 2.246 0.598s1.052-1.461 0.597-2.246"/>
    </g>
    <g transform="translate(186.93 126.79)">
     <path d="m0 0c-0.455-0.785-1.461-1.053-2.246-0.597-0.785 0.455-1.053 1.46-0.597 2.245 0.455 0.786 1.461 1.053 2.246 0.598s1.053-1.461 0.597-2.246"/>
    </g>
    <g transform="translate(198.5 120.08)">
     <path d="m0 0c-0.455-0.785-1.461-1.053-2.246-0.598s-1.053 1.461-0.597 2.246c0.455 0.786 1.461 1.053 2.246 0.598 0.785-0.456 1.053-1.461 0.597-2.246"/>
    </g>
    <g transform="translate(210.08 113.37)">
     <path d="m0 0c-0.455-0.785-1.461-1.053-2.246-0.598s-1.053 1.461-0.597 2.246c0.455 0.786 1.461 1.053 2.246 0.598s1.053-1.461 0.597-2.246"/>
    </g>
    <g transform="translate(122.57 149.19)">
     <path d="m0 0c-0.455-0.785-1.461-1.053-2.246-0.598s-1.053 1.461-0.597 2.246c0.455 0.786 1.461 1.053 2.246 0.598 0.785-0.456 1.052-1.461 0.597-2.246"/>
    </g>
    <g transform="translate(134.14 142.47)">
     <path d="m0 0c-0.455-0.785-1.461-1.053-2.246-0.598-0.785 0.456-1.053 1.461-0.597 2.246 0.455 0.786 1.461 1.053 2.246 0.598s1.053-1.461 0.597-2.246"/>
    </g>
    <g transform="translate(145.72 135.76)">
     <path d="m0 0c-0.455-0.785-1.461-1.052-2.246-0.597s-1.053 1.461-0.597 2.246c0.455 0.786 1.461 1.053 2.246 0.597 0.785-0.455 1.053-1.46 0.597-2.246"/>
    </g>
    <g transform="translate(157.3 129.05)">
     <path d="m0 0c-0.455-0.785-1.461-1.053-2.246-0.598s-1.052 1.461-0.597 2.246c0.455 0.786 1.461 1.053 2.246 0.598s1.053-1.461 0.597-2.246"/>
    </g>
    <g transform="translate(168.87 122.34)">
     <path d="m0 0c-0.455-0.785-1.461-1.053-2.246-0.597-0.785 0.455-1.052 1.46-0.597 2.246s1.461 1.052 2.246 0.597 1.053-1.461 0.597-2.246"/>
    </g>
    <g transform="translate(180.45 115.62)">
     <path d="m0 0c-0.455-0.785-1.461-1.053-2.246-0.598s-1.052 1.461-0.597 2.246c0.455 0.786 1.461 1.053 2.246 0.598 0.785-0.456 1.053-1.461 0.597-2.246"/>
    </g>
    <g transform="translate(192.03 108.91)">
     <path d="m0 0c-0.455-0.785-1.461-1.053-2.246-0.598-0.785 0.456-1.052 1.461-0.597 2.246 0.455 0.786 1.461 1.053 2.246 0.598s1.053-1.461 0.597-2.246"/>
    </g>
    <g transform="translate(203.6 102.2)">
     <path d="m0 0c-0.455-0.785-1.461-1.053-2.246-0.597-0.785 0.455-1.052 1.461-0.597 2.246 0.455 0.786 1.461 1.053 2.246 0.597 0.785-0.455 1.053-1.461 0.597-2.246"/>
    </g>
    <g transform="translate(116.09 138.02)">
     <path d="m0 0c-0.455-0.785-1.461-1.053-2.246-0.598-0.785 0.456-1.052 1.461-0.597 2.246 0.455 0.786 1.461 1.053 2.246 0.598s1.053-1.461 0.597-2.246"/>
    </g>
    <g transform="translate(127.66 131.3)">
     <path d="m0 0c-0.455-0.785-1.461-1.053-2.246-0.598s-1.052 1.461-0.597 2.246c0.455 0.786 1.461 1.053 2.246 0.597 0.785-0.455 1.053-1.46 0.597-2.245"/>
    </g>
    <g transform="translate(139.24 124.59)">
     <path d="m0 0c-0.455-0.785-1.461-1.053-2.246-0.598s-1.052 1.461-0.597 2.246c0.455 0.786 1.461 1.053 2.246 0.598s1.053-1.461 0.597-2.246"/>
    </g>
    <g transform="translate(150.82 117.88)">
     <path d="m0 0c-0.455-0.785-1.461-1.053-2.246-0.597-0.785 0.455-1.052 1.461-0.597 2.246 0.455 0.786 1.461 1.052 2.246 0.597s1.053-1.461 0.597-2.246"/>
    </g>
    <g transform="translate(162.4 111.17)">
     <path d="m0 0c-0.455-0.785-1.461-1.053-2.246-0.598s-1.052 1.461-0.597 2.246c0.455 0.786 1.461 1.053 2.246 0.598 0.785-0.456 1.053-1.461 0.597-2.246"/>
    </g>
    <g transform="translate(173.97 104.45)">
     <path d="m0 0c-0.455-0.785-1.46-1.053-2.246-0.598-0.785 0.456-1.052 1.461-0.597 2.246 0.455 0.786 1.461 1.053 2.246 0.598s1.053-1.461 0.597-2.246"/>
    </g>
    <g transform="translate(185.55 97.741)">
     <path d="m0 0c-0.455-0.785-1.46-1.052-2.246-0.597-0.785 0.455-1.052 1.461-0.597 2.246 0.455 0.786 1.461 1.053 2.246 0.597 0.785-0.455 1.053-1.461 0.597-2.246"/>
    </g>
    <g transform="translate(197.12 91.029)">
     <path d="m0 0c-0.455-0.785-1.46-1.053-2.246-0.598-0.785 0.455-1.052 1.461-0.597 2.246 0.455 0.786 1.461 1.053 2.246 0.598s1.053-1.461 0.597-2.246"/>
    </g>
    <g transform="translate(109.61 126.85)">
     <path d="m0 0c-0.455-0.785-1.461-1.053-2.246-0.598s-1.052 1.461-0.597 2.246c0.455 0.786 1.461 1.053 2.246 0.598 0.785-0.456 1.053-1.461 0.597-2.246"/>
    </g>
    <g transform="translate(121.19 120.13)">
     <path d="m0 0c-0.455-0.785-1.46-1.053-2.246-0.598-0.785 0.455-1.052 1.461-0.597 2.246 0.455 0.786 1.461 1.053 2.246 0.598s1.053-1.461 0.597-2.246"/>
    </g>
    <g transform="translate(132.76 113.42)">
     <path d="m0 0c-0.455-0.785-1.46-1.053-2.246-0.597-0.785 0.455-1.052 1.461-0.597 2.246 0.455 0.786 1.461 1.053 2.246 0.597 0.785-0.455 1.053-1.461 0.597-2.246"/>
    </g>
    <g transform="translate(144.34 106.71)">
     <path d="m0 0c-0.455-0.785-1.46-1.053-2.246-0.598-0.785 0.455-1.052 1.461-0.597 2.246 0.455 0.786 1.461 1.053 2.246 0.598 0.785-0.456 1.053-1.461 0.597-2.246"/>
    </g>
    <g transform="translate(155.92 99.996)">
     <path d="m0 0c-0.455-0.785-1.46-1.053-2.246-0.598-0.785 0.456-1.052 1.461-0.597 2.246 0.455 0.786 1.461 1.053 2.246 0.598s1.053-1.461 0.597-2.246"/>
    </g>
    <g transform="translate(167.49 93.283)">
     <path d="m0 0c-0.455-0.785-1.46-1.052-2.246-0.597-0.785 0.455-1.052 1.461-0.597 2.246 0.455 0.786 1.461 1.053 2.246 0.597 0.785-0.455 1.053-1.46 0.597-2.246"/>
    </g>
    <g transform="translate(179.07 86.571)">
     <path d="m0 0c-0.455-0.785-1.46-1.053-2.246-0.598-0.785 0.455-1.052 1.461-0.597 2.246 0.455 0.786 1.461 1.053 2.246 0.598s1.053-1.461 0.597-2.246"/>
    </g>
    <g transform="translate(190.65 79.858)">
     <path d="m0 0c-0.456-0.785-1.461-1.053-2.246-0.597-0.785 0.455-1.053 1.46-0.598 2.246 0.456 0.786 1.461 1.052 2.246 0.597s1.053-1.461 0.598-2.246"/>
    </g>
    <g transform="translate(103.13 115.68)">
     <path d="m0 0c-0.455-0.785-1.46-1.053-2.246-0.598-0.785 0.456-1.052 1.461-0.597 2.246 0.455 0.786 1.461 1.053 2.246 0.598s1.053-1.461 0.597-2.246"/>
    </g>
    <g transform="translate(114.71 108.96)">
     <path d="m0 0c-0.455-0.785-1.46-1.052-2.246-0.597-0.785 0.455-1.052 1.461-0.597 2.246 0.455 0.786 1.461 1.053 2.246 0.597 0.785-0.455 1.053-1.461 0.597-2.246"/>
    </g>
    <g transform="translate(126.29 102.25)">
     <path d="m0 0c-0.455-0.785-1.46-1.053-2.246-0.598-0.785 0.455-1.052 1.461-0.597 2.246 0.455 0.786 1.461 1.053 2.246 0.598s1.053-1.461 0.597-2.246"/>
    </g>
    <g transform="translate(137.86 95.538)">
     <path d="m0 0c-0.456-0.785-1.461-1.053-2.246-0.598-0.785 0.456-1.053 1.461-0.598 2.246 0.456 0.786 1.461 1.053 2.246 0.598s1.053-1.461 0.598-2.246"/>
    </g>
    <g transform="translate(149.44 88.826)">
     <path d="m0 0c-0.456-0.785-1.461-1.053-2.246-0.598s-1.053 1.461-0.598 2.246c0.456 0.786 1.461 1.053 2.246 0.597 0.785-0.455 1.053-1.46 0.598-2.245"/>
    </g>
    <g transform="translate(161.02 82.113)">
     <path d="m0 0c-0.456-0.785-1.461-1.053-2.246-0.598s-1.053 1.461-0.598 2.246c0.456 0.786 1.461 1.053 2.246 0.598s1.053-1.461 0.598-2.246"/>
    </g>
    <g transform="translate(172.59 75.4)">
     <path d="m0 0c-0.456-0.785-1.461-1.053-2.246-0.597-0.785 0.455-1.053 1.461-0.598 2.246 0.456 0.786 1.461 1.052 2.246 0.597s1.053-1.461 0.598-2.246"/>
    </g>
    <g transform="translate(184.17 68.688)">
     <path d="m0 0c-0.456-0.785-1.461-1.053-2.246-0.598s-1.053 1.461-0.598 2.246c0.456 0.786 1.461 1.053 2.246 0.598 0.785-0.456 1.053-1.461 0.598-2.246"/>
    </g>
    <g transform="translate(96.658 104.5)">
     <path d="m0 0c-0.456-0.785-1.461-1.052-2.246-0.597s-1.053 1.461-0.598 2.246c0.456 0.786 1.461 1.053 2.246 0.597 0.785-0.455 1.053-1.461 0.598-2.246"/>
    </g>
    <g transform="translate(108.23 97.793)">
     <path d="m0 0c-0.456-0.785-1.461-1.053-2.246-0.598s-1.053 1.461-0.598 2.246c0.456 0.786 1.461 1.053 2.246 0.598s1.053-1.461 0.598-2.246"/>
    </g>
    <g transform="translate(119.81 91.08)">
     <path d="m0 0c-0.456-0.785-1.461-1.053-2.246-0.597-0.785 0.455-1.053 1.46-0.598 2.245 0.456 0.787 1.461 1.053 2.246 0.598s1.053-1.461 0.598-2.246"/>
    </g>
    <g transform="translate(131.39 84.368)">
     <path d="m0 0c-0.456-0.785-1.461-1.053-2.246-0.598s-1.053 1.461-0.598 2.246c0.456 0.786 1.461 1.053 2.246 0.598 0.785-0.456 1.053-1.461 0.598-2.246"/>
    </g>
    <g transform="translate(142.96 77.655)">
     <path d="m0 0c-0.456-0.785-1.461-1.053-2.246-0.598s-1.053 1.461-0.598 2.246c0.456 0.786 1.461 1.053 2.246 0.598s1.053-1.461 0.598-2.246"/>
    </g>
    <g transform="translate(154.54 70.942)">
     <path d="m0 0c-0.456-0.785-1.461-1.053-2.246-0.597-0.785 0.455-1.053 1.461-0.598 2.246 0.456 0.786 1.461 1.053 2.246 0.597 0.785-0.455 1.053-1.461 0.598-2.246"/>
    </g>
    <g transform="translate(166.12 64.23)">
     <path d="m0 0c-0.456-0.785-1.461-1.053-2.246-0.598s-1.053 1.461-0.598 2.246c0.456 0.786 1.461 1.053 2.246 0.598 0.785-0.456 1.053-1.461 0.598-2.246"/>
    </g>
    <g transform="translate(281.86 338.1)">
     <path d="m0 0c0-15.273-12.382-27.655-27.655-27.655-15.274 0-27.656 12.382-27.656 27.655s12.382 27.655 27.656 27.655c15.273 0 27.655-12.382 27.655-27.655" fill="#fff500"/>
    </g>
    <g transform="translate(176.1 114.04)">
     <path d="m0 0c0-15.273-12.382-27.655-27.655-27.655-15.274 0-27.656 12.382-27.656 27.655s12.382 27.655 27.656 27.655c15.273 0 27.655-12.382 27.655-27.655" fill="#fff500"/>
    </g>
    <g transform="translate(201.99 397.12)">
     <path d="m0 0c0-8.857-7.181-16.038-16.038-16.038-8.858 0-16.038 7.181-16.038 16.038s7.18 16.038 16.038 16.038c8.857 0 16.038-7.181 16.038-16.038" fill="#fff500"/>
    </g>
    <g transform="translate(96.74 222.79)">
     <path d="m0 0c0-15.273-12.382-27.655-27.655-27.655-15.274 0-27.656 12.382-27.656 27.655s12.382 27.656 27.656 27.656c15.273 0 27.655-12.383 27.655-27.656" fill="#fff500"/>
    </g>
    <g transform="translate(150.19 347.94)">
     <path d="m0 0-0.029-21.063 18.256 10.506z" fill="none" stroke="#000" stroke-miterlimit="10"/>
    </g>
    <g transform="translate(149.96 397.45)">
     <path d="m0 0-31.594 21.767-3.054-38.246z" fill="#ffb400"/>
    </g>
    <g transform="translate(251.44 292.91)">
     <path d="m0 0-11.827 8.148-1.143-14.316z" fill="#ffb400"/>
    </g>
    <g transform="translate(86.392 317.71)">
     <path d="m0 0-13.821 3.905 3.529-13.922z" fill="#ffb400"/>
    </g>
    <g transform="translate(215.98 327.68)">
     <path d="m0 0-12.117-9.638" fill="none" stroke="#000" stroke-linecap="round" stroke-miterlimit="10" stroke-width="2"/>
    </g>
    <g transform="translate(185.98 324.07)">
     <path d="m0 0 3.38-6.163" fill="none" stroke="#000" stroke-linecap="round" stroke-miterlimit="10" stroke-width="2"/>
    </g>
    <g transform="translate(252.38 377.34)">
     <path d="m0 0 6.56-7.554" fill="none" stroke="#000" stroke-linecap="round" stroke-miterlimit="10" stroke-width="2"/>
    </g>
    <g transform="translate(139.66 354.88)">
     <path d="m0 0-1.59-7.753" fill="none" stroke="#000" stroke-linecap="round" stroke-miterlimit="10" stroke-width="2"/>
    </g>
    <g transform="translate(129.33 375.55)">
     <path d="m0 0 8.747-3.578" fill="none" stroke="#000" stroke-linecap="round" stroke-miterlimit="10" stroke-width="2"/>
    </g>
    <g transform="translate(150.8 391.06)">
     <path d="m0 0-2.783-6.56" fill="none" stroke="#000" stroke-linecap="round" stroke-miterlimit="10" stroke-width="2"/>
    </g>
    <g transform="translate(121.77 325.26)">
     <path d="m0 0 10.138-2.187" fill="none" stroke="#000" stroke-linecap="round" stroke-miterlimit="10" stroke-width="2"/>
    </g>
    <g transform="translate(112.03 351.1)">
     <path d="m0 0 3.976-5.765" fill="none" stroke="#000" stroke-linecap="round" stroke-miterlimit="10" stroke-width="2"/>
    </g>
    <g transform="translate(91.358 365.81)">
     <path d="m0 0 7.952 5.168" fill="none" stroke="#000" stroke-linecap="round" stroke-miterlimit="10" stroke-width="2"/>
    </g>
    <g transform="translate(86.388 386.29)">
     <path d="m0 0 1.59-5.566" fill="none" stroke="#000" stroke-linecap="round" stroke-miterlimit="10" stroke-width="2"/>
    </g>
    <g transform="translate(101.3 403.98)">
     <path d="m0 0 0.994-8.349" fill="none" stroke="#000" stroke-linecap="round" stroke-miterlimit="10" stroke-width="2"/>
    </g>
    <g transform="translate(98.713 261.45)">
     <path d="m0 0-5.169-4.175" fill="none" stroke="#000" stroke-linecap="round" stroke-miterlimit="10" stroke-width="2"/>
    </g>
    <g transform="translate(95.135 187.89)">
     <path d="m0 0 7.753-4.572" fill="none" stroke="#000" stroke-linecap="round" stroke-miterlimit="10" stroke-width="2"/>
    </g>
    <g transform="translate(83.804 158.87)">
     <path d="m0 0 8.35-2.981" fill="none" stroke="#000" stroke-linecap="round" stroke-miterlimit="10" stroke-width="2"/>
    </g>
    <g transform="translate(228.13 203.2)">
     <path d="m0 0-0.397-6.163" fill="none" stroke="#000" stroke-linecap="round" stroke-miterlimit="10" stroke-width="2"/>
    </g>
    <g transform="translate(102.09 168.01)">
     <path d="m0 0 3.976 1.392" fill="none" stroke="#000" stroke-linecap="round" stroke-miterlimit="10" stroke-width="2"/>
    </g>
    <g transform="translate(124.36 188.69)">
     <path d="m0 0 0.596-5.367" fill="none" stroke="#000" stroke-linecap="round" stroke-miterlimit="10" stroke-width="2"/>
    </g>
    <g transform="translate(93.744 131.64)">
     <path d="m0 0 6.759 1.789" fill="none" stroke="#000" stroke-linecap="round" stroke-miterlimit="10" stroke-width="2"/>
    </g>
    <g transform="translate(76.846 144.36)">
     <path d="m0 0 2.982-12.325" fill="none" stroke="#000" stroke-linecap="round" stroke-miterlimit="10" stroke-width="2"/>
    </g>
    <g transform="translate(208.45 187.7)">
     <path d="m0 0 9.343-4.771" fill="none" stroke="#000" stroke-linecap="round" stroke-miterlimit="10" stroke-width="2"/>
    </g>
    <g transform="translate(247.41 190.88)">
     <path d="m0 0-1.789-9.542" fill="none" stroke="#000" stroke-linecap="round" stroke-miterlimit="10" stroke-width="2"/>
    </g>
    <g transform="translate(225.54 156.29)">
     <path d="m0 0 12.325 4.175" fill="none" stroke="#000" stroke-linecap="round" stroke-miterlimit="10" stroke-width="2"/>
    </g>
    <g transform="translate(187.18 180.74)">
     <path d="m0 0 0.994-6.361" fill="none" stroke="#000" stroke-linecap="round" stroke-miterlimit="10" stroke-width="2"/>
    </g>
    <g transform="translate(206.66 148.93)">
     <path d="m0 0 6.361 15.108" fill="none" stroke="#000" stroke-linecap="round" stroke-miterlimit="10" stroke-width="2"/>
    </g>
    <g transform="translate(162.33 176.96)">
     <path d="m0 0 7.554-2.981" fill="none" stroke="#000" stroke-linecap="round" stroke-miterlimit="10" stroke-width="2"/>
    </g>
    <g transform="translate(238.07 138.59)">
     <path d="m0 0 2.584-4.97" fill="none" stroke="#000" stroke-linecap="round" stroke-miterlimit="10" stroke-width="2"/>
    </g>
    <g transform="translate(253.37 164.83)">
     <path d="m0 0 10.337-1.392" fill="none" stroke="#000" stroke-linecap="round" stroke-miterlimit="10" stroke-width="2"/>
    </g>
    <g transform="translate(256.36 148.53)">
     <path d="m0 0-0.199-8.35" fill="none" stroke="#000" stroke-linecap="round" stroke-miterlimit="10" stroke-width="2"/>
    </g>
    <g transform="translate(233.29 112.55)">
     <path d="m0 0 10.337 7.952" fill="none" stroke="#000" stroke-linecap="round" stroke-miterlimit="10" stroke-width="2"/>
    </g>
    <g transform="translate(234.09 260.25)">
     <path d="m0 0 4.174 4.374" fill="none" stroke="#000" stroke-linecap="round" stroke-miterlimit="10" stroke-width="2"/>
    </g>
    <g transform="translate(227.73 287.09)">
     <path d="m0 0 2.783-6.958" fill="none" stroke="#000" stroke-linecap="round" stroke-miterlimit="10" stroke-width="2"/>
    </g>
    <g transform="translate(229.92 309.75)">
     <path d="m0 0 5.964 0.199" fill="none" stroke="#000" stroke-linecap="round" stroke-miterlimit="10" stroke-width="2"/>
    </g>
    <g transform="translate(256.16 279.93)">
     <path d="m0 0 1.988-7.156" fill="none" stroke="#000" stroke-linecap="round" stroke-miterlimit="10" stroke-width="2"/>
    </g>
    <g transform="translate(223.76 170.09)">
     <path d="m0 0 40.034-26.97 3.34 48.156z" fill="#ffb400"/>
    </g>
   </g>
  </g>
 </g>
</svg>
