<svg width="70.732mm" height="40.678mm" version="1.1" viewBox="0 0 70.732 40.678" xmlns="http://www.w3.org/2000/svg">
 <defs>
  <clipPath id="clipPath44">
   <path d="m0 500h500v-500h-500z"/>
  </clipPath>
 </defs>
 <g transform="translate(-77.271 -57.435)">
  <g transform="matrix(.35278 0 0 -.35278 63.803 218.01)">
   <g clip-path="url(#clipPath44)">
    <g transform="translate(198.14 455.17)">
     <path d="m0 0c-0.404-2.311-0.627-4.684-0.627-7.109 0-22.7 18.467-41.167 41.167-41.167v5c-19.943 0-36.167 16.225-36.167 36.167 0 2.434 0.245 4.809 0.706 7.109z" fill="#fde756"/>
    </g>
    <g transform="translate(38.176 432.42)">
     <path d="m0 0v-5.131c15.682-3.955 27.324-18.176 27.324-35.069 0-16.892-11.642-31.113-27.324-35.069v-5.131c18.462 4.058 32.324 20.536 32.324 40.2s-13.862 36.142-32.324 40.2" fill="#a0e8d0"/>
    </g>
    <g transform="translate(55.392 430.87)">
     <path d="m0 0c0-0.854-0.694-1.548-1.548-1.548s-1.548 0.694-1.548 1.548 0.694 1.548 1.548 1.548 1.548-0.694 1.548-1.548" fill="#351055"/>
    </g>
    <g transform="translate(55.392 425.19)">
     <path d="m0 0c0-0.854-0.694-1.548-1.548-1.548s-1.548 0.694-1.548 1.548 0.694 1.548 1.548 1.548 1.548-0.694 1.548-1.548" fill="#351055"/>
    </g>
    <g transform="translate(55.392 418.45)">
     <path d="m0 0c0-0.855-0.694-1.549-1.548-1.549s-1.548 0.694-1.548 1.549c0 0.854 0.694 1.547 1.548 1.547s1.548-0.693 1.548-1.547" fill="#351055"/>
    </g>
    <g transform="translate(55.392 412.31)">
     <path d="m0 0c0-0.854-0.694-1.548-1.548-1.548s-1.548 0.694-1.548 1.548 0.694 1.548 1.548 1.548 1.548-0.694 1.548-1.548" fill="#351055"/>
    </g>
    <g transform="translate(62.272 430.87)">
     <path d="m0 0c0-0.854-0.694-1.548-1.549-1.548-0.854 0-1.547 0.694-1.547 1.548s0.693 1.548 1.547 1.548c0.855 0 1.549-0.694 1.549-1.548" fill="#351055"/>
    </g>
    <g transform="translate(62.272 425.19)">
     <path d="m0 0c0-0.854-0.694-1.548-1.549-1.548-0.854 0-1.547 0.694-1.547 1.548s0.693 1.548 1.547 1.548c0.855 0 1.549-0.694 1.549-1.548" fill="#351055"/>
    </g>
    <g transform="translate(62.272 418.45)">
     <path d="m0 0c0-0.855-0.694-1.549-1.549-1.549-0.854 0-1.547 0.694-1.547 1.549 0 0.854 0.693 1.547 1.547 1.547 0.855 0 1.549-0.693 1.549-1.547" fill="#351055"/>
    </g>
    <g transform="translate(62.272 412.31)">
     <path d="m0 0c0-0.854-0.694-1.548-1.549-1.548-0.854 0-1.547 0.694-1.547 1.548s0.693 1.548 1.547 1.548c0.855 0 1.549-0.694 1.549-1.548" fill="#351055"/>
    </g>
    <g transform="translate(68.922 430.87)">
     <path d="m0 0c0-0.854-0.693-1.548-1.548-1.548-0.854 0-1.548 0.694-1.548 1.548s0.694 1.548 1.548 1.548c0.855 0 1.548-0.694 1.548-1.548" fill="#351055"/>
    </g>
    <g transform="translate(68.922 425.19)">
     <path d="m0 0c0-0.854-0.693-1.548-1.548-1.548-0.854 0-1.548 0.694-1.548 1.548s0.694 1.548 1.548 1.548c0.855 0 1.548-0.694 1.548-1.548" fill="#351055"/>
    </g>
    <g transform="translate(68.922 418.45)">
     <path d="m0 0c0-0.855-0.693-1.549-1.548-1.549-0.854 0-1.548 0.694-1.548 1.549 0 0.854 0.694 1.547 1.548 1.547 0.855 0 1.548-0.693 1.548-1.547" fill="#351055"/>
    </g>
    <g transform="translate(68.922 412.31)">
     <path d="m0 0c0-0.854-0.693-1.548-1.548-1.548-0.854 0-1.548 0.694-1.548 1.548s0.694 1.548 1.548 1.548c0.855 0 1.548-0.694 1.548-1.548" fill="#351055"/>
    </g>
    <g transform="translate(75.458 430.87)">
     <path d="m0 0c0-0.854-0.693-1.548-1.547-1.548-0.855 0-1.549 0.694-1.549 1.548s0.694 1.548 1.549 1.548c0.854 0 1.547-0.694 1.547-1.548" fill="#351055"/>
    </g>
    <g transform="translate(75.458 425.19)">
     <path d="m0 0c0-0.854-0.693-1.548-1.547-1.548-0.855 0-1.549 0.694-1.549 1.548s0.694 1.548 1.549 1.548c0.854 0 1.547-0.694 1.547-1.548" fill="#351055"/>
    </g>
    <g transform="translate(75.458 418.45)">
     <path d="m0 0c0-0.855-0.693-1.549-1.547-1.549-0.855 0-1.549 0.694-1.549 1.549 0 0.854 0.694 1.547 1.549 1.547 0.854 0 1.547-0.693 1.547-1.547" fill="#351055"/>
    </g>
    <g transform="translate(75.458 412.31)">
     <path d="m0 0c0-0.854-0.693-1.548-1.547-1.548-0.855 0-1.549 0.694-1.549 1.548s0.694 1.548 1.549 1.548c0.854 0 1.547-0.694 1.547-1.548" fill="#351055"/>
    </g>
    <g transform="translate(72.362 347.21)">
     <path d="m0 0-6.672 6.672 6.672 6.672 6.672-6.672z" fill="#fde756"/>
    </g>
    <g transform="translate(171.33 445.52)">
     <path d="m0 0-6.672-4.521 6.672-4.521v1e-3z" fill="#e4f0f7"/>
    </g>
    <g transform="translate(179.67 436.48)">
     <path d="m0 0 1e-3 1e-3v9.041l-6.673-4.521z" fill="#e4f0f7"/>
    </g>
    <g transform="translate(188 436.48)">
     <path d="m0 0v9.042l-6.672-4.521z" fill="#e4f0f7"/>
    </g>
    <g transform="translate(217.24 383.71)">
     <path d="m0 0h-1.797v1.444h-2v-1.444h-1.625v-2.086h1.625v-1.668h2v1.668h1.797z" fill="#44165e"/>
    </g>
    <g transform="translate(215.55 425.26)">
     <path d="m0 0c0-4.892-3.965-8.856-8.856-8.856-4.893 0-8.857 3.964-8.857 8.856s3.964 8.857 8.857 8.857c4.891 0 8.856-3.965 8.856-8.857z" fill="none" stroke="#ed4b48" stroke-miterlimit="10" stroke-width="2"/>
    </g>
    <g transform="translate(228.88 351.93)">
     <path d="m0 0c-1.392 0-2.131 0.711-2.671 1.23-0.485 0.466-0.724 0.672-1.287 0.672s-0.802-0.206-1.287-0.672c-0.541-0.519-1.281-1.23-2.673-1.23-1.393 0-2.133 0.711-2.673 1.23-0.485 0.466-0.723 0.672-1.286 0.672-0.564 0-0.802-0.206-1.288-0.672-0.54-0.519-1.28-1.23-2.673-1.23s-2.133 0.711-2.674 1.23c-0.486 0.466-0.724 0.672-1.288 0.672-0.565 0-0.803-0.206-1.288-0.672-0.541-0.519-1.282-1.23-2.675-1.23s-2.133 0.711-2.674 1.23c-0.485 0.466-0.724 0.672-1.288 0.672-0.565 0-0.803-0.206-1.288-0.672-0.541-0.519-1.281-1.23-2.674-1.23s-2.133 0.711-2.673 1.23c-0.486 0.466-0.724 0.672-1.288 0.672-0.565 0-0.804-0.206-1.29-0.672-0.54-0.519-1.28-1.23-2.673-1.23-1.394 0-2.136 0.71-2.677 1.229-0.486 0.467-0.726 0.673-1.293 0.673-0.566 0-0.806-0.206-1.293-0.673-0.541-0.519-1.282-1.229-2.676-1.229v2c0.567 0 0.806 0.207 1.293 0.673 0.541 0.519 1.282 1.229 2.676 1.229 1.395 0 2.136-0.71 2.677-1.229 0.487-0.466 0.726-0.673 1.293-0.673 0.564 0 0.803 0.206 1.289 0.672 0.54 0.519 1.28 1.23 2.674 1.23 1.393 0 2.133-0.711 2.673-1.23 0.486-0.466 0.724-0.672 1.288-0.672s0.803 0.206 1.288 0.672c0.541 0.519 1.281 1.23 2.674 1.23 1.392 0 2.133-0.711 2.673-1.23 0.486-0.466 0.725-0.672 1.289-0.672 0.565 0 0.804 0.206 1.289 0.672 0.541 0.519 1.281 1.23 2.674 1.23 1.392 0 2.133-0.711 2.673-1.23 0.486-0.466 0.725-0.672 1.289-0.672s0.802 0.206 1.288 0.672c0.54 0.519 1.28 1.23 2.673 1.23 1.392 0 2.132-0.711 2.672-1.23 0.485-0.466 0.723-0.672 1.287-0.672s0.802 0.206 1.287 0.672c0.541 0.519 1.281 1.23 2.673 1.23 1.393 0 2.132-0.711 2.672-1.23 0.485-0.466 0.723-0.672 1.286-0.672z" fill="#44165e"/>
    </g>
    <g transform="translate(137.17 439.05)">
     <path d="m0 0c-1.392 0-2.131 0.711-2.671 1.23-0.485 0.466-0.724 0.672-1.287 0.672s-0.802-0.206-1.287-0.672c-0.541-0.519-1.281-1.23-2.673-1.23-1.393 0-2.133 0.711-2.673 1.23-0.485 0.466-0.723 0.672-1.286 0.672-0.564 0-0.802-0.206-1.288-0.672-0.54-0.519-1.28-1.23-2.673-1.23s-2.133 0.711-2.674 1.23c-0.486 0.466-0.724 0.672-1.288 0.672-0.565 0-0.803-0.206-1.288-0.672-0.541-0.519-1.282-1.23-2.675-1.23s-2.133 0.711-2.674 1.23c-0.485 0.466-0.724 0.672-1.288 0.672-0.565 0-0.803-0.206-1.288-0.672-0.541-0.519-1.281-1.23-2.674-1.23s-2.133 0.711-2.673 1.23c-0.486 0.466-0.724 0.672-1.288 0.672-0.565 0-0.804-0.206-1.29-0.672-0.54-0.519-1.28-1.23-2.673-1.23-1.394 0-2.136 0.71-2.677 1.229-0.486 0.467-0.726 0.673-1.293 0.673-0.566 0-0.806-0.206-1.293-0.673-0.541-0.519-1.282-1.229-2.676-1.229v2c0.567 0 0.806 0.207 1.293 0.673 0.541 0.519 1.282 1.229 2.676 1.229 1.395 0 2.136-0.71 2.677-1.229 0.487-0.466 0.726-0.673 1.293-0.673 0.564 0 0.803 0.206 1.289 0.672 0.54 0.519 1.28 1.23 2.674 1.23 1.393 0 2.133-0.711 2.673-1.23 0.486-0.466 0.724-0.672 1.288-0.672s0.803 0.206 1.288 0.672c0.541 0.519 1.281 1.23 2.674 1.23 1.392 0 2.133-0.711 2.673-1.23 0.486-0.466 0.725-0.672 1.289-0.672 0.565 0 0.804 0.206 1.289 0.672 0.541 0.519 1.281 1.23 2.674 1.23 1.392 0 2.133-0.711 2.673-1.23 0.486-0.466 0.725-0.672 1.289-0.672s0.802 0.206 1.288 0.672c0.54 0.519 1.28 1.23 2.673 1.23 1.392 0 2.132-0.711 2.672-1.23 0.485-0.466 0.723-0.672 1.287-0.672s0.802 0.206 1.287 0.672c0.541 0.519 1.281 1.23 2.673 1.23 1.393 0 2.132-0.711 2.672-1.23 0.485-0.466 0.723-0.672 1.286-0.672z" fill="#ed4b48"/>
    </g>
    <g transform="translate(98.498 367.31)">
     <path d="m0 0c0-2.452-1.988-4.44-4.44-4.44-2.453 0-4.44 1.988-4.44 4.44 0 2.453 1.987 4.44 4.44 4.44 2.452 0 4.44-1.987 4.44-4.44z" fill="none" stroke="#44165e" stroke-miterlimit="10" stroke-width="2"/>
    </g>
    <g transform="translate(138.97 356.53)">
     <path d="m0 0-4.521 6.672-4.521-6.672h1e-3z" fill="#e4f0f7"/>
    </g>
    <g transform="translate(129.93 348.2)">
     <path d="m0 0 1e-3 -1e-3h9.041l-4.521 6.673z" fill="#e4f0f7"/>
    </g>
    <g transform="translate(129.93 339.86)">
     <path d="m0 0h9.042l-4.521 6.672z" fill="#e4f0f7"/>
    </g>
    <g transform="translate(188,374)">
     <path d="m0 0c0-1.243-1.007-2.25-2.25-2.25s-2.25 1.007-2.25 2.25 1.007 2.25 2.25 2.25 2.25-1.007 2.25-2.25" fill="#ed4b48"/>
    </g>
    <g transform="translate(217.8 445.52)">
     <path d="m0 0c0-1.243-1.007-2.25-2.25-2.25s-2.25 1.007-2.25 2.25 1.007 2.25 2.25 2.25 2.25-1.007 2.25-2.25" fill="#44165e"/>
    </g>
    <g transform="translate(142.87 429.32)">
     <path d="m0 0c0-1.243-1.007-2.25-2.25-2.25s-2.25 1.007-2.25 2.25 1.007 2.25 2.25 2.25 2.25-1.007 2.25-2.25" fill="#a0e8d0"/>
    </g>
    <g transform="translate(80.88 444.43)">
     <path d="m0 0h-1.797v1.444h-2v-1.444h-1.625v-2.086h1.625v-1.668h2v1.668h1.797z" fill="#fde756"/>
    </g>
   </g>
  </g>
 </g>
</svg>
