<svg width="65.114mm" height="65.114mm" version="1.1" viewBox="0 0 65.114 65.114" xmlns="http://www.w3.org/2000/svg">
 <defs>
  <clipPath id="clipPath264">
   <path d="m0 500h500v-500h-500z"/>
  </clipPath>
 </defs>
 <g transform="translate(-26.105 -60.437)">
  <path d="m91.219 125.55h-65.114v-65.114h65.114z" fill="#fff"/>
  <path d="m91.219 125.55h-65.114v-65.114h65.114z" fill="#fff"/>
  <g transform="matrix(.35278 0 0 -.35278 44.063 111.27)">
   <path d="m0 0h5.5l-5.5-9.526-5.5 9.526z" fill="#ffde7a"/>
  </g>
  <g transform="matrix(.35278 0 0 -.35278 11.078 220.9)">
   <g clip-path="url(#clipPath264)">
    <g transform="translate(227.17 429.69)">
     <path d="m0 0c-11.382-4.176-19.504-15.108-19.504-27.938s8.122-23.762 19.504-27.938z" fill="#beecfa"/>
    </g>
    <g transform="translate(227.17 384.04)">
     <path d="m0 0c-5.956-0.542-15.277-4.981-24.837-23.704-16-31.333 1.333-23.333-30.667-41.333s-32.666-14-38-34.667c-1.357-5.26-3.364-9.955-5.599-14.038h70.868c0.306 2.672 0.953 5.572 2.065 8.705 7.333 20.666 6.666 18 15.333 33.333 2.837 5.019 6.746 7.673 10.837 9.17z" fill="#ffde7a"/>
    </g>
    <g transform="translate(85.13 454.87)">
     <path d="m0 0c-1.89-4.04-4.479-8.428-9.463-13.204-15.099-14.469-14.179-5.196-33.072-2.424v-71.124c23.31-3.708 35.468 11.13 53.739 34.881 20 26 13.333 10 35.333 24.667 11.015 7.344 15.177 18.197 16.588 27.204z" fill="#beecfa"/>
    </g>
    <g transform="translate(136 425.95)">
     <path d="m0 0c-2.604 0-4.714 2.11-4.714 4.714s2.11 4.714 4.714 4.714 4.714-2.11 4.714-4.714-2.11-4.714-4.714-4.714m0 15.714c-6.075 0-11-4.925-11-11s4.925-11 11-11 11 4.925 11 11-4.925 11-11 11" fill="#ff9acd"/>
    </g>
    <g transform="translate(227.17 285.37)">
     <path d="m0 0c-2.207 0.394-3.885 2.312-3.885 4.631s1.678 4.237 3.885 4.631v6.327c-5.686-0.425-10.17-5.163-10.17-10.958s4.484-10.533 10.17-10.958z" fill="#b677bd"/>
    </g>
    <g>
     <path d="m42.595 420.5h35.405v4h-35.405z" fill="#b677bd"/>
     <path d="m192.5 438.33h4v16.537h-4z"/>
     <path d="m107.33 284.33h-4.667v4.667h4.667z" fill="#ff9acd"/>
     <path d="m121.33 284.33h-4.667v4.667h4.667z" fill="#beecfa"/>
    </g>
    <g transform="translate(47 311.67)">
     <path d="m0 0c-1.487 0-2.957-0.075-4.405-0.222v-14.108c1.437 0.216 2.907 0.33 4.405 0.33 15.54 0 28.25-12.086 29.261-27.371h14.023c-1.027 23.021-20.01 41.371-43.284 41.371" fill="#ff9acd"/>
    </g>
    <g transform="translate(154.75,281.5)">
     <path d="m0 0c0.552 0 1-0.448 1-1s-0.448-1-1-1-1 0.448-1 1 0.448 1 1 1"/>
    </g>
    <g transform="translate(161,281.5)">
     <path d="m0 0c0.552 0 1-0.448 1-1s-0.448-1-1-1-1 0.448-1 1 0.448 1 1 1"/>
    </g>
    <g transform="translate(167.25,281.5)">
     <path d="m0 0c0.552 0 1-0.448 1-1s-0.448-1-1-1-1 0.448-1 1 0.448 1 1 1"/>
    </g>
    <g transform="translate(173.5,281.5)">
     <path d="m0 0c0.552 0 1-0.448 1-1s-0.448-1-1-1-1 0.448-1 1 0.448 1 1 1"/>
    </g>
    <g transform="translate(179.75,281.5)">
     <path d="m0 0c0.552 0 1-0.448 1-1s-0.448-1-1-1-1 0.448-1 1 0.448 1 1 1"/>
    </g>
    <g transform="translate(186,281.5)">
     <path d="m0 0c0.552 0 1-0.448 1-1s-0.448-1-1-1-1 0.448-1 1 0.448 1 1 1"/>
    </g>
    <g transform="translate(192.25,281.5)">
     <path d="m0 0c0.552 0 1-0.448 1-1s-0.448-1-1-1-1 0.448-1 1 0.448 1 1 1"/>
    </g>
    <g transform="translate(154.75,287)">
     <path d="m0 0c0.552 0 1-0.448 1-1s-0.448-1-1-1-1 0.448-1 1 0.448 1 1 1"/>
    </g>
    <g transform="translate(161,287)">
     <path d="m0 0c0.552 0 1-0.448 1-1s-0.448-1-1-1-1 0.448-1 1 0.448 1 1 1"/>
    </g>
    <g transform="translate(167.25,287)">
     <path d="m0 0c0.552 0 1-0.448 1-1s-0.448-1-1-1-1 0.448-1 1 0.448 1 1 1"/>
    </g>
    <g transform="translate(173.5,287)">
     <path d="m0 0c0.552 0 1-0.448 1-1s-0.448-1-1-1-1 0.448-1 1 0.448 1 1 1"/>
    </g>
    <g transform="translate(179.75,287)">
     <path d="m0 0c0.552 0 1-0.448 1-1s-0.448-1-1-1-1 0.448-1 1 0.448 1 1 1"/>
    </g>
    <g transform="translate(186,287)">
     <path d="m0 0c0.552 0 1-0.448 1-1s-0.448-1-1-1-1 0.448-1 1 0.448 1 1 1"/>
    </g>
    <g transform="translate(192.25,287)">
     <path d="m0 0c0.552 0 1-0.448 1-1s-0.448-1-1-1-1 0.448-1 1 0.448 1 1 1"/>
    </g>
    <g transform="translate(154.75,292.5)">
     <path d="m0 0c0.552 0 1-0.448 1-1s-0.448-1-1-1-1 0.448-1 1 0.448 1 1 1"/>
    </g>
    <g transform="translate(161,292.5)">
     <path d="m0 0c0.552 0 1-0.448 1-1s-0.448-1-1-1-1 0.448-1 1 0.448 1 1 1"/>
    </g>
    <g transform="translate(167.25,292.5)">
     <path d="m0 0c0.552 0 1-0.448 1-1s-0.448-1-1-1-1 0.448-1 1 0.448 1 1 1"/>
    </g>
    <g transform="translate(173.5,292.5)">
     <path d="m0 0c0.552 0 1-0.448 1-1s-0.448-1-1-1-1 0.448-1 1 0.448 1 1 1"/>
    </g>
    <g transform="translate(179.75,292.5)">
     <path d="m0 0c0.552 0 1-0.448 1-1s-0.448-1-1-1-1 0.448-1 1 0.448 1 1 1"/>
    </g>
    <g transform="translate(186,292.5)">
     <path d="m0 0c0.552 0 1-0.448 1-1s-0.448-1-1-1-1 0.448-1 1 0.448 1 1 1"/>
    </g>
    <g transform="translate(192.25,292.5)">
     <path d="m0 0c0.552 0 1-0.448 1-1s-0.448-1-1-1-1 0.448-1 1 0.448 1 1 1"/>
    </g>
    <g transform="translate(73.834 372.67)">
     <path d="m0 0c0 0.552 0.448 1 1 1s1-0.448 1-1-0.448-1-1-1-1 0.448-1 1" fill="#b677bd"/>
    </g>
    <g transform="translate(73.834 378.92)">
     <path d="m0 0c0 0.552 0.448 1 1 1s1-0.448 1-1-0.448-1-1-1-1 0.448-1 1" fill="#b677bd"/>
    </g>
    <g transform="translate(73.834 385.17)">
     <path d="m0 0c0 0.552 0.448 1 1 1s1-0.448 1-1-0.448-1-1-1-1 0.448-1 1" fill="#b677bd"/>
    </g>
    <g transform="translate(73.834 391.42)">
     <path d="m0 0c0 0.552 0.448 1 1 1s1-0.448 1-1-0.448-1-1-1-1 0.448-1 1" fill="#b677bd"/>
    </g>
    <g transform="translate(73.834 397.67)">
     <path d="m0 0c0 0.552 0.448 1 1 1s1-0.448 1-1-0.448-1-1-1-1 0.448-1 1" fill="#b677bd"/>
    </g>
    <g transform="translate(73.834 403.92)">
     <path d="m0 0c0 0.552 0.448 1 1 1s1-0.448 1-1-0.448-1-1-1-1 0.448-1 1" fill="#b677bd"/>
    </g>
    <g transform="translate(73.834 410.17)">
     <path d="m0 0c0 0.552 0.448 1 1 1s1-0.448 1-1-0.448-1-1-1-1 0.448-1 1" fill="#b677bd"/>
    </g>
    <g transform="translate(68.334 372.67)">
     <path d="m0 0c0 0.552 0.448 1 1 1s1-0.448 1-1-0.448-1-1-1-1 0.448-1 1" fill="#b677bd"/>
    </g>
    <g transform="translate(68.334 378.92)">
     <path d="m0 0c0 0.552 0.448 1 1 1s1-0.448 1-1-0.448-1-1-1-1 0.448-1 1" fill="#b677bd"/>
    </g>
    <g transform="translate(68.334 385.17)">
     <path d="m0 0c0 0.552 0.448 1 1 1s1-0.448 1-1-0.448-1-1-1-1 0.448-1 1" fill="#b677bd"/>
    </g>
    <g transform="translate(68.334 391.42)">
     <path d="m0 0c0 0.552 0.448 1 1 1s1-0.448 1-1-0.448-1-1-1-1 0.448-1 1" fill="#b677bd"/>
    </g>
    <g transform="translate(68.334 397.67)">
     <path d="m0 0c0 0.552 0.448 1 1 1s1-0.448 1-1-0.448-1-1-1-1 0.448-1 1" fill="#b677bd"/>
    </g>
    <g transform="translate(68.334 403.92)">
     <path d="m0 0c0 0.552 0.448 1 1 1s1-0.448 1-1-0.448-1-1-1-1 0.448-1 1" fill="#b677bd"/>
    </g>
    <g transform="translate(68.334 410.17)">
     <path d="m0 0c0 0.552 0.448 1 1 1s1-0.448 1-1-0.448-1-1-1-1 0.448-1 1" fill="#b677bd"/>
    </g>
    <g transform="translate(62.834 372.67)">
     <path d="m0 0c0 0.552 0.448 1 1 1s1-0.448 1-1-0.448-1-1-1-1 0.448-1 1" fill="#b677bd"/>
    </g>
    <g transform="translate(62.834 378.92)">
     <path d="m0 0c0 0.552 0.448 1 1 1s1-0.448 1-1-0.448-1-1-1-1 0.448-1 1" fill="#b677bd"/>
    </g>
    <g transform="translate(62.834 385.17)">
     <path d="m0 0c0 0.552 0.448 1 1 1s1-0.448 1-1-0.448-1-1-1-1 0.448-1 1" fill="#b677bd"/>
    </g>
    <g transform="translate(62.834 391.42)">
     <path d="m0 0c0 0.552 0.448 1 1 1s1-0.448 1-1-0.448-1-1-1-1 0.448-1 1" fill="#b677bd"/>
    </g>
    <g transform="translate(62.834 397.67)">
     <path d="m0 0c0 0.552 0.448 1 1 1s1-0.448 1-1-0.448-1-1-1-1 0.448-1 1" fill="#b677bd"/>
    </g>
    <g transform="translate(62.834 403.92)">
     <path d="m0 0c0 0.552 0.448 1 1 1s1-0.448 1-1-0.448-1-1-1-1 0.448-1 1" fill="#b677bd"/>
    </g>
    <g transform="translate(62.834 410.17)">
     <path d="m0 0c0 0.552 0.448 1 1 1s1-0.448 1-1-0.448-1-1-1-1 0.448-1 1" fill="#b677bd"/>
    </g>
    <g transform="translate(88.737 433.5)">
     <path d="m0 0v5.5l9.526-5.5-9.526-5.5z"/>
    </g>
    <g transform="translate(194.17 301.24)">
     <path d="m0 0h-5.5l5.5 9.526 5.5-9.526z"/>
    </g>
   </g>
  </g>
 </g>
</svg>
